<svg width="3088" height="2572" viewBox="0 0 3088 2572" fill="none" xmlns="http://www.w3.org/2000/svg">
<path d="M1550 1894C1366.76 1894 1189.2 1834.87 1047.56 1726.71C905.919 1618.53 808.965 1468 773.219 1300.78C737.472 1133.54 765.145 959.953 851.52 809.578C937.896 659.204 1077.63 541.351 1246.92 476.1C1416.2 410.85 1604.56 402.239 1779.91 451.735C1955.25 501.232 2106.72 605.772 2208.53 747.544C2310.32 889.316 2356.15 1059.55 2338.18 1229.24C2320.22 1398.93 2239.6 1557.56 2110.03 1678.13C2036.66 1746.79 1949.37 1801.21 1853.25 1838.26C1757.12 1875.32 1654.05 1894.26 1550 1894ZM1550 425.665C1116.65 425.665 764.087 753.739 764.087 1157C764.087 1560.25 1116.65 1888.33 1550 1888.33C1983.35 1888.33 2335.91 1560.25 2335.91 1157C2335.91 753.739 1983.35 425.665 1550 425.665Z" fill="#CCCCCC"/>
<path d="M1869 2110V1368H1276V2110H1869Z" fill="#2F2E41"/>
<path d="M1971 1345H1174V1640H1971V1345Z" fill="#3F3D56"/>
<path d="M1971 1674H1174V1969H1971V1674Z" fill="#3F3D56"/>
<path d="M1971 2003H1174V2297H1971V2003Z" fill="#3F3D56"/>
<path d="M1971 1470H1174V1516H1971V1470Z" fill="#6C63FF"/>
<path d="M1971 1799H1174V1844H1971V1799Z" fill="#6C63FF"/>
<path d="M1971 2128H1174V2173H1971V2128Z" fill="#6C63FF"/>
<path d="M1816 1405C1825.94 1405 1834 1397.38 1834 1388C1834 1378.61 1825.94 1371 1816 1371C1806.06 1371 1798 1378.61 1798 1388C1798 1397.38 1806.06 1405 1816 1405Z" fill="#6C63FF"/>
<path d="M1880 1405C1889.94 1405 1898 1397.38 1898 1388C1898 1378.61 1889.94 1371 1880 1371C1870.06 1371 1862 1378.61 1862 1388C1862 1397.38 1870.06 1405 1880 1405Z" fill="#6C63FF"/>
<path d="M1944 1405C1953.94 1405 1962 1397.38 1962 1388C1962 1378.61 1953.94 1371 1944 1371C1934.06 1371 1926 1378.61 1926 1388C1926 1397.38 1934.06 1405 1944 1405Z" fill="#6C63FF"/>
<path d="M1816 1728C1825.94 1728 1834 1720.39 1834 1711C1834 1701.61 1825.94 1694 1816 1694C1806.06 1694 1798 1701.61 1798 1711C1798 1720.39 1806.06 1728 1816 1728Z" fill="#6C63FF"/>
<path d="M1880 1728C1889.94 1728 1898 1720.39 1898 1711C1898 1701.61 1889.94 1694 1880 1694C1870.06 1694 1862 1701.61 1862 1711C1862 1720.39 1870.06 1728 1880 1728Z" fill="#6C63FF"/>
<path d="M1944 1728C1953.94 1728 1962 1720.39 1962 1711C1962 1701.61 1953.94 1694 1944 1694C1934.06 1694 1926 1701.61 1926 1711C1926 1720.39 1934.06 1728 1944 1728Z" fill="#6C63FF"/>
<path d="M1816 2051C1825.94 2051 1834 2043.39 1834 2034C1834 2024.62 1825.94 2017 1816 2017C1806.06 2017 1798 2024.62 1798 2034C1798 2043.39 1806.06 2051 1816 2051Z" fill="#6C63FF"/>
<path d="M1880 2051C1889.94 2051 1898 2043.39 1898 2034C1898 2024.62 1889.94 2017 1880 2017C1870.06 2017 1862 2024.62 1862 2034C1862 2043.39 1870.06 2051 1880 2051Z" fill="#6C63FF"/>
<path d="M1944 2051C1953.94 2051 1962 2043.39 1962 2034C1962 2024.62 1953.94 2017 1944 2017C1934.06 2017 1926 2024.62 1926 2034C1926 2043.39 1934.06 2051 1944 2051Z" fill="#6C63FF"/>
<path d="M2434 922H2251V1010H2434V922Z" fill="#E6E6E6"/>
<path d="M2434 1237H2251V1324H2434V1237Z" fill="#E6E6E6"/>
<path d="M2342.5 1265C2426.73 1265 2495 1201.65 2495 1123.5C2495 1045.35 2426.73 982 2342.5 982C2258.28 982 2190 1045.35 2190 1123.5C2190 1201.65 2258.28 1265 2342.5 1265Z" fill="#E6E6E6"/>
<path d="M2343 1234C2408.73 1234 2462 1184.53 2462 1123.5C2462 1062.47 2408.73 1013 2343 1013C2277.29 1013 2224 1062.47 2224 1123.5C2224 1184.53 2277.29 1234 2343 1234Z" fill="white"/>
<path d="M2396 1093H2304V1098H2396V1093Z" fill="#E2E2E2"/>
<path d="M2446 1111H2304V1116H2446V1111Z" fill="#6C63FF"/>
<path d="M2416 1128H2304V1133H2416V1128Z" fill="#E2E2E2"/>
<path d="M2370 1145H2304V1150H2370V1145Z" fill="#E2E2E2"/>
<path d="M2402 1162H2304V1167H2402V1162Z" fill="#E2E2E2"/>
<path d="M2273 1092H2262V1101H2273V1092Z" fill="#E2E2E2"/>
<path d="M2273 1108H2262V1118H2273V1108Z" fill="#6C63FF"/>
<path d="M2273 1125H2262V1135H2273V1125Z" fill="#E2E2E2"/>
<path d="M2273 1142H2262V1152H2273V1142Z" fill="#E2E2E2"/>
<path d="M2273 1159H2262V1169H2273V1159Z" fill="#E2E2E2"/>
<path d="M956 923.563V1450.44C955.997 1461.47 951.297 1472.04 942.931 1479.83C934.565 1487.62 923.219 1492 911.389 1492H691.629C679.796 1492 668.446 1487.62 660.076 1479.83C651.707 1472.04 647.003 1461.47 647 1450.44V923.563C647.003 912.538 651.707 901.965 660.076 894.171C668.446 886.376 679.796 881.999 691.629 882H718.287C716.979 884.999 716.48 888.252 716.837 891.472C717.193 894.693 718.393 897.783 720.331 900.471C722.27 903.158 724.887 905.36 727.952 906.885C731.018 908.408 734.439 909.209 737.914 909.212H863.206C866.682 909.209 870.102 908.408 873.168 906.885C876.234 905.36 878.851 903.158 880.789 900.471C882.728 897.783 883.928 894.693 884.284 891.472C884.64 888.252 884.142 884.999 882.833 882H911.389C923.22 882.002 934.565 886.382 942.931 894.176C951.297 901.971 955.997 912.541 956 923.563Z" fill="#E6E6E6"/>
<path d="M942 983H662V1346H942V983Z" fill="white"/>
<path d="M853 1232H741V1238H853V1232Z" fill="#E6E6E6"/>
<path d="M914 1254H741V1260H914V1254Z" fill="#6C63FF"/>
<path d="M877 1270H741V1276H877V1270Z" fill="#E6E6E6"/>
<path d="M821 1295H741V1301H821V1295Z" fill="#E6E6E6"/>
<path d="M861 1316H741V1322H861V1316Z" fill="#E6E6E6"/>
<path d="M859 1028H746V1133H859V1028Z" fill="#E6E6E6"/>
<path d="M1867.3 573.805L1675.19 685.445C1670.65 688.094 1663.33 688.094 1658.79 685.487L1333.3 497.539C1328.76 494.932 1328.76 490.686 1333.3 488.038L1525.41 376.398C1529.9 373.792 1537.22 373.792 1541.76 376.398L1867.25 564.305C1871.79 566.953 1871.84 571.199 1867.3 573.805Z" fill="#384E85"/>
<path d="M1583.92 548.269C1586.5 549.763 1586.49 552.197 1583.92 553.691L1530.54 584.713C1527.96 586.207 1523.76 586.224 1521.18 584.73L1415.98 523.995C1413.39 522.501 1413.41 520.067 1415.98 518.573L1469.36 487.551C1471.93 486.057 1476.13 486.04 1478.72 487.534L1583.92 548.269Z" fill="#2E4277"/>
<path d="M1870.66 569.099L1870.62 586.25C1870.62 587.932 1869.48 589.655 1867.25 590.959L1675.15 702.599C1670.61 705.205 1663.29 705.205 1658.75 702.599L1333.26 514.692C1330.99 513.389 1329.85 511.665 1329.85 509.9L1329.9 492.791C1329.9 494.514 1331.03 496.238 1333.3 497.541L1658.79 685.49C1663.33 688.096 1670.65 688.096 1675.19 685.448L1867.3 573.807C1869.57 572.504 1870.66 570.823 1870.66 569.099Z" fill="#1B2A4F"/>
<path d="M1578.47 427.126L1572.36 430.673L1557.63 422.166L1563.73 418.619L1578.47 427.126Z" fill="#798FFE"/>
<path d="M1498.12 450.896L1484.62 458.742L1450.08 438.797L1463.58 430.952L1498.12 450.896Z" fill="#798FFE"/>
<path d="M1495.31 429.585L1481.81 437.43L1467.08 428.922L1480.58 421.077L1495.31 429.585Z" fill="#798FFE"/>
<path d="M1515.12 441.02L1501.62 448.865L1486.89 440.357L1500.39 432.512L1515.12 441.02Z" fill="#798FFE"/>
<path d="M1532.12 431.141L1518.62 438.987L1484.07 419.043L1497.57 411.197L1532.12 431.141Z" fill="#798FFE"/>
<path d="M1551.9 442.565L1538.4 450.41L1523.66 441.903L1537.16 434.058L1551.9 442.565Z" fill="#798FFE"/>
<path d="M1576.23 436.959L1562.76 444.789L1548.02 436.282L1561.5 428.451L1576.23 436.959Z" fill="#798FFE"/>
<path d="M1556.45 425.532L1542.98 433.362L1528.24 424.855L1541.72 417.024L1556.45 425.532Z" fill="#798FFE"/>
<path d="M1558.68 415.699L1552.58 419.246L1537.84 410.739L1543.95 407.191L1558.68 415.699Z" fill="#798FFE"/>
<path d="M1536.65 414.099L1523.17 421.929L1501.07 409.168L1514.54 401.337L1536.65 414.099Z" fill="#798FFE"/>
<path d="M1538.87 404.266L1532.77 407.813L1518.04 399.306L1524.14 395.758L1538.87 404.266Z" fill="#798FFE"/>
<path d="M1657.65 472.84L1651.55 476.387L1636.81 467.879L1642.92 464.332L1657.65 472.84Z" fill="#798FFE"/>
<path d="M1655.42 482.672L1641.95 490.503L1627.21 481.995L1640.68 474.165L1655.42 482.672Z" fill="#798FFE"/>
<path d="M1635.64 471.251L1622.16 479.082L1607.43 470.574L1620.9 462.744L1635.64 471.251Z" fill="#798FFE"/>
<path d="M1574.49 475.299L1560.99 483.144L1546.26 474.637L1559.76 466.792L1574.49 475.299Z" fill="#798FFE"/>
<path d="M1594.3 486.734L1580.8 494.579L1566.07 486.071L1579.57 478.226L1594.3 486.734Z" fill="#798FFE"/>
<path d="M1598.28 438.559L1592.18 442.106L1577.44 433.599L1583.54 430.051L1598.28 438.559Z" fill="#798FFE"/>
<path d="M1618.06 449.979L1611.96 453.526L1597.22 445.018L1603.33 441.471L1618.06 449.979Z" fill="#798FFE"/>
<path d="M1596.05 448.391L1582.57 456.222L1567.84 447.714L1581.31 439.884L1596.05 448.391Z" fill="#798FFE"/>
<path d="M1571.71 453.998L1558.21 461.843L1543.47 453.336L1556.97 445.49L1571.71 453.998Z" fill="#798FFE"/>
<path d="M1615.83 459.811L1602.35 467.642L1587.62 459.134L1601.09 451.304L1615.83 459.811Z" fill="#798FFE"/>
<path d="M1554.71 463.879L1541.21 471.724L1526.48 463.216L1539.98 455.371L1554.71 463.879Z" fill="#798FFE"/>
<path d="M1591.49 465.418L1577.99 473.263L1563.26 464.756L1576.76 456.911L1591.49 465.418Z" fill="#798FFE"/>
<path d="M1597.09 508.03L1583.62 515.86L1489.7 461.636L1503.17 453.805L1597.09 508.03Z" fill="#798FFE"/>
<path d="M1637.87 461.419L1631.76 464.966L1617.03 456.458L1623.13 452.911L1637.87 461.419Z" fill="#798FFE"/>
<path d="M1677.46 484.28L1671.36 487.827L1656.59 479.305L1662.7 475.758L1677.46 484.28Z" fill="#798FFE"/>
<path d="M1717.03 507.12L1710.92 510.667L1696.19 502.16L1702.29 498.612L1717.03 507.12Z" fill="#798FFE"/>
<path d="M1611.3 476.858L1597.8 484.703L1583.06 476.195L1596.56 468.35L1611.3 476.858Z" fill="#798FFE"/>
<path d="M1631.08 488.277L1617.58 496.122L1602.85 487.615L1616.35 479.77L1631.08 488.277Z" fill="#798FFE"/>
<path d="M1650.89 499.72L1637.39 507.566L1622.63 499.044L1636.13 491.198L1650.89 499.72Z" fill="#798FFE"/>
<path d="M1675.2 494.096L1661.73 501.927L1647.02 493.434L1660.49 485.604L1675.2 494.096Z" fill="#798FFE"/>
<path d="M1670.67 511.137L1657.17 518.983L1642.44 510.475L1655.94 502.63L1670.67 511.137Z" fill="#798FFE"/>
<path d="M1656.47 542.312L1642.97 550.157L1628.23 541.65L1641.73 533.804L1656.47 542.312Z" fill="#798FFE"/>
<path d="M1673.46 532.44L1659.96 540.285L1645.23 531.777L1658.73 523.932L1673.46 532.44Z" fill="#798FFE"/>
<path d="M1710.27 533.996L1696.77 541.841L1662.22 521.897L1675.72 514.052L1710.27 533.996Z" fill="#798FFE"/>
<path d="M1736.84 518.553L1730.73 522.1L1716 513.593L1722.1 510.045L1736.84 518.553Z" fill="#798FFE"/>
<path d="M1727.23 524.135L1713.76 531.966L1686.58 516.275L1700.06 508.445L1727.23 524.135Z" fill="#798FFE"/>
<path d="M1695.01 505.532L1681.54 513.363L1666.8 504.855L1680.28 497.025L1695.01 505.532Z" fill="#798FFE"/>
<path d="M1697.24 495.698L1691.14 499.246L1676.4 490.738L1682.51 487.191L1697.24 495.698Z" fill="#798FFE"/>
<path d="M1766.89 566.691L1753.39 574.536L1738.65 566.029L1752.15 558.184L1766.89 566.691Z" fill="#798FFE"/>
<path d="M1806.48 589.546L1792.98 597.391L1778.24 588.883L1791.74 581.038L1806.48 589.546Z" fill="#798FFE"/>
<path d="M1713.09 575.005L1699.59 582.85L1684.85 574.342L1698.35 566.497L1713.09 575.005Z" fill="#798FFE"/>
<path d="M1773.65 539.812L1767.54 543.359L1752.81 534.852L1758.91 531.304L1773.65 539.812Z" fill="#798FFE"/>
<path d="M1764.05 545.391L1750.57 553.221L1735.84 544.714L1749.31 536.883L1764.05 545.391Z" fill="#798FFE"/>
<path d="M1793.46 551.246L1787.35 554.793L1772.62 546.286L1778.72 542.738L1793.46 551.246Z" fill="#798FFE"/>
<path d="M1747.08 555.251L1733.58 563.096L1718.84 554.588L1732.34 546.743L1747.08 555.251Z" fill="#798FFE"/>
<path d="M1783.86 556.825L1770.38 564.655L1755.65 556.148L1769.12 548.317L1783.86 556.825Z" fill="#798FFE"/>
<path d="M1730.08 565.132L1716.58 572.977L1701.85 564.469L1715.35 556.624L1730.08 565.132Z" fill="#798FFE"/>
<path d="M1803.64 568.251L1790.17 576.082L1775.43 567.574L1788.91 559.744L1803.64 568.251Z" fill="#798FFE"/>
<path d="M1749.89 576.566L1736.39 584.411L1721.66 575.903L1735.16 568.058L1749.89 576.566Z" fill="#798FFE"/>
<path d="M1786.67 578.111L1773.17 585.956L1758.44 577.449L1771.94 569.604L1786.67 578.111Z" fill="#798FFE"/>
<path d="M1769.67 587.985L1756.17 595.83L1741.44 587.323L1754.94 579.478L1769.67 587.985Z" fill="#798FFE"/>
<path d="M1534.9 452.438L1521.4 460.283L1506.67 451.776L1520.17 443.931L1534.9 452.438Z" fill="#798FFE"/>
<path d="M1616.9 519.475L1603.4 527.32L1588.64 518.798L1602.14 510.953L1616.9 519.475Z" fill="#798FFE"/>
<path d="M1633.9 509.593L1620.4 517.438L1605.64 508.916L1619.13 501.071L1633.9 509.593Z" fill="#798FFE"/>
<path d="M1636.68 530.893L1623.18 538.739L1608.45 530.231L1621.95 522.386L1636.68 530.893Z" fill="#798FFE"/>
<path d="M1653.68 521.02L1640.18 528.865L1625.44 520.358L1638.94 512.512L1653.68 521.02Z" fill="#798FFE"/>
<path d="M1614.09 498.159L1600.59 506.005L1585.85 497.497L1599.35 489.652L1614.09 498.159Z" fill="#798FFE"/>
<path d="M1676.28 553.754L1662.78 561.599L1648.04 553.091L1661.54 545.246L1676.28 553.754Z" fill="#798FFE"/>
<path d="M1823.45 579.684L1809.98 587.515L1795.24 579.007L1808.71 571.177L1823.45 579.684Z" fill="#798FFE"/>
<path d="M1833.05 574.106L1826.94 577.653L1812.21 569.146L1818.31 565.599L1833.05 574.106Z" fill="#798FFE"/>
<path d="M1813.24 562.671L1807.14 566.218L1792.4 557.711L1798.51 554.164L1813.24 562.671Z" fill="#798FFE"/>
<path d="M1732.9 586.44L1719.4 594.285L1704.66 585.778L1718.16 577.933L1732.9 586.44Z" fill="#798FFE"/>
<path d="M1789.48 599.425L1758.99 617.146L1744.25 608.639L1774.75 590.917L1789.48 599.425Z" fill="#798FFE"/>
<path d="M1752.68 597.865L1739.18 605.71L1724.44 597.203L1737.94 589.357L1752.68 597.865Z" fill="#798FFE"/>
<path d="M1863.2 313.725C1867.73 316.343 1871.4 322.691 1871.38 327.903L1870.8 556.904C1870.79 562.085 1867.1 564.218 1862.56 561.599L1541.76 376.4C1537.22 373.781 1533.56 367.402 1533.57 362.221L1534.15 133.221C1534.17 128.009 1537.86 125.907 1542.39 128.526L1863.2 313.725Z" fill="#1B2A4F"/>
<path d="M1880 322.911L1879.41 551.903C1879.41 554.467 1878.49 556.316 1877.02 557.157L1868.41 562.161C1869.88 561.32 1870.81 559.471 1870.81 556.906L1871.4 327.915C1871.4 322.702 1867.74 316.355 1863.2 313.706L1542.39 128.528C1540.12 127.225 1538.06 127.099 1536.55 127.94L1545.15 122.936C1546.63 122.095 1548.73 122.221 1551 123.524L1871.8 308.745C1876.34 311.351 1880 317.699 1880 322.911Z" fill="#384E85"/>
<path d="M1859.81 325.112L1859.25 546.341L1545.15 365.015L1545.71 143.787L1859.81 325.112Z" fill="#D9DDF6"/>
<path d="M1823.08 259.079L1822.57 433.538C1822.56 436.402 1821.55 438.415 1819.92 439.36L1831.17 432.825C1832.8 431.88 1833.81 429.866 1833.82 427.003L1834.33 252.543L1823.08 259.079Z" fill="#4466FB"/>
<path d="M1823.09 259.081L1822.57 433.54C1822.55 439.3 1818.49 441.618 1813.5 438.736L1579.56 303.673C1574.55 300.78 1570.51 293.78 1570.52 288.021L1571.04 113.562L1823.09 259.081Z" fill="#6BB5FB"/>
<path d="M1580.85 130.623L1580.38 292.751L1812.72 426.892L1813.2 264.77L1580.85 130.623Z" fill="white"/>
<path d="M1834.44 224.728L1834.37 252.558L1823.1 259.048L1823.17 231.289C1823.17 225.512 1819.1 218.523 1814.11 215.671L1580.19 80.5925C1577.69 79.166 1575.41 79.0233 1573.77 79.9504L1584.96 73.3891C1586.68 72.4619 1588.96 72.6043 1591.45 74.0308L1825.38 209.109C1830.37 212.033 1834.44 219.022 1834.44 224.728Z" fill="#384E85"/>
<path d="M1814.14 215.658C1819.14 218.54 1823.18 225.54 1823.16 231.275L1823.09 259.081L1571.04 113.561L1571.11 85.7557C1571.13 80.0199 1575.2 77.7018 1580.21 80.5956L1814.14 215.658Z" fill="#2E4277"/>
<path d="M1805.97 220.031C1802.54 218.047 1799.74 219.641 1799.73 223.589C1799.72 227.536 1802.5 232.329 1805.93 234.312C1809.35 236.285 1812.14 234.712 1812.16 230.765C1812.17 226.817 1809.39 222.004 1805.97 220.031Z" fill="#B7C5FD"/>
<path d="M1766.08 197.005C1762.64 195.022 1759.84 196.616 1759.83 200.563C1759.82 204.511 1762.6 209.304 1766.04 211.287C1769.45 213.26 1772.25 211.687 1772.26 207.739C1772.27 203.791 1769.49 198.978 1766.08 197.005Z" fill="#B7C5FD"/>
<path d="M1786.02 208.513C1782.59 206.53 1779.79 208.124 1779.78 212.071C1779.77 216.019 1782.55 220.811 1785.98 222.795C1789.42 224.778 1792.2 223.195 1792.21 219.247C1792.22 215.299 1789.46 210.497 1786.02 208.513Z" fill="#B7C5FD"/>
<path d="M1623.17 217.584L1632.66 234.023C1621.39 237.548 1613.04 246.888 1609.37 261.123L1607.43 260.003C1607.92 240.982 1613.76 226.606 1623.17 217.584Z" fill="#D9DDF6"/>
<path d="M1684.88 216.792L1684.78 249.996C1680.72 246.724 1676.55 243.808 1672.26 241.334C1657.36 232.728 1643.61 230.606 1632.67 234.027L1623.17 217.587C1637.3 204.034 1659.61 202.707 1684.88 216.792Z" fill="#B7C5FD"/>
<path d="M1746.9 285.731C1757.55 306.93 1764.09 329.674 1764.51 350.696L1734.84 333.568C1732.6 322.115 1728.56 310.425 1723.16 299.3L1746.9 285.731Z" fill="#9AADFD"/>
<path d="M1686.27 217.513C1710.77 231.659 1732.56 257.224 1746.9 285.734L1723.16 299.302C1713.79 280.107 1700.3 262.457 1684.78 249.998L1684.88 216.794C1685.32 217.048 1685.79 217.238 1686.27 217.513Z" fill="#AABAFD"/>
<path d="M1735.5 268.094L1679.44 305.5C1680.99 310.876 1680.15 315.694 1676.98 317.502C1674.86 318.712 1672.08 318.33 1669.31 316.728C1666.52 315.121 1663.74 312.286 1661.61 308.598C1657.39 301.283 1657.41 293.363 1661.66 290.941C1663.78 289.732 1666.57 290.119 1669.34 291.72C1670.68 292.494 1672.02 293.552 1673.28 294.852L1735.5 268.094Z" fill="#535D88"/>
<path d="M1475.11 146.722L1475.03 378.972C1475.02 382.335 1472.81 385.691 1468.4 388.253L1369.28 445.857C1360.4 451.018 1345.94 451.022 1337 445.857L1216.74 376.423C1212.24 373.824 1209.99 370.417 1210 367.009L1210.08 134.78C1210.08 138.175 1212.33 141.579 1216.82 144.169L1337.08 213.607C1346.03 218.768 1360.48 218.768 1369.36 213.603L1468.48 156.004C1472.89 153.437 1475.11 150.081 1475.11 146.722Z" fill="#4466FB"/>
<path d="M1468.38 137.307C1477.32 142.47 1477.37 150.839 1468.48 156.002L1369.36 213.604C1360.48 218.767 1346.03 218.768 1337.08 213.606L1216.82 144.171C1207.88 139.008 1207.83 130.637 1216.72 125.474L1315.84 67.8724C1324.72 62.7092 1339.17 62.7092 1348.11 67.8723L1468.38 137.307Z" fill="#6BB5FB"/>
<path d="M1429.61 142.521C1433.57 144.805 1433.58 148.506 1429.65 150.79L1360.23 191.132C1356.3 193.416 1349.92 193.418 1345.96 191.134L1255.59 138.958C1251.63 136.674 1251.61 132.972 1255.54 130.688L1324.96 90.3457C1328.89 88.0618 1335.28 88.0618 1339.24 90.3457L1429.61 142.521Z" fill="#4466FB"/>
<path d="M1328.27 225.831L1225.16 166.299C1223.02 165.066 1220.35 166.607 1220.35 169.073V190.148C1220.35 192.436 1221.58 194.551 1223.56 195.696L1326.67 255.225C1328.8 256.458 1331.47 254.917 1331.47 252.451V231.38C1331.47 229.091 1330.25 226.976 1328.27 225.831Z" fill="#3955D1"/>
<path d="M1370.31 231.125C1367.58 232.702 1365.37 236.526 1365.38 239.664L1365.48 265.162C1365.48 268.301 1367.71 269.567 1370.44 267.99C1373.17 266.413 1375.38 262.589 1375.37 259.451L1375.27 233.953C1375.26 230.814 1373.04 229.548 1370.31 231.125Z" fill="#1B2A4F"/>
<path d="M1373.04 258.227L1372.94 232.729C1372.94 231.794 1372.74 231.026 1372.39 230.449C1374.08 230.376 1375.26 231.667 1375.27 233.951L1375.37 259.449C1375.38 262.588 1373.17 266.412 1370.44 267.989C1368.52 269.096 1366.86 268.8 1366.03 267.44C1366.66 267.413 1367.37 267.196 1368.11 266.766C1370.84 265.19 1373.05 261.365 1373.04 258.227Z" fill="#6BB5FB"/>
<path d="M1455.92 181.379C1453.19 182.956 1450.98 186.78 1450.99 189.918L1451.09 215.416C1451.09 218.555 1453.32 219.821 1456.05 218.244C1458.78 216.667 1460.99 212.843 1460.98 209.704L1460.88 184.207C1460.87 181.068 1458.65 179.801 1455.92 181.379Z" fill="#1B2A4F"/>
<path d="M1458.65 208.48L1458.56 182.982C1458.55 182.047 1458.35 181.28 1458 180.703C1459.7 180.63 1460.87 181.921 1460.88 184.204L1460.98 209.702C1460.99 212.841 1458.78 216.665 1456.05 218.242C1454.13 219.349 1452.47 219.053 1451.64 217.694C1452.27 217.666 1452.98 217.449 1453.72 217.02C1456.46 215.443 1458.66 211.619 1458.65 208.48Z" fill="#6BB5FB"/>
<path d="M1434.51 193.816C1431.78 195.393 1429.57 199.217 1429.58 202.355L1429.68 227.853C1429.69 230.992 1431.91 232.258 1434.65 230.681C1437.38 229.104 1439.58 225.28 1439.58 222.141L1439.48 196.644C1439.47 193.505 1437.25 192.238 1434.51 193.816Z" fill="#1B2A4F"/>
<path d="M1437.25 220.917L1437.15 195.419C1437.15 194.484 1436.95 193.717 1436.6 193.14C1438.29 193.067 1439.47 194.358 1439.48 196.641L1439.58 222.139C1439.58 225.278 1437.38 229.102 1434.65 230.679C1432.73 231.786 1431.06 231.49 1430.24 230.131C1430.87 230.103 1431.58 229.886 1432.32 229.457C1435.05 227.88 1437.26 224.056 1437.25 220.917Z" fill="#6BB5FB"/>
<path d="M1413.11 206.251C1410.38 207.828 1408.17 211.652 1408.18 214.791L1408.28 240.289C1408.29 243.427 1410.51 244.694 1413.24 243.117C1415.97 241.54 1418.18 237.716 1418.17 234.577L1418.07 209.079C1418.06 205.941 1415.84 204.674 1413.11 206.251Z" fill="#1B2A4F"/>
<path d="M1415.85 233.353L1415.75 207.855C1415.75 206.92 1415.55 206.153 1415.19 205.576C1416.89 205.503 1418.07 206.794 1418.07 209.078L1418.17 234.575C1418.18 237.714 1415.97 241.538 1413.24 243.115C1411.32 244.222 1409.66 243.926 1408.83 242.567C1409.47 242.54 1410.17 242.323 1410.92 241.893C1413.65 240.316 1415.86 236.492 1415.85 233.353Z" fill="#6BB5FB"/>
<path d="M1391.71 218.688C1388.98 220.265 1386.77 224.089 1386.78 227.227L1386.88 252.725C1386.89 255.864 1389.11 257.13 1391.84 255.553C1394.57 253.976 1396.78 250.152 1396.77 247.013L1396.67 221.516C1396.66 218.377 1394.44 217.111 1391.71 218.688Z" fill="#1B2A4F"/>
<path d="M1394.45 245.79L1394.35 220.292C1394.35 219.357 1394.14 218.589 1393.79 218.012C1395.49 217.939 1396.67 219.23 1396.67 221.514L1396.77 247.012C1396.78 250.151 1394.57 253.975 1391.84 255.552C1389.92 256.659 1388.26 256.363 1387.43 255.003C1388.07 254.976 1388.77 254.759 1389.52 254.329C1392.25 252.752 1394.46 248.928 1394.45 245.79Z" fill="#6BB5FB"/>
<path d="M1328.27 280.944L1225.16 221.411C1223.02 220.178 1220.35 221.719 1220.35 224.185V245.26C1220.35 247.549 1221.58 249.664 1223.56 250.808L1326.67 310.338C1328.8 311.571 1331.47 310.03 1331.47 307.564V286.492C1331.47 284.203 1330.25 282.088 1328.27 280.944Z" fill="#3955D1"/>
<path d="M1370.31 286.238C1367.58 287.815 1365.37 291.64 1365.38 294.778L1365.48 320.276C1365.48 323.415 1367.71 324.681 1370.44 323.104C1373.17 321.527 1375.38 317.703 1375.37 314.564L1375.27 289.066C1375.26 285.928 1373.04 284.661 1370.31 286.238Z" fill="#1B2A4F"/>
<path d="M1373.04 313.341L1372.94 287.843C1372.94 286.907 1372.74 286.14 1372.39 285.563C1374.08 285.49 1375.26 286.781 1375.27 289.065L1375.37 314.563C1375.38 317.701 1373.17 321.526 1370.44 323.103C1368.52 324.21 1366.86 323.914 1366.03 322.554C1366.66 322.527 1367.37 322.31 1368.11 321.88C1370.84 320.303 1373.05 316.479 1373.04 313.341Z" fill="#6BB5FB"/>
<path d="M1455.92 236.491C1453.19 238.068 1450.98 241.892 1450.99 245.031L1451.09 270.528C1451.09 273.667 1453.32 274.934 1456.05 273.356C1458.78 271.779 1460.99 267.955 1460.98 264.817L1460.88 239.319C1460.87 236.18 1458.65 234.914 1455.92 236.491Z" fill="#1B2A4F"/>
<path d="M1458.65 263.593L1458.56 238.095C1458.55 237.16 1458.35 236.393 1458 235.815C1459.7 235.743 1460.87 237.034 1460.88 239.317L1460.98 264.815C1460.99 267.954 1458.78 271.778 1456.05 273.355C1454.13 274.462 1452.47 274.166 1451.64 272.807C1452.27 272.779 1452.98 272.562 1453.72 272.133C1456.46 270.556 1458.66 266.732 1458.65 263.593Z" fill="#6BB5FB"/>
<path d="M1434.51 248.928C1431.78 250.505 1429.57 254.329 1429.58 257.468L1429.68 282.965C1429.69 286.104 1431.91 287.37 1434.65 285.793C1437.38 284.216 1439.58 280.392 1439.58 277.254L1439.48 251.756C1439.47 248.617 1437.25 247.351 1434.51 248.928Z" fill="#1B2A4F"/>
<path d="M1437.25 276.03L1437.15 250.532C1437.15 249.597 1436.95 248.83 1436.6 248.252C1438.29 248.18 1439.47 249.471 1439.48 251.754L1439.58 277.252C1439.58 280.391 1437.38 284.215 1434.65 285.792C1432.73 286.899 1431.06 286.603 1430.24 285.243C1430.87 285.216 1431.58 284.999 1432.32 284.57C1435.05 282.993 1437.26 279.169 1437.25 276.03Z" fill="#6BB5FB"/>
<path d="M1413.11 261.364C1410.38 262.941 1408.17 266.765 1408.18 269.904L1408.28 295.402C1408.29 298.541 1410.51 299.807 1413.24 298.23C1415.97 296.653 1418.18 292.829 1418.17 289.69L1418.07 264.192C1418.06 261.054 1415.84 259.787 1413.11 261.364Z" fill="#1B2A4F"/>
<path d="M1415.85 288.466L1415.75 262.968C1415.75 262.033 1415.55 261.266 1415.19 260.689C1416.89 260.616 1418.07 261.907 1418.07 264.191L1418.17 289.689C1418.18 292.827 1415.97 296.651 1413.24 298.228C1411.32 299.335 1409.66 299.04 1408.83 297.68C1409.47 297.653 1410.17 297.436 1410.92 297.006C1413.65 295.429 1415.86 291.605 1415.85 288.466Z" fill="#6BB5FB"/>
<path d="M1391.71 273.801C1388.98 275.378 1386.77 279.202 1386.78 282.341L1386.88 307.838C1386.89 310.977 1389.11 312.243 1391.84 310.666C1394.57 309.089 1396.78 305.265 1396.77 302.127L1396.67 276.629C1396.66 273.49 1394.44 272.224 1391.71 273.801Z" fill="#1B2A4F"/>
<path d="M1394.45 300.903L1394.35 275.406C1394.35 274.47 1394.14 273.703 1393.79 273.126C1395.49 273.053 1396.67 274.344 1396.67 276.628L1396.77 302.126C1396.78 305.264 1394.57 309.089 1391.84 310.666C1389.92 311.773 1388.26 311.477 1387.43 310.117C1388.07 310.09 1388.77 309.873 1389.52 309.443C1392.25 307.866 1394.46 304.042 1394.45 300.903Z" fill="#6BB5FB"/>
<path d="M1328.27 336.058L1225.16 276.525C1223.02 275.292 1220.35 276.833 1220.35 279.299V300.374C1220.35 302.662 1221.58 304.777 1223.56 305.922L1326.67 365.451C1328.8 366.684 1331.47 365.143 1331.47 362.677V341.606C1331.47 339.317 1330.25 337.202 1328.27 336.058Z" fill="#3955D1"/>
<path d="M1370.31 341.352C1367.58 342.929 1365.37 346.753 1365.38 349.892L1365.48 375.39C1365.48 378.528 1367.71 379.795 1370.44 378.218C1373.17 376.641 1375.38 372.817 1375.37 369.678L1375.27 344.18C1375.26 341.042 1373.04 339.775 1370.31 341.352Z" fill="#1B2A4F"/>
<path d="M1373.04 368.453L1372.94 342.955C1372.94 342.02 1372.74 341.252 1372.39 340.675C1374.08 340.602 1375.26 341.894 1375.27 344.177L1375.37 369.675C1375.38 372.814 1373.17 376.638 1370.44 378.215C1368.52 379.322 1366.86 379.026 1366.03 377.666C1366.66 377.639 1367.37 377.422 1368.11 376.993C1370.84 375.416 1373.05 371.591 1373.04 368.453Z" fill="#6BB5FB"/>
<path d="M1455.92 291.605C1453.19 293.181 1450.98 297.006 1450.99 300.144L1451.09 325.642C1451.09 328.781 1453.32 330.047 1456.05 328.47C1458.78 326.893 1460.99 323.069 1460.98 319.93L1460.88 294.433C1460.87 291.294 1458.65 290.028 1455.92 291.605Z" fill="#1B2A4F"/>
<path d="M1458.65 318.706L1458.56 293.208C1458.55 292.273 1458.35 291.505 1458 290.928C1459.7 290.855 1460.87 292.146 1460.88 294.43L1460.98 319.928C1460.99 323.066 1458.78 326.891 1456.05 328.468C1454.13 329.575 1452.47 329.279 1451.64 327.919C1452.27 327.892 1452.98 327.675 1453.72 327.245C1456.46 325.668 1458.66 321.844 1458.65 318.706Z" fill="#6BB5FB"/>
<path d="M1434.51 304.042C1431.78 305.619 1429.57 309.443 1429.58 312.582L1429.68 338.08C1429.69 341.218 1431.91 342.485 1434.65 340.908C1437.38 339.331 1439.58 335.507 1439.58 332.368L1439.48 306.87C1439.47 303.731 1437.25 302.465 1434.51 304.042Z" fill="#1B2A4F"/>
<path d="M1437.25 331.143L1437.15 305.645C1437.15 304.71 1436.95 303.942 1436.6 303.365C1438.29 303.292 1439.47 304.583 1439.48 306.867L1439.58 332.365C1439.58 335.504 1437.38 339.328 1434.65 340.905C1432.73 342.012 1431.06 341.716 1430.24 340.356C1430.87 340.329 1431.58 340.112 1432.32 339.682C1435.05 338.106 1437.26 334.281 1437.25 331.143Z" fill="#6BB5FB"/>
<path d="M1413.11 316.478C1410.38 318.055 1408.17 321.879 1408.18 325.018L1408.28 350.516C1408.29 353.654 1410.51 354.921 1413.24 353.344C1415.97 351.767 1418.18 347.943 1418.17 344.804L1418.07 319.306C1418.06 316.168 1415.84 314.901 1413.11 316.478Z" fill="#1B2A4F"/>
<path d="M1415.85 343.579L1415.75 318.081C1415.75 317.146 1415.55 316.379 1415.19 315.802C1416.89 315.729 1418.07 317.02 1418.07 319.304L1418.17 344.802C1418.18 347.94 1415.97 351.764 1413.24 353.341C1411.32 354.448 1409.66 354.153 1408.83 352.793C1409.47 352.766 1410.17 352.549 1410.92 352.119C1413.65 350.542 1415.86 346.718 1415.85 343.579Z" fill="#6BB5FB"/>
<path d="M1391.71 328.914C1388.98 330.491 1386.77 334.315 1386.78 337.453L1386.88 362.951C1386.89 366.09 1389.11 367.356 1391.84 365.779C1394.57 364.202 1396.78 360.378 1396.77 357.24L1396.67 331.742C1396.66 328.603 1394.44 327.337 1391.71 328.914Z" fill="#1B2A4F"/>
<path d="M1394.45 356.016L1394.35 330.518C1394.35 329.583 1394.14 328.815 1393.79 328.238C1395.49 328.165 1396.67 329.457 1396.67 331.74L1396.77 357.238C1396.78 360.377 1394.57 364.201 1391.84 365.778C1389.92 366.885 1388.26 366.589 1387.43 365.229C1388.07 365.202 1388.77 364.985 1389.52 364.556C1392.25 362.978 1394.46 359.154 1394.45 356.016Z" fill="#6BB5FB"/>
<path d="M1328.27 391.171L1225.16 331.638C1223.02 330.405 1220.35 331.946 1220.35 334.412V355.487C1220.35 357.776 1221.58 359.891 1223.56 361.035L1326.67 420.565C1328.8 421.798 1331.47 420.257 1331.47 417.791V396.719C1331.47 394.43 1330.25 392.315 1328.27 391.171Z" fill="#3955D1"/>
<path d="M1370.31 396.463C1367.58 398.04 1365.37 401.865 1365.38 405.003L1365.48 430.501C1365.48 433.64 1367.71 434.906 1370.44 433.329C1373.17 431.752 1375.38 427.928 1375.37 424.789L1375.27 399.291C1375.26 396.153 1373.04 394.887 1370.31 396.463Z" fill="#1B2A4F"/>
<path d="M1373.04 423.566L1372.94 398.068C1372.94 397.133 1372.74 396.366 1372.39 395.789C1374.08 395.716 1375.26 397.007 1375.27 399.291L1375.37 424.788C1375.38 427.927 1373.17 431.751 1370.44 433.328C1368.52 434.435 1366.86 434.139 1366.03 432.78C1366.66 432.752 1367.37 432.535 1368.11 432.106C1370.84 430.529 1373.05 426.705 1373.04 423.566Z" fill="#6BB5FB"/>
<path d="M1455.92 346.716C1453.19 348.293 1450.98 352.118 1450.99 355.256L1451.09 380.754C1451.09 383.893 1453.32 385.159 1456.05 383.582C1458.78 382.005 1460.99 378.181 1460.98 375.042L1460.88 349.544C1460.87 346.406 1458.65 345.139 1455.92 346.716Z" fill="#1B2A4F"/>
<path d="M1458.65 373.819L1458.56 348.321C1458.55 347.385 1458.35 346.618 1458 346.041C1459.7 345.968 1460.87 347.259 1460.88 349.543L1460.98 375.041C1460.99 378.179 1458.78 382.004 1456.05 383.581C1454.13 384.688 1452.47 384.392 1451.64 383.032C1452.27 383.005 1452.98 382.788 1453.72 382.358C1456.46 380.781 1458.66 376.957 1458.65 373.819Z" fill="#6BB5FB"/>
<path d="M1434.51 359.153C1431.78 360.73 1429.57 364.555 1429.58 367.693L1429.68 393.191C1429.69 396.33 1431.91 397.596 1434.65 396.019C1437.38 394.442 1439.58 390.618 1439.58 387.479L1439.48 361.981C1439.47 358.843 1437.25 357.576 1434.51 359.153Z" fill="#1B2A4F"/>
<path d="M1437.25 386.256L1437.15 360.758C1437.15 359.822 1436.95 359.055 1436.6 358.478C1438.29 358.405 1439.47 359.696 1439.48 361.98L1439.58 387.478C1439.58 390.616 1437.38 394.441 1434.65 396.018C1432.73 397.125 1431.06 396.829 1430.24 395.469C1430.87 395.442 1431.58 395.225 1432.32 394.795C1435.05 393.218 1437.26 389.394 1437.25 386.256Z" fill="#6BB5FB"/>
<path d="M1413.11 371.59C1410.38 373.167 1408.17 376.992 1408.18 380.13L1408.28 405.628C1408.29 408.767 1410.51 410.033 1413.24 408.456C1415.97 406.879 1418.18 403.055 1418.17 399.916L1418.07 374.418C1418.06 371.28 1415.84 370.013 1413.11 371.59Z" fill="#1B2A4F"/>
<path d="M1415.85 398.693L1415.75 373.195C1415.75 372.259 1415.55 371.492 1415.19 370.915C1416.89 370.842 1418.07 372.133 1418.07 374.417L1418.17 399.915C1418.18 403.053 1415.97 406.878 1413.24 408.454C1411.32 409.562 1409.66 409.266 1408.83 407.906C1409.47 407.879 1410.17 407.662 1410.92 407.232C1413.65 405.655 1415.86 401.831 1415.85 398.693Z" fill="#6BB5FB"/>
<path d="M1391.71 384.026C1388.98 385.603 1386.77 389.428 1386.78 392.566L1386.88 418.064C1386.89 421.203 1389.11 422.469 1391.84 420.892C1394.57 419.315 1396.78 415.491 1396.77 412.352L1396.67 386.855C1396.66 383.716 1394.44 382.449 1391.71 384.026Z" fill="#1B2A4F"/>
<path d="M1394.45 411.129L1394.35 385.631C1394.35 384.696 1394.14 383.929 1393.79 383.352C1395.49 383.279 1396.67 384.57 1396.67 386.853L1396.77 412.351C1396.78 415.49 1394.57 419.314 1391.84 420.891C1389.92 421.998 1388.26 421.702 1387.43 420.343C1388.07 420.315 1388.77 420.098 1389.52 419.669C1392.25 418.092 1394.46 414.268 1394.45 411.129Z" fill="#6BB5FB"/>
</svg>
