<?xml version="1.0" encoding="iso-8859-1"?>
<!-- Generator: Adobe Illustrator 19.0.0, SVG Export Plug-In . SVG Version: 6.00 Build 0)  -->
<svg version="1.1" id="Capa_1" xmlns="http://www.w3.org/2000/svg" xmlns:xlink="http://www.w3.org/1999/xlink" x="0px" y="0px"
	 viewBox="0 0 468.293 468.293" style="enable-background:new 0 0 468.293 468.293;" xml:space="preserve">
<path style="fill:#1C75A1;" d="M452.699,99.998c0-9.656-7.827-17.484-17.484-17.484H33.077c-9.656,0-17.484,7.828-17.484,17.484
	V338.95H168.72v23.414h128.847V338.95h155.133V99.998z"/>
<rect x="33.093" y="100.002" style="fill:#EBF0F3;" width="402.107" height="221.465"/>
<path style="fill:#27A2DB;" d="M289.123,338.95v8.329c0,3.219-2.609,5.828-5.828,5.828h-98.296c-3.219,0-5.828-2.609-5.828-5.828
	v-8.329H0c0,25.863,20.967,46.829,46.83,46.829h374.634c25.863,0,46.829-20.966,46.829-46.829H289.123z"/>
<rect x="59.167" y="137.903" style="fill:#44C4A1;" width="162.341" height="112.359"/>
<g>
	<rect x="284.222" y="137.903" style="fill:#D5D6DB;" width="124.878" height="12.488"/>
	<rect x="284.222" y="237.774" style="fill:#D5D6DB;" width="124.878" height="12.488"/>
	<rect x="284.222" y="271.066" style="fill:#D5D6DB;" width="124.878" height="12.488"/>
	<rect x="59.167" y="271.066" style="fill:#D5D6DB;" width="162.341" height="12.488"/>
	<rect x="284.222" y="171.195" style="fill:#D5D6DB;" width="124.878" height="12.488"/>
	<rect x="284.222" y="204.488" style="fill:#D5D6DB;" width="124.878" height="12.488"/>
</g>
<g>
</g>
<g>
</g>
<g>
</g>
<g>
</g>
<g>
</g>
<g>
</g>
<g>
</g>
<g>
</g>
<g>
</g>
<g>
</g>
<g>
</g>
<g>
</g>
<g>
</g>
<g>
</g>
<g>
</g>
</svg>
