<?xml version="1.0" encoding="iso-8859-1"?>
<!-- Generator: Adobe Illustrator 19.0.0, SVG Export Plug-In . SVG Version: 6.00 Build 0)  -->
<svg version="1.1" id="Capa_1" xmlns="http://www.w3.org/2000/svg" xmlns:xlink="http://www.w3.org/1999/xlink" x="0px" y="0px"
	 viewBox="0 0 468.293 468.293" style="enable-background:new 0 0 468.293 468.293;" xml:space="preserve">
<g>
	<rect x="225.542" y="82.488" style="fill:#3A556A;" width="17.214" height="371.45"/>
	<path style="fill:#3A556A;" d="M103.263,445.342L103.263,445.342c0-4.753,3.853-8.606,8.606-8.606l244.555,0
		c4.753,0,8.606,3.853,8.606,8.606l0,0c0,4.753-3.853,8.606-8.606,8.606l-244.555,0
		C107.116,453.949,103.263,450.096,103.263,445.342z"/>
</g>
<g>
	<path style="fill:#F6C358;" d="M430.57,114.75H37.723c-10.345,0-18.732-8.386-18.732-18.732V18.732C18.991,8.386,27.377,0,37.723,0
		H430.57c10.345,0,18.732,8.386,18.732,18.732v77.286C449.302,106.363,440.915,114.75,430.57,114.75z"/>
	<path style="fill:#F6C358;" d="M430.57,246.712H37.723c-10.345,0-18.732-8.386-18.732-18.732v-77.286
		c0-10.345,8.386-18.732,18.732-18.732H430.57c10.345,0,18.732,8.386,18.732,18.732v77.286
		C449.302,238.325,440.915,246.712,430.57,246.712z"/>
	<path style="fill:#F6C358;" d="M430.57,378.674H37.723c-10.345,0-18.732-8.386-18.732-18.732v-77.286
		c0-10.345,8.386-18.732,18.732-18.732H430.57c10.345,0,18.732,8.386,18.732,18.732v77.286
		C449.302,370.287,440.915,378.674,430.57,378.674z"/>
</g>
<g>
	<circle style="fill:#3A556A;" cx="361.647" cy="445.34" r="22.953"/>
	<circle style="fill:#3A556A;" cx="106.615" cy="445.34" r="22.953"/>
</g>
<path style="fill:#E56353;" d="M250.852,468.293H217.44c-3.448,0-6.244-2.796-6.244-6.244v-33.412c0-3.448,2.796-6.244,6.244-6.244
	h33.412c3.448,0,6.244,2.796,6.244,6.244v33.412C257.096,465.497,254.301,468.293,250.852,468.293z"/>
<circle style="fill:#27A2DB;" cx="77.861" cy="57.375" r="17.214"/>
<circle style="fill:#E56353;" cx="129.499" cy="57.375" r="17.214"/>
<circle style="fill:#44C4A1;" cx="181.136" cy="57.375" r="17.214"/>
<path style="fill:#64798A;" d="M399.035,67.714H278.548c-4.753,0-8.606-3.853-8.606-8.606v0c0-4.753,3.853-8.606,8.606-8.606
	h120.487c4.753,0,8.606,3.853,8.606,8.606v0C407.641,63.861,403.788,67.714,399.035,67.714z"/>
<circle style="fill:#27A2DB;" cx="77.861" cy="189.334" r="17.214"/>
<circle style="fill:#E56353;" cx="129.499" cy="189.334" r="17.214"/>
<circle style="fill:#44C4A1;" cx="181.136" cy="189.334" r="17.214"/>
<path style="fill:#64798A;" d="M399.035,199.676H278.548c-4.753,0-8.606-3.853-8.606-8.606l0,0c0-4.753,3.853-8.606,8.606-8.606
	h120.487c4.753,0,8.606,3.853,8.606,8.606l0,0C407.641,195.823,403.788,199.676,399.035,199.676z"/>
<circle style="fill:#27A2DB;" cx="77.861" cy="321.299" r="17.214"/>
<circle style="fill:#E56353;" cx="129.499" cy="321.299" r="17.214"/>
<circle style="fill:#44C4A1;" cx="181.136" cy="321.299" r="17.214"/>
<path style="fill:#64798A;" d="M399.035,331.638H278.548c-4.753,0-8.606-3.853-8.606-8.606v0c0-4.753,3.853-8.606,8.606-8.606
	h120.487c4.753,0,8.606,3.853,8.606,8.606v0C407.641,327.785,403.788,331.638,399.035,331.638z"/>
<g>
</g>
<g>
</g>
<g>
</g>
<g>
</g>
<g>
</g>
<g>
</g>
<g>
</g>
<g>
</g>
<g>
</g>
<g>
</g>
<g>
</g>
<g>
</g>
<g>
</g>
<g>
</g>
<g>
</g>
</svg>
