<?xml version="1.0" encoding="iso-8859-1"?>
<!-- Generator: Adobe Illustrator 19.0.0, SVG Export Plug-In . SVG Version: 6.00 Build 0)  -->
<svg version="1.1" id="Capa_1" xmlns="http://www.w3.org/2000/svg" xmlns:xlink="http://www.w3.org/1999/xlink" x="0px" y="0px"
	 viewBox="0 0 512 512" style="enable-background:new 0 0 512 512;" xml:space="preserve">
<path style="fill:#303C42;" d="M469.333,21.333H42.667C19.135,21.333,0,40.469,0,64v298.667c0,23.531,19.135,42.667,42.667,42.667
	h149.362c-0.46,17.052-3.728,44.306-15.893,57.104c-4.469,4.708-9.604,6.896-16.135,6.896c-5.896,0-10.667,4.771-10.667,10.667
	c0,5.896,4.771,10.667,10.667,10.667h192c5.896,0,10.667-4.771,10.667-10.667c0-5.896-4.771-10.667-10.667-10.667
	c-6.531,0-11.667-2.188-16.135-6.896c-12.165-12.798-15.434-40.052-15.893-57.104h149.362c23.531,0,42.667-19.135,42.667-42.667V64
	C512,40.469,492.865,21.333,469.333,21.333z"/>
<g>
	<path id="SVGCleanerId_0" style="fill:#5C6671;" d="M42.667,42.667h426.667c11.76,0,21.333,9.573,21.333,21.333v234.667H21.333V64
		C21.333,52.24,30.906,42.667,42.667,42.667z"/>
</g>
<g>
	
		<linearGradient id="SVGCleanerId_0_3_" gradientUnits="userSpaceOnUse" x1="-45.8074" y1="643.4824" x2="-23.4397" y2="633.049" gradientTransform="matrix(21.3333 0 0 -21.3333 996.3334 13791.667)">
		<stop  offset="0" style="stop-color:#FFFFFF;stop-opacity:0.2"/>
		<stop  offset="1" style="stop-color:#FFFFFF;stop-opacity:0"/>
	</linearGradient>
	<path id="SVGCleanerId_0_1_" style="fill:url(#SVGCleanerId_0_3_);" d="M42.667,42.667h426.667c11.76,0,21.333,9.573,21.333,21.333
		v234.667H21.333V64C21.333,52.24,30.906,42.667,42.667,42.667z"/>
</g>
<g>
	
		<linearGradient id="SVGCleanerId_0_4_" gradientUnits="userSpaceOnUse" x1="-43.0562" y1="646.5446" x2="-26.3501" y2="629.8376" gradientTransform="matrix(21.3333 0 0 -21.3333 996.3334 13791.667)">
		<stop  offset="0" style="stop-color:#FFFFFF;stop-opacity:0.2"/>
		<stop  offset="1" style="stop-color:#FFFFFF;stop-opacity:0"/>
	</linearGradient>
	<path id="SVGCleanerId_0_2_" style="fill:url(#SVGCleanerId_0_4_);" d="M42.667,42.667h426.667c11.76,0,21.333,9.573,21.333,21.333
		v234.667H21.333V64C21.333,52.24,30.906,42.667,42.667,42.667z"/>
</g>
<g>
	<path style="fill:#F2F2F2;" d="M469.333,384H42.667c-11.76,0-21.333-9.573-21.333-21.333V320h469.333v42.667
		C490.667,374.427,481.094,384,469.333,384z"/>
	<path style="fill:#F2F2F2;" d="M314.271,469.333H197.729c12.882-19.749,15.374-48.188,15.695-64h85.151
		C298.897,421.146,301.389,449.585,314.271,469.333z"/>
</g>
<circle style="fill:#303C42;" cx="256" cy="352" r="21.333"/>
<linearGradient id="SVGID_1_" gradientUnits="userSpaceOnUse" x1="-35.701" y1="628.4822" x2="-31.8374" y2="624.6187" gradientTransform="matrix(21.3333 0 0 -21.3333 996.3334 13791.667)">
	<stop  offset="0" style="stop-color:#000000;stop-opacity:0.1"/>
	<stop  offset="1" style="stop-color:#000000;stop-opacity:0"/>
</linearGradient>
<path style="fill:url(#SVGID_1_);" d="M314.271,469.333c-12.882-19.749-15.374-48.188-15.695-64h-85.151l64,64H314.271z"/>
<g>
	<path style="fill:#303C42;" d="M394.667,234.667H416c17.646,0,32-14.354,32-32v-64c0-17.646-14.354-32-32-32h-21.333
		c-17.646,0-32,14.354-32,32v64C362.667,220.313,377.021,234.667,394.667,234.667z M416,213.333h-21.333
		c-4.576,0-8.411-2.931-9.922-6.995l41.922-41.922v38.25C426.667,208.552,421.875,213.333,416,213.333z M394.667,128H416
		c4.576,0,8.414,2.931,9.923,6.993L384,176.917v-38.25C384,132.781,388.792,128,394.667,128z"/>
	<path style="fill:#303C42;" d="M96,234.667h21.333c17.646,0,32-14.354,32-32v-64c0-17.646-14.354-32-32-32H96
		c-17.646,0-32,14.354-32,32v64C64,220.313,78.354,234.667,96,234.667z M117.333,213.333H96c-4.576,0-8.411-2.931-9.922-6.995
		L128,164.417v38.25C128,208.552,123.208,213.333,117.333,213.333z M96,128h21.333c4.576,0,8.414,2.931,9.923,6.993l-41.923,41.923
		v-38.25C85.333,132.781,90.125,128,96,128z"/>
	<path style="fill:#303C42;" d="M288,213.333c-5.896,0-10.667,4.771-10.667,10.667c0,5.896,4.771,10.667,10.667,10.667h42.667
		c5.896,0,10.667-4.771,10.667-10.667c0-5.896-4.771-10.667-10.667-10.667H320v-96c0-3.698-1.917-7.125-5.063-9.073
		c-3.146-1.958-7.083-2.135-10.375-0.469l-21.333,10.667c-5.271,2.635-7.396,9.042-4.771,14.313
		c2.646,5.281,9.021,7.385,14.313,4.771l5.896-2.948v78.74H288z"/>
	<path style="fill:#303C42;" d="M181.333,213.333c-5.896,0-10.667,4.771-10.667,10.667c0,5.896,4.771,10.667,10.667,10.667H224
		c5.896,0,10.667-4.771,10.667-10.667c0-5.896-4.771-10.667-10.667-10.667h-10.667v-96c0-3.698-1.917-7.125-5.063-9.073
		c-3.146-1.958-7.063-2.135-10.375-0.469l-21.333,10.667c-5.271,2.635-7.396,9.042-4.771,14.313
		c2.646,5.281,9.042,7.385,14.313,4.771l5.896-2.948v78.74H181.333z"/>
</g>
<linearGradient id="SVGID_2_" gradientUnits="userSpaceOnUse" x1="-47.6559" y1="641.8846" x2="-22.2407" y2="630.0325" gradientTransform="matrix(21.3333 0 0 -21.3333 996.3334 13791.667)">
	<stop  offset="0" style="stop-color:#FFFFFF;stop-opacity:0.2"/>
	<stop  offset="1" style="stop-color:#FFFFFF;stop-opacity:0"/>
</linearGradient>
<path style="fill:url(#SVGID_2_);" d="M469.333,21.333H42.667C19.135,21.333,0,40.469,0,64v298.667
	c0,23.531,19.135,42.667,42.667,42.667h149.362c-0.46,17.052-3.728,44.306-15.893,57.104c-4.469,4.708-9.604,6.896-16.135,6.896
	c-5.896,0-10.667,4.771-10.667,10.667c0,5.896,4.771,10.667,10.667,10.667h192c5.896,0,10.667-4.771,10.667-10.667
	c0-5.896-4.771-10.667-10.667-10.667c-6.531,0-11.667-2.188-16.135-6.896c-12.165-12.798-15.434-40.052-15.893-57.104h149.362
	c23.531,0,42.667-19.135,42.667-42.667V64C512,40.469,492.865,21.333,469.333,21.333z"/>
<g>
</g>
<g>
</g>
<g>
</g>
<g>
</g>
<g>
</g>
<g>
</g>
<g>
</g>
<g>
</g>
<g>
</g>
<g>
</g>
<g>
</g>
<g>
</g>
<g>
</g>
<g>
</g>
<g>
</g>
</svg>
