<svg height="512" viewBox="0 0 64 64" width="512" xmlns="http://www.w3.org/2000/svg"><g id="Cloud-Data-Connection-Smartphone-Intenet"><path d="m45 51v10h5 4 5v-10z" fill="#ff9811"/><path d="m61 5v8a2.006 2.006 0 0 1 -2 2h-6l-4 4v-4h-2a2.006 2.006 0 0 1 -2-2v-8a2.006 2.006 0 0 1 2-2h12a2.006 2.006 0 0 1 2 2z" fill="#00ccb3"/><path d="m58 45 3 6h-2-14-2l3-6z" fill="#ff5023"/><path d="m50 55h4v6h-4z" fill="#e6e7e8"/><path d="m42 29a5 5 0 0 1 0 10h-20a5 5 0 0 1 0-10h1.18a2.986 2.986 0 0 1 4.05-3.73 6.993 6.993 0 0 1 13.77 1.73 6.908 6.908 0 0 1 -.29 2z" fill="#e6e7e8"/><path d="m17 45v12a4 4 0 0 1 -4 4h-6a4 4 0 0 1 -4-4v-12a4 4 0 0 1 4-4h6a4.008 4.008 0 0 1 4 4z" fill="#5aaae7"/><path d="m15 7v10a2.006 2.006 0 0 1 -2 2h-8a2.006 2.006 0 0 1 -2-2v-12a2.006 2.006 0 0 1 2-2h6v4z" fill="#ffde55"/><path d="m12 3 3 4h-4v-4z" fill="#ebbf00"/><path d="m17 45v12a4 4 0 0 1 -4 4h-6a4 4 0 0 1 -2.26-.7l11.41-17.76a4.005 4.005 0 0 1 .85 2.46z" fill="#3d9ae2"/><path d="m15 7v10a2.006 2.006 0 0 1 -2 2h-7.43l7.72-12z" fill="#ffcd00"/><path d="m45 51h14v2h-14z" fill="#ee8700"/><path d="m8 44h4v2h-4z" fill="#3d9ae2"/><path d="m9 56h2v2h-2z" fill="#1e81ce"/><path d="m7 48h6v2h-6z" fill="#1e81ce"/><path d="m7 52h6v2h-6z" fill="#1e81ce"/><path d="m6 10h6v2h-6z" fill="#ebbf00"/><path d="m6 14h6v2h-6z" fill="#ebbf00"/><path d="m6 6h2v2h-2z" fill="#ebbf00"/><path d="m48 6h2v2h-2z" fill="#00b39d"/><path d="m52 6h6v2h-6z" fill="#00b39d"/><path d="m48 10h10v2h-10z" fill="#00b39d"/><path d="m31 34h2v2h-2z" fill="#1e81ce"/><path d="m29.878 32.878-1.414-1.414a5 5 0 0 1 7.071 0l-1.414 1.414a3.075 3.075 0 0 0 -4.243 0z" fill="#1e81ce"/><path d="m36.95 30.05a7 7 0 0 0 -9.9 0l-1.414-1.414a9 9 0 0 1 12.728 0z" fill="#1e81ce"/><g fill="#ffa733"><path d="m54 26h-8v-2h7v-5h2v6a1 1 0 0 1 -1 1z"/><path d="m55 42h-2v-7h-3v-2h4a1 1 0 0 1 1 1z"/><path d="m17 26h-8a1 1 0 0 1 -1-1v-3h2v2h7z"/><path d="m11 38h-2v-4a1 1 0 0 1 1-1h4v2h-3z"/></g></g></svg>