<?xml version="1.0" encoding="iso-8859-1"?>
<!-- Generator: Adobe Illustrator 19.0.0, SVG Export Plug-In . SVG Version: 6.00 Build 0)  -->
<svg version="1.1" id="Layer_1" xmlns="http://www.w3.org/2000/svg" xmlns:xlink="http://www.w3.org/1999/xlink" x="0px" y="0px"
	 viewBox="0 0 512 512" style="enable-background:new 0 0 512 512;" xml:space="preserve">
<circle style="fill:#FAD55C;" cx="256" cy="256" r="256"/>
<path style="fill:#E3C04D;" d="M511.4,238.8L402.3,129.5L101.1,303.2l28.1,20.2l-49.3,31.7L236,511.2c6.6,0.5,13.2,0.8,19.9,0.8
	c141.4,0,256-114.6,256-256C512,250.2,511.8,244.5,511.4,238.8z"/>
<path style="fill:#68606E;" d="M114.2,116H391c8.8,0,16.1,7.8,16.1,17.4V299c0,9.6-7.2,17.4-16.1,17.4H114.2
	c-8.8,0-16.1-7.8-16.1-17.4V133.4C98.1,123.9,105.3,116,114.2,116z"/>
<polygon style="fill:#F8F8F8;" points="113.2,130.9 392,130.9 392,299.4 113.2,299.4 "/>
<path style="fill:#FA7876;" d="M271.3,209.7v-16.6l-12.1-1.2c-0.8-3.1-2-6-3.6-8.7l7.7-9.4l-11.7-11.7l-9.4,7.7
	c-2.7-1.5-5.6-2.8-8.7-3.6l-1.2-12.1h-16.6l-1.2,12.1c-3.1,0.8-6,2-8.7,3.6l-9.4-7.7l-11.7,11.7l7.7,9.4c-1.6,2.7-2.8,5.6-3.6,8.7
	l-12.1,1.2v16.6l12.1,1.2c0.8,3.1,2,6,3.6,8.7l-7.7,9.4l11.7,11.7l9.4-7.7c2.7,1.5,5.6,2.8,8.7,3.6l1.2,12.1h16.6l1.2-12.1
	c3.1-0.8,6-2,8.7-3.6l9.4,7.7l11.7-11.7l-7.7-9.4c1.5-2.7,2.8-5.6,3.6-8.7L271.3,209.7z M224,220.6c-10.6,0-19.2-8.6-19.2-19.2
	c0-10.6,8.6-19.2,19.2-19.2c10.6,0,19.2,8.6,19.2,19.2C243.2,212.1,234.6,220.6,224,220.6z"/>
<path style="fill:#9EA7DB;" d="M328.4,224.9v-11.1l-9-0.9c-0.4-1.1-0.8-2.1-1.3-3.1l5.7-7L316,195l-7,5.7c-1-0.5-2-0.9-3.1-1.3
	l-0.9-9h-11.1l-0.9,9c-1.1,0.3-2.1,0.8-3.1,1.3l-7-5.7l-7.9,7.9l5.7,7c-0.5,1-0.9,2-1.3,3.1l-9,0.9V225l9,0.9
	c0.3,1.1,0.8,2.1,1.3,3.1l-5.7,7l7.9,7.9l7-5.7c1,0.5,2,0.9,3.1,1.3l0.9,9H305l0.9-9c1.1-0.4,2.1-0.8,3.1-1.3l7,5.7l7.9-7.9l-5.7-7
	c0.5-1,0.9-2,1.3-3.1L328.4,224.9z M299.5,230.4c-6.1,0-11.1-5-11.1-11.1s5-11.1,11.1-11.1s11.1,5,11.1,11.1
	C310.5,225.5,305.6,230.4,299.5,230.4z"/>
<path style="fill:#5ED1B3;" d="M285.7,265.4v-8.7l-3.8-0.4c-0.3-1.1-0.8-2.2-1.3-3.2l2.5-2.9l-6.2-6.2l-3,2.4c-1-0.6-2.1-1-3.2-1.3
	l-0.3-3.8h-8.7l-0.4,3.8c-1.1,0.3-2.2,0.8-3.2,1.3l-2.9-2.5l-6.2,6.2l2.4,3c-0.6,1-1,2.1-1.3,3.2l-3.8,0.3v8.7l3.8,0.4
	c0.3,1.1,0.8,2.2,1.3,3.2l-2.5,2.9l6.2,6.2l3-2.4c1,0.6,2.1,1,3.2,1.3l0.3,3.8h8.7l0.4-3.8c1.1-0.3,2.2-0.8,3.2-1.3l2.9,2.5l6.2-6.2
	l-2.4-3c0.6-1,1-2.1,1.3-3.2L285.7,265.4z M266,267.2c-3.5,0-6.3-2.8-6.3-6.3s2.8-6.3,6.3-6.3s6.3,2.8,6.3,6.3
	C272.3,264.3,269.5,267.2,266,267.2z"/>
<path style="fill:#68606E;" d="M77.4,323.4h350.4c3.1,0,5.6,2.5,5.6,5.6v11.8c0,9.2-7.5,16.7-16.7,16.7H88.5
	c-9.2,0-16.7-7.5-16.7-16.7V329C71.8,325.9,74.3,323.4,77.4,323.4z"/>
<path style="fill:#EAEAED;" d="M77.4,323.4h350.4c3.1,0,5.6,2.5,5.6,5.6v3.8H71.8V329C71.8,325.9,74.3,323.4,77.4,323.4z"/>
<g>
	<circle style="fill:#B3B3BD;" cx="252.6" cy="124.5" r="1.6"/>
	<path style="fill:#B3B3BD;" d="M209.4,332.8h86.3v4.7c0,2.6-2.1,4.7-4.7,4.7h-76.9c-2.6,0-4.7-2.1-4.7-4.7L209.4,332.8L209.4,332.8
		z"/>
</g>
<g>
	<rect x="163.1" y="316.4" style="fill:#68606E;" width="20" height="7"/>
	<rect x="322.1" y="316.4" style="fill:#68606E;" width="20" height="7"/>
</g>
<g>
</g>
<g>
</g>
<g>
</g>
<g>
</g>
<g>
</g>
<g>
</g>
<g>
</g>
<g>
</g>
<g>
</g>
<g>
</g>
<g>
</g>
<g>
</g>
<g>
</g>
<g>
</g>
<g>
</g>
</svg>
