<svg id="color" enable-background="new 0 0 24 24" height="512" viewBox="0 0 24 24" width="512" xmlns="http://www.w3.org/2000/svg"><path d="m21.5 21c-.827 0-1.5.673-1.5 1.5s.673 1.5 1.5 1.5 1.5-.673 1.5-1.5-.673-1.5-1.5-1.5z" fill="#607d8b"/><path d="m21.5 21c-.827 0-1.5.673-1.5 1.5s.673 1.5 1.5 1.5z" fill="#546d79"/><path d="m21.25 22h-7c-.414 0-.75-.336-.75-.75v-12.5c0-.414.336-.75.75-.75h7c1.517 0 2.75 1.233 2.75 2.75v8.5c0 1.517-1.233 2.75-2.75 2.75z" fill="#4fc3f7"/><path d="m2.75 18h-1c-.965 0-1.75-.785-1.75-1.75v-6.5c0-.965.785-1.75 1.75-1.75h1c.414 0 .75.336.75.75v8.5c0 .414-.336.75-.75.75z" fill="#607d8b"/><path d="m3.5 13h-3.5v3.25c0 .965.785 1.75 1.75 1.75h1c.414 0 .75-.336.75-.75z" fill="#546d79"/><path d="m4.5 21c-.827 0-1.5.673-1.5 1.5s.673 1.5 1.5 1.5 1.5-.673 1.5-1.5-.673-1.5-1.5-1.5z" fill="#607d8b"/><path d="m4.5 21c-.827 0-1.5.673-1.5 1.5s.673 1.5 1.5 1.5z" fill="#546d79"/><path d="m14.25 16h-11.5c-.414 0-.75-.336-.75-.75v-10.5c0-1.517 1.233-2.75 2.75-2.75h3c.414 0 .75.336.75.75v1c0 .689.561 1.25 1.25 1.25h2.5c1.517 0 2.75 1.233 2.75 2.75v7.5c0 .414-.336.75-.75.75z" fill="#03a9f4"/><path d="m12.25 4h-4.5c-.553 0-1-.448-1-1s.447-1 1-1h4.5c.553 0 1 .448 1 1s-.447 1-1 1z" fill="#03a9f4"/><path d="m7.75 2h-3c-1.517 0-2.75 1.233-2.75 2.75v10.5-.75h13v-6.75c0-1.517-1.233-2.75-2.75-2.75h-2.5c-.604 0-1.109-.43-1.225-1h-.775c-.553 0-1-.448-1-1s.447-1 1-1z" fill="#0393d4"/><path d="m12.25 2h-4.5c-.553 0-1 .448-1 1s.447 1 1 1h.775 3.725c.553 0 1-.448 1-1s-.447-1-1-1z" fill="#0393d4"/><path d="m15 22h-10.25c-1.519 0-2.75-1.231-2.75-2.75v-4.75h13z" fill="#039be5"/><path d="m15 14.5h-13v.75 4c0 1.519 1.231 2.75 2.75 2.75h10.25z" fill="#0387c7"/><path d="m21.25 14.5h-3.5c-.414 0-.75-.336-.75-.75v-2c0-.414.336-.75.75-.75h3.5c.414 0 .75.336.75.75v2c0 .414-.336.75-.75.75z" fill="#eceff1"/><path d="m10.75 11.5h-5c-.414 0-.75-.336-.75-.75v-2c0-.414.336-.75.75-.75h5c.414 0 .75.336.75.75v2c0 .414-.336.75-.75.75z" fill="#eceff1"/><g fill="#cdd0d2"><path d="m11.5 9.75h-6.5v1c0 .414.336.75.75.75h5c.414 0 .75-.336.75-.75z"/><path d="m22 12.75h-5v1c0 .414.336.75.75.75h3.5c.414 0 .75-.336.75-.75z"/></g></svg>