<svg id="_x31__x2C_5_px" enable-background="new 0 0 24 24" height="512" viewBox="0 0 24 24" width="512" xmlns="http://www.w3.org/2000/svg"><g><path d="m21.25 21.333h-6.571c-.375 0-.679-.304-.679-.679v-11.309c0-.375.304-.679.679-.679h6.571c1.105 0 2 .895 2 2v8.667c0 1.105-.895 2-2 2z" fill="#4fc3f7"/></g><g><path d="m2.552 17.012h-.956c-.552 0-1-.448-1-1v-6.024c0-.552.448-1 1-1h.957c.332 0 .602.27.602.602v6.82c-.001.332-.27.602-.603.602z" fill="#607d8b"/></g><g><path d="m12.25 5.75h-2.5c-1.1 0-2-.9-2-2v-1h-3c-1.1 0-2 .9-2 2v10.5h11.5v-7.5c0-1.1-.9-2-2-2z" fill="#03a9f4"/></g><g><path d="m14.22 21.3h-9.02c-1.337 0-2.42-1.083-2.42-2.42v-3.68h11.44z" fill="#039be5"/></g><g><path d="m10.173 11.096h-3.846c-.319 0-.577-.258-.577-.577v-1.538c0-.319.258-.577.577-.577h3.846c.319 0 .577.258.577.577v1.538c0 .319-.258.577-.577.577z" fill="#eceff1"/></g><g><path d="m19.865 14.115h-2.73c-.323 0-.585-.262-.585-.585v-1.56c0-.323.262-.585.585-.585h2.73c.323 0 .585.262.585.585v1.56c0 .323-.262.585-.585.585z" fill="#eceff1"/></g><g><path d="m14.25 22h-9.5c-1.517 0-2.75-1.233-2.75-2.75v-14.5c0-1.517 1.233-2.75 2.75-2.75h7.5c.414 0 .75.336.75.75s-.336.75-.75.75h-3.75v.25c0 .689.561 1.25 1.25 1.25h2.5c1.517 0 2.75 1.233 2.75 2.75v13.5c0 .414-.336.75-.75.75zm-9.5-18.5c-.689 0-1.25.561-1.25 1.25v14.5c0 .689.561 1.25 1.25 1.25h8.75v-12.75c0-.689-.561-1.25-1.25-1.25h-2.5c-1.517 0-2.75-1.233-2.75-2.75v-.25z"/></g><g><path d="m21.25 22h-7c-.414 0-.75-.336-.75-.75v-12.5c0-.414.336-.75.75-.75h7c1.517 0 2.75 1.233 2.75 2.75v8.5c0 1.517-1.233 2.75-2.75 2.75zm-6.25-1.5h6.25c.689 0 1.25-.561 1.25-1.25v-8.5c0-.689-.561-1.25-1.25-1.25h-6.25z"/></g><g><path d="m2.75 18h-1c-.965 0-1.75-.785-1.75-1.75v-6.5c0-.965.785-1.75 1.75-1.75h1c.414 0 .75.336.75.75v8.5c0 .414-.336.75-.75.75zm-1-8.5c-.138 0-.25.112-.25.25v6.5c0 .138.112.25.25.25h.25v-7z"/></g><g><path d="m10.75 11.5h-5c-.414 0-.75-.336-.75-.75v-2c0-.414.336-.75.75-.75h5c.414 0 .75.336.75.75v2c0 .414-.336.75-.75.75zm-4.25-1.5h3.5v-.5h-3.5z"/></g><g><path d="m14.25 16h-11.5c-.414 0-.75-.336-.75-.75s.336-.75.75-.75h11.5c.414 0 .75.336.75.75s-.336.75-.75.75z"/></g><g><path d="m20.25 14.5h-3.5c-.414 0-.75-.336-.75-.75v-2c0-.414.336-.75.75-.75h3.5c.414 0 .75.336.75.75v2c0 .414-.336.75-.75.75zm-2.75-1.5h2v-.5h-2z"/></g><g><path d="m4.5 24c-.827 0-1.5-.673-1.5-1.5s.673-1.5 1.5-1.5 1.5.673 1.5 1.5-.673 1.5-1.5 1.5zm.001-1.5c-.001 0-.001 0-.002 0l.001.75z"/></g><g><path d="m4.5 24c-.827 0-1.5-.673-1.5-1.5s.673-1.5 1.5-1.5 1.5.673 1.5 1.5-.673 1.5-1.5 1.5zm.001-1.5c-.001 0-.001 0-.002 0l.001.75z"/></g><g><path d="m21.5 24c-.827 0-1.5-.673-1.5-1.5s.673-1.5 1.5-1.5 1.5.673 1.5 1.5-.673 1.5-1.5 1.5zm.001-1.5c-.001 0-.001 0-.002 0l.001.75z"/></g><g><path d="m21.5 24c-.827 0-1.5-.673-1.5-1.5s.673-1.5 1.5-1.5 1.5.673 1.5 1.5-.673 1.5-1.5 1.5zm.001-1.5c-.001 0-.001 0-.002 0l.001.75z"/></g></svg>