<svg width="10" height="12" viewBox="0 0 10 12" fill="none" xmlns="http://www.w3.org/2000/svg">
<path d="M4.50001 8.99999C3.45887 8.99999 2.45 8.71918 1.64523 8.20553C0.84045 7.69179 0.289574 6.97693 0.0864719 6.1828C-0.116636 5.38858 0.040597 4.56422 0.531365 3.8501C1.02214 3.13597 1.81608 2.57629 2.77796 2.26642C3.73978 1.95655 4.81001 1.91565 5.80631 2.15071C6.80256 2.38577 7.66319 2.88223 8.24166 3.5555C8.82001 4.22877 9.08041 5.03721 8.9783 5.84306C8.87626 6.64891 8.41819 7.40224 7.682 7.97483C7.26512 8.30089 6.76916 8.55933 6.22302 8.73528C5.67682 8.91128 5.0912 9.00122 4.50001 8.99999ZM4.50001 2.0269C2.03779 2.0269 0.0345854 3.58492 0.0345854 5.49999C0.0345854 7.41502 2.03779 8.97306 4.50001 8.97306C6.96222 8.97306 8.96541 7.41502 8.96541 5.49999C8.96541 3.58492 6.96222 2.0269 4.50001 2.0269Z" fill="#CCCCCC"/>
<path d="M6.5188 10.6145V7.07837H3.72363V10.6145H6.5188Z" fill="#2F2E41"/>
<path d="M7 6.96875H3.24316V8.37463H7V6.96875Z" fill="#3F3D56"/>
<path d="M7 8.53662H3.24316V9.9425H7V8.53662Z" fill="#3F3D56"/>
<path d="M7 10.1047H3.24316V11.5058H7V10.1047Z" fill="#3F3D56"/>
<path d="M7 7.56445H3.24316V7.78367H7V7.56445Z" fill="#6C63FF"/>
<path d="M7 9.13257H3.24316V9.34702H7V9.13257Z" fill="#6C63FF"/>
<path d="M7 10.7004H3.24316V10.9149H7V10.7004Z" fill="#6C63FF"/>
<path d="M6.26839 7.25481C6.31522 7.25481 6.35319 7.21849 6.35319 7.17379C6.35319 7.12904 6.31522 7.09277 6.26839 7.09277C6.22156 7.09277 6.18359 7.12904 6.18359 7.17379C6.18359 7.21849 6.22156 7.25481 6.26839 7.25481Z" fill="#6C63FF"/>
<path d="M6.57024 7.25481C6.61712 7.25481 6.65513 7.21849 6.65513 7.17379C6.65513 7.12904 6.61712 7.09277 6.57024 7.09277C6.52336 7.09277 6.48535 7.12904 6.48535 7.17379C6.48535 7.21849 6.52336 7.25481 6.57024 7.25481Z" fill="#6C63FF"/>
<path d="M6.87293 7.25481C6.91978 7.25481 6.95778 7.21849 6.95778 7.17379C6.95778 7.12904 6.91978 7.09277 6.87293 7.09277C6.82608 7.09277 6.78809 7.12904 6.78809 7.17379C6.78809 7.21849 6.82608 7.25481 6.87293 7.25481Z" fill="#6C63FF"/>
<path d="M6.26839 8.79421C6.31522 8.79421 6.35319 8.75792 6.35319 8.71314C6.35319 8.66837 6.31522 8.63208 6.26839 8.63208C6.22156 8.63208 6.18359 8.66837 6.18359 8.71314C6.18359 8.75792 6.22156 8.79421 6.26839 8.79421Z" fill="#6C63FF"/>
<path d="M6.57024 8.79421C6.61712 8.79421 6.65513 8.75792 6.65513 8.71314C6.65513 8.66837 6.61712 8.63208 6.57024 8.63208C6.52336 8.63208 6.48535 8.66837 6.48535 8.71314C6.48535 8.75792 6.52336 8.79421 6.57024 8.79421Z" fill="#3BFD37"/>
<path d="M6.87293 8.79421C6.91978 8.79421 6.95778 8.75792 6.95778 8.71314C6.95778 8.66837 6.91978 8.63208 6.87293 8.63208C6.82608 8.63208 6.78809 8.66837 6.78809 8.71314C6.78809 8.75792 6.82608 8.79421 6.87293 8.79421Z" fill="#6C63FF"/>
<path d="M6.26839 10.3334C6.31522 10.3334 6.35319 10.2972 6.35319 10.2524C6.35319 10.2077 6.31522 10.1714 6.26839 10.1714C6.22156 10.1714 6.18359 10.2077 6.18359 10.2524C6.18359 10.2972 6.22156 10.3334 6.26839 10.3334Z" fill="#6C63FF"/>
<path d="M6.57024 10.3334C6.61712 10.3334 6.65513 10.2972 6.65513 10.2524C6.65513 10.2077 6.61712 10.1714 6.57024 10.1714C6.52336 10.1714 6.48535 10.2077 6.48535 10.2524C6.48535 10.2972 6.52336 10.3334 6.57024 10.3334Z" fill="#6C63FF"/>
<path d="M6.87293 10.3334C6.91978 10.3334 6.95778 10.2972 6.95778 10.2524C6.95778 10.2077 6.91978 10.1714 6.87293 10.1714C6.82608 10.1714 6.78809 10.2077 6.78809 10.2524C6.78809 10.2972 6.82608 10.3334 6.87293 10.3334Z" fill="#EF3D3D"/>
<path d="M8.99511 4.3374H7.86914V4.88484H8.99511V4.3374Z" fill="#E6E6E6"/>
<path d="M8.99511 6.29688H7.86914V6.83809H8.99511V6.29688Z" fill="#E6E6E6"/>
<path d="M8.43245 6.47119C8.9507 6.47119 9.37076 6.0771 9.37076 5.59094C9.37076 5.10478 8.9507 4.71069 8.43245 4.71069C7.91426 4.71069 7.49414 5.10478 7.49414 5.59094C7.49414 6.0771 7.91426 6.47119 8.43245 6.47119Z" fill="#E6E6E6"/>
<path d="M8.43531 6.27837C8.83974 6.27837 9.1675 5.97063 9.1675 5.59097C9.1675 5.21131 8.83974 4.90356 8.43531 4.90356C8.03101 4.90356 7.70312 5.21131 7.70312 5.59097C7.70312 5.97063 8.03101 6.27837 8.43531 6.27837Z" fill="white"/>
<path d="M8.76137 5.40112H8.19531V5.43223H8.76137V5.40112Z" fill="#E2E2E2"/>
<path d="M9.06902 5.51318H8.19531V5.54429H9.06902V5.51318Z" fill="#6C63FF"/>
<path d="M8.88443 5.6189H8.19531V5.65H8.88443V5.6189Z" fill="#E2E2E2"/>
<path d="M8.6014 5.72461H8.19531V5.75571H8.6014V5.72461Z" fill="#E2E2E2"/>
<path d="M8.79829 5.83032H8.19531V5.86143H8.79829V5.83032Z" fill="#E2E2E2"/>
<path d="M8.00518 5.39502H7.9375V5.45101H8.00518V5.39502Z" fill="#E2E2E2"/>
<path d="M8.00518 5.49438H7.9375V5.55659H8.00518V5.49438Z" fill="#6C63FF"/>
<path d="M8.00518 5.60034H7.9375V5.66255H8.00518V5.60034Z" fill="#E2E2E2"/>
<path d="M8.00518 5.70605H7.9375V5.76826H8.00518V5.70605Z" fill="#E2E2E2"/>
<path d="M8.00518 5.81177H7.9375V5.87398H8.00518V5.81177Z" fill="#E2E2E2"/>
<path d="M1.90129 4.34718V7.6248C1.90127 7.69341 1.87235 7.75917 1.82088 7.80763C1.7694 7.85609 1.69959 7.88334 1.6268 7.88334H0.274604C0.201795 7.88334 0.131958 7.85609 0.0804572 7.80763C0.0289623 7.75917 1.84591e-05 7.69341 0 7.6248V4.34718C1.84591e-05 4.27859 0.0289623 4.21282 0.0804572 4.16434C0.131958 4.11585 0.201795 4.08862 0.274604 4.08862H0.438632C0.430584 4.10728 0.427513 4.12752 0.42971 4.14755C0.431901 4.16758 0.439284 4.18681 0.451209 4.20353C0.46314 4.22024 0.479242 4.23394 0.498102 4.24343C0.516967 4.2529 0.538016 4.25789 0.559398 4.2579H1.33033C1.35171 4.25789 1.37276 4.2529 1.39162 4.24343C1.41049 4.23394 1.42659 4.22024 1.43851 4.20353C1.45045 4.18681 1.45783 4.16758 1.46002 4.14755C1.46221 4.12752 1.45915 4.10728 1.45109 4.08862H1.6268C1.69959 4.08864 1.7694 4.11588 1.82088 4.16437C1.87235 4.21286 1.90127 4.27861 1.90129 4.34718Z" fill="#E6E6E6"/>
<path d="M1.81557 4.7168H0.0927734V6.97508H1.81557V4.7168Z" fill="white"/>
<path d="M1.26822 6.26587H0.579102V6.30319H1.26822V6.26587Z" fill="#E6E6E6"/>
<path d="M1.64354 6.40283H0.579102V6.44016H1.64354V6.40283Z" fill="#6C63FF"/>
<path d="M1.41583 6.5022H0.579102V6.53952H1.41583V6.5022Z" fill="#E6E6E6"/>
<path d="M1.07127 6.65771H0.579102V6.69504H1.07127V6.65771Z" fill="#E6E6E6"/>
<path d="M1.3175 6.78833H0.579102V6.82565H1.3175V6.78833Z" fill="#E6E6E6"/>
<path d="M1.30465 4.99683H0.609375V5.65001H1.30465V4.99683Z" fill="#E6E6E6"/>
<path d="M6.50976 3.17133L5.32771 3.86581C5.29978 3.88229 5.25474 3.88229 5.2268 3.86607L3.22408 2.6969C3.19614 2.68068 3.19614 2.65427 3.22408 2.63779L4.40612 1.94331C4.43375 1.9271 4.47879 1.9271 4.50672 1.94331L6.50945 3.11223C6.53738 3.1287 6.53769 3.15512 6.50976 3.17133Z" fill="#384E85"/>
<path d="M4.76499 3.01265C4.78086 3.02194 4.7808 3.03709 4.76499 3.04638L4.43653 3.23935C4.42066 3.24865 4.39482 3.24875 4.37894 3.23946L3.73163 2.86165C3.7157 2.85236 3.71582 2.83722 3.73163 2.82793L4.06009 2.63495C4.0759 2.62566 4.10174 2.62555 4.11768 2.63485L4.76499 3.01265Z" fill="#2E4277"/>
<path d="M6.52967 3.14194L6.52943 3.24863C6.52943 3.25909 6.52241 3.26981 6.50869 3.27792L5.32673 3.97242C5.29879 3.98863 5.25375 3.98863 5.22582 3.97242L3.22313 2.80348C3.20916 2.79537 3.20215 2.78465 3.20215 2.77367L3.20246 2.66724C3.20246 2.67795 3.20941 2.68868 3.22338 2.69679L5.22607 3.86599C5.254 3.8822 5.29904 3.8822 5.32697 3.86572L6.509 3.17122C6.52297 3.16312 6.52967 3.15266 6.52967 3.14194Z" fill="#1B2A4F"/>
<path d="M4.73186 2.25898L4.69423 2.28104L4.60352 2.22812L4.64108 2.20605L4.73186 2.25898Z" fill="#798FFE"/>
<path d="M4.23699 2.40678L4.15393 2.45559L3.94141 2.33152L4.02447 2.28271L4.23699 2.40678Z" fill="#798FFE"/>
<path d="M4.21959 2.27436L4.13653 2.32316L4.0459 2.27024L4.12896 2.22144L4.21959 2.27436Z" fill="#798FFE"/>
<path d="M4.34264 2.34541L4.25958 2.39421L4.16895 2.34128L4.25201 2.29248L4.34264 2.34541Z" fill="#798FFE"/>
<path d="M4.44604 2.28371L4.36297 2.33251L4.15039 2.20847L4.23345 2.15967L4.44604 2.28371Z" fill="#798FFE"/>
<path d="M4.56829 2.35494L4.48522 2.40376L4.39453 2.35082L4.47759 2.302L4.56829 2.35494Z" fill="#798FFE"/>
<path d="M4.71849 2.32002L4.63561 2.36873L4.54492 2.31581L4.62786 2.26709L4.71849 2.32002Z" fill="#798FFE"/>
<path d="M4.59557 2.24897L4.51263 2.29768L4.42188 2.24476L4.50487 2.19604L4.59557 2.24897Z" fill="#798FFE"/>
<path d="M4.60955 2.18794L4.57205 2.21L4.48145 2.15708L4.519 2.13501L4.60955 2.18794Z" fill="#798FFE"/>
<path d="M4.4738 2.17802L4.39086 2.22673L4.25488 2.14735L4.33776 2.09863L4.4738 2.17802Z" fill="#798FFE"/>
<path d="M4.48754 2.11665L4.45001 2.13871L4.35938 2.08579L4.39691 2.06372L4.48754 2.11665Z" fill="#798FFE"/>
<path d="M5.21819 2.54316L5.18062 2.56523L5.08984 2.5123L5.12747 2.49023L5.21819 2.54316Z" fill="#798FFE"/>
<path d="M5.20482 2.6044L5.12194 2.65309L5.03125 2.60019L5.11413 2.55151L5.20482 2.6044Z" fill="#798FFE"/>
<path d="M5.08361 2.53339L5.00072 2.5821L4.91016 2.52918L4.99298 2.48047L5.08361 2.53339Z" fill="#798FFE"/>
<path d="M4.70775 2.55854L4.62475 2.60734L4.53418 2.55442L4.61719 2.50562L4.70775 2.55854Z" fill="#798FFE"/>
<path d="M4.82897 2.62959L4.74591 2.67839L4.65527 2.62546L4.73834 2.57666L4.82897 2.62959Z" fill="#798FFE"/>
<path d="M4.85381 2.33003L4.81628 2.35209L4.72559 2.29917L4.76312 2.2771L4.85381 2.33003Z" fill="#798FFE"/>
<path d="M4.97576 2.40107L4.93826 2.42314L4.84766 2.37021L4.88521 2.34814L4.97576 2.40107Z" fill="#798FFE"/>
<path d="M4.83959 2.39106L4.75665 2.43977L4.66602 2.38684L4.74889 2.33813L4.83959 2.39106Z" fill="#798FFE"/>
<path d="M4.69036 2.42597L4.60729 2.47478L4.5166 2.42186L4.59967 2.37305L4.69036 2.42597Z" fill="#798FFE"/>
<path d="M4.96178 2.46234L4.87878 2.51106L4.78809 2.45813L4.87102 2.40942L4.96178 2.46234Z" fill="#798FFE"/>
<path d="M4.58483 2.4875L4.50176 2.5363L4.41113 2.48337L4.4942 2.43457L4.58483 2.4875Z" fill="#798FFE"/>
<path d="M4.81225 2.497L4.72924 2.54578L4.63867 2.49288L4.72168 2.44409L4.81225 2.497Z" fill="#798FFE"/>
<path d="M4.8463 2.76213L4.76342 2.81084L4.18555 2.47352L4.26843 2.4248L4.8463 2.76213Z" fill="#798FFE"/>
<path d="M5.0971 2.47212L5.05947 2.49418L4.96875 2.44125L5.00632 2.41919L5.0971 2.47212Z" fill="#798FFE"/>
<path d="M5.3413 2.61429L5.30377 2.63636L5.21289 2.58334L5.25048 2.56128L5.3413 2.61429Z" fill="#798FFE"/>
<path d="M5.58428 2.75654L5.54669 2.77861L5.45605 2.72568L5.49359 2.70361L5.58428 2.75654Z" fill="#798FFE"/>
<path d="M4.9334 2.56829L4.85039 2.61708L4.75977 2.56417L4.84277 2.51538L4.9334 2.56829Z" fill="#798FFE"/>
<path d="M5.05541 2.63933L4.9724 2.68812L4.88184 2.63521L4.96484 2.58643L5.05541 2.63933Z" fill="#798FFE"/>
<path d="M5.17766 2.71048L5.09466 2.75929L5.00391 2.70628L5.08691 2.65747L5.17766 2.71048Z" fill="#798FFE"/>
<path d="M5.32781 2.67539L5.24487 2.7241L5.1543 2.67127L5.23723 2.62256L5.32781 2.67539Z" fill="#798FFE"/>
<path d="M5.29967 2.78168L5.21661 2.83049L5.12598 2.77756L5.20904 2.72876L5.29967 2.78168Z" fill="#798FFE"/>
<path d="M5.21087 2.97553L5.1278 3.02434L5.03711 2.97142L5.12017 2.92261L5.21087 2.97553Z" fill="#798FFE"/>
<path d="M5.3153 2.91401L5.23223 2.96281L5.1416 2.90989L5.22466 2.86108L5.3153 2.91401Z" fill="#798FFE"/>
<path d="M5.54272 2.92363L5.45965 2.97243L5.24707 2.84836L5.33013 2.79956L5.54272 2.92363Z" fill="#798FFE"/>
<path d="M5.70623 2.82781L5.66867 2.84986L5.57812 2.79696L5.61562 2.7749L5.70623 2.82781Z" fill="#798FFE"/>
<path d="M5.6466 2.86225L5.56372 2.91097L5.39648 2.81336L5.47943 2.76465L5.6466 2.86225Z" fill="#798FFE"/>
<path d="M5.44884 2.74678L5.36602 2.79551L5.27539 2.74257L5.35827 2.69385L5.44884 2.74678Z" fill="#798FFE"/>
<path d="M5.46233 2.68549L5.42476 2.70756L5.33398 2.65463L5.37161 2.63257L5.46233 2.68549Z" fill="#798FFE"/>
<path d="M5.89055 3.12714L5.80749 3.17594L5.7168 3.12302L5.79986 3.07422L5.89055 3.12714Z" fill="#798FFE"/>
<path d="M6.13457 3.26924L6.05157 3.31804L5.96094 3.26511L6.04394 3.21631L6.13457 3.26924Z" fill="#798FFE"/>
<path d="M5.56048 3.17866L5.47741 3.22746L5.38672 3.17453L5.46978 3.12573L5.56048 3.17866Z" fill="#798FFE"/>
<path d="M5.93182 2.95991L5.89426 2.98197L5.80371 2.92905L5.84121 2.90698L5.93182 2.95991Z" fill="#798FFE"/>
<path d="M5.87377 2.99458L5.79083 3.04329L5.7002 2.99037L5.78307 2.94165L5.87377 2.99458Z" fill="#798FFE"/>
<path d="M6.05389 3.03095L6.01633 3.05302L5.92578 3.0001L5.96328 2.97803L6.05389 3.03095Z" fill="#798FFE"/>
<path d="M5.76946 3.0561L5.6864 3.1049L5.5957 3.05198L5.67877 3.00317L5.76946 3.0561Z" fill="#798FFE"/>
<path d="M5.99486 3.06587L5.91192 3.11458L5.82129 3.06165L5.90417 3.01294L5.99486 3.06587Z" fill="#798FFE"/>
<path d="M5.66503 3.11738L5.58191 3.16618L5.49121 3.11326L5.57433 3.06445L5.66503 3.11738Z" fill="#798FFE"/>
<path d="M6.11779 3.13666L6.03497 3.18538L5.94434 3.13245L6.02722 3.08374L6.11779 3.13666Z" fill="#798FFE"/>
<path d="M5.78588 3.18842L5.70287 3.23723L5.6123 3.1843L5.69531 3.1355L5.78588 3.18842Z" fill="#798FFE"/>
<path d="M6.01366 3.19818L5.93054 3.24699L5.83984 3.19407L5.92297 3.14526L6.01366 3.19818Z" fill="#798FFE"/>
<path d="M5.90807 3.25946L5.82501 3.30827L5.73438 3.25535L5.81744 3.20654L5.90807 3.25946Z" fill="#798FFE"/>
<path d="M4.46373 2.41645L4.38067 2.46525L4.29004 2.41233L4.3731 2.36353L4.46373 2.41645Z" fill="#798FFE"/>
<path d="M4.96892 2.83329L4.8858 2.88209L4.79492 2.82908L4.87804 2.78027L4.96892 2.83329Z" fill="#798FFE"/>
<path d="M5.07317 2.77201L4.99017 2.82081L4.89941 2.7678L4.98236 2.71899L5.07317 2.77201Z" fill="#798FFE"/>
<path d="M5.08983 2.90448L5.00671 2.95329L4.91602 2.90037L4.99914 2.85156L5.08983 2.90448Z" fill="#798FFE"/>
<path d="M5.19439 2.84297L5.11126 2.89177L5.02051 2.83885L5.10363 2.79004L5.19439 2.84297Z" fill="#798FFE"/>
<path d="M4.9511 2.70063L4.86804 2.74943L4.77734 2.69651L4.86041 2.64771L4.9511 2.70063Z" fill="#798FFE"/>
<path d="M5.33391 3.04658L5.25085 3.09538L5.16016 3.04246L5.24322 2.99365L5.33391 3.04658Z" fill="#798FFE"/>
<path d="M6.239 3.20795L6.15612 3.25667L6.06543 3.20374L6.14831 3.15503L6.239 3.20795Z" fill="#798FFE"/>
<path d="M6.29815 3.17304L6.26055 3.1951L6.16992 3.14218L6.20745 3.12012L6.29815 3.17304Z" fill="#798FFE"/>
<path d="M6.17596 3.10199L6.13846 3.12406L6.04785 3.07114L6.08541 3.04907L6.17596 3.10199Z" fill="#798FFE"/>
<path d="M5.68157 3.24994L5.59851 3.29874L5.50781 3.24582L5.59088 3.19702L5.68157 3.24994Z" fill="#798FFE"/>
<path d="M6.03025 3.33076L5.84265 3.441L5.75195 3.38808L5.93961 3.27783L6.03025 3.33076Z" fill="#798FFE"/>
<path d="M5.80352 3.32099L5.72051 3.3698L5.62988 3.31688L5.71289 3.26807L5.80352 3.32099Z" fill="#798FFE"/>
<path d="M6.48321 1.55339C6.51109 1.56968 6.53367 1.60917 6.53354 1.64159L6.52997 3.06617C6.52991 3.0984 6.50721 3.11167 6.47928 3.09537L4.50547 1.94328C4.47754 1.92699 4.45502 1.88731 4.45508 1.85508L4.45865 0.430503C4.45877 0.39808 4.48147 0.385004 4.50935 0.401297L6.48321 1.55339Z" fill="#1B2A4F"/>
<path d="M6.58683 1.61059L6.5832 3.0351C6.5832 3.05105 6.57754 3.06255 6.56849 3.06778L6.51552 3.09891C6.52456 3.09368 6.53028 3.08218 6.53028 3.06622L6.53391 1.64172C6.53391 1.60929 6.51139 1.56981 6.48346 1.55333L4.50957 0.40138C4.4956 0.393274 4.48292 0.39249 4.47363 0.397722L4.52655 0.366593C4.53565 0.361362 4.54857 0.362145 4.56254 0.370251L6.53638 1.52247C6.56431 1.53868 6.58683 1.57817 6.58683 1.61059Z" fill="#384E85"/>
<path d="M6.46254 1.62409L6.4591 3.00032L4.52637 1.87232L4.52981 0.496094L6.46254 1.62409Z" fill="#D9DDF6"/>
<path d="M6.23719 1.21351L6.23406 2.29878C6.23399 2.31659 6.22779 2.32912 6.21777 2.33499L6.2869 2.29434C6.29691 2.28846 6.30312 2.27594 6.30318 2.25813L6.30631 1.17285L6.23719 1.21351Z" fill="#4466FB"/>
<path d="M6.23678 1.21358L6.23358 2.29884C6.23346 2.33468 6.20847 2.3491 6.17777 2.33117L4.73824 1.49098C4.70742 1.47298 4.68256 1.42944 4.68262 1.39361L4.68582 0.30835L6.23678 1.21358Z" fill="#6BB5FB"/>
<path d="M4.74606 0.414307L4.74316 1.42288L6.17284 2.25735L6.17579 1.24881L4.74606 0.414307Z" fill="white"/>
<path d="M6.30699 0.99979L6.30656 1.17292L6.23721 1.21329L6.23765 1.04061C6.23765 1.00467 6.2126 0.96119 6.1819 0.943448L4.74263 0.103147C4.72724 0.0942726 4.71322 0.0933849 4.70312 0.0991522L4.77198 0.0583354C4.78256 0.0525674 4.79659 0.0534533 4.81191 0.0623273L6.25124 0.902627C6.28195 0.920817 6.30699 0.964294 6.30699 0.99979Z" fill="#384E85"/>
<path d="M6.18138 0.943415C6.21214 0.961343 6.237 1.00489 6.23688 1.04057L6.23645 1.21354L4.68555 0.308286L4.68598 0.135313C4.6861 0.0996318 4.71114 0.0852113 4.74197 0.103213L6.18138 0.943415Z" fill="#2E4277"/>
<path d="M6.13119 0.97064C6.11008 0.958297 6.09284 0.968214 6.09277 0.992775C6.09271 1.01733 6.10983 1.04715 6.13095 1.05948C6.15201 1.07176 6.16918 1.06197 6.16931 1.03742C6.16937 1.01286 6.15225 0.982915 6.13119 0.97064Z" fill="#B7C5FD"/>
<path d="M5.88614 0.827326C5.86496 0.814988 5.84772 0.824906 5.84766 0.849463C5.84759 0.874027 5.86471 0.903848 5.88589 0.916186C5.90689 0.928462 5.92413 0.918675 5.92419 0.894111C5.92425 0.869547 5.90713 0.839602 5.88614 0.827326Z" fill="#B7C5FD"/>
<path d="M6.00815 0.898859C5.98703 0.886523 5.96979 0.896439 5.96973 0.920992C5.96967 0.945551 5.98678 0.97536 6.0079 0.987702C6.02908 1.00004 6.0462 0.99019 6.04626 0.965631C6.04632 0.941072 6.02933 0.9112 6.00815 0.898859Z" fill="#B7C5FD"/>
<path d="M5.007 0.955322L5.06539 1.05758C4.99605 1.07951 4.94467 1.13761 4.92209 1.22616L4.91016 1.21919C4.91317 1.10087 4.9491 1.01144 5.007 0.955322Z" fill="#D9DDF6"/>
<path d="M5.38641 0.950278L5.38579 1.15683C5.36082 1.13648 5.33517 1.11834 5.30878 1.10295C5.21713 1.04941 5.13256 1.03621 5.06527 1.05749L5.00684 0.955224C5.09375 0.870915 5.23097 0.86266 5.38641 0.950278Z" fill="#B7C5FD"/>
<path d="M5.76814 1.37939C5.83367 1.51127 5.87391 1.65276 5.87649 1.78353L5.69393 1.67698C5.68015 1.60573 5.6553 1.53301 5.62207 1.46381L5.76814 1.37939Z" fill="#9AADFD"/>
<path d="M5.39491 0.954912C5.5456 1.04291 5.67963 1.20195 5.76784 1.3793L5.62181 1.46371C5.56418 1.3443 5.4812 1.2345 5.38574 1.157L5.38636 0.950439C5.38906 0.95202 5.39195 0.953201 5.39491 0.954912Z" fill="#AABAFD"/>
<path d="M5.69769 1.26953L5.35274 1.50224C5.36228 1.53568 5.35711 1.56565 5.3376 1.5769C5.32456 1.58443 5.30745 1.58205 5.2904 1.57209C5.27324 1.56209 5.25613 1.54445 5.24302 1.52151C5.21706 1.476 5.21718 1.42673 5.24333 1.41166C5.25638 1.40414 5.27354 1.40655 5.29059 1.41651C5.29883 1.42133 5.30708 1.42791 5.31483 1.43599L5.69769 1.26953Z" fill="#535D88"/>
<path d="M4.09606 0.514475L4.09556 1.95926C4.0955 1.98019 4.0819 2.00106 4.05477 2.017L3.44489 2.37535C3.39025 2.40745 3.30128 2.40748 3.24627 2.37535L2.50631 1.94341C2.47863 1.92724 2.46478 1.90605 2.46484 1.88484L2.46534 0.440186C2.46534 0.461305 2.47918 0.482481 2.50681 0.498593L3.24676 0.930556C3.30183 0.962661 3.39074 0.962661 3.44538 0.930531L4.05526 0.572217C4.0824 0.556248 4.09606 0.535371 4.09606 0.514475Z" fill="#4466FB"/>
<path d="M4.05404 0.456031C4.10905 0.488149 4.10936 0.540212 4.05466 0.57233L3.44481 0.930663C3.39018 0.962781 3.30127 0.962787 3.2462 0.930675L2.50629 0.498731C2.45129 0.466613 2.45098 0.414538 2.50567 0.38242L3.11552 0.0240897C3.17016 -0.00802979 3.25906 -0.00802978 3.31407 0.024089L4.05404 0.456031Z" fill="#6BB5FB"/>
<path d="M3.81569 0.488302C3.84005 0.50251 3.84011 0.525534 3.81593 0.539742L3.38878 0.7907C3.3646 0.804908 3.32534 0.804921 3.30098 0.790712L2.74492 0.466138C2.72056 0.451929 2.72043 0.4289 2.74461 0.414692L3.17176 0.163732C3.19594 0.149524 3.23526 0.149524 3.25963 0.163732L3.81569 0.488302Z" fill="#4466FB"/>
<path d="M3.19234 1.00659L2.55792 0.636245C2.54475 0.628574 2.52832 0.638161 2.52832 0.653502V0.784608C2.52832 0.798841 2.53589 0.811998 2.54807 0.819121L3.18249 1.18945C3.1956 1.19712 3.21203 1.18753 3.21203 1.17219V1.04111C3.21203 1.02687 3.20452 1.01371 3.19234 1.00659Z" fill="#3955D1"/>
<path d="M3.45121 1.03962C3.43442 1.04943 3.42084 1.07322 3.4209 1.09274L3.42151 1.25138C3.42151 1.27091 3.43522 1.27878 3.452 1.26897C3.46879 1.25916 3.48237 1.23537 3.48231 1.21585L3.4817 1.05721C3.48164 1.03769 3.46799 1.02981 3.45121 1.03962Z" fill="#1B2A4F"/>
<path d="M3.46698 1.20821L3.46637 1.0496C3.46637 1.04379 3.46514 1.03901 3.46298 1.03542C3.47339 1.03496 3.48065 1.043 3.48071 1.0572L3.48133 1.21581C3.48139 1.23534 3.46778 1.25913 3.45098 1.26894C3.43916 1.27582 3.42894 1.27398 3.42383 1.26552C3.42771 1.26535 3.43208 1.264 3.43663 1.26133C3.45344 1.25153 3.46705 1.22773 3.46698 1.20821Z" fill="#6BB5FB"/>
<path d="M3.97757 0.730053C3.96079 0.739863 3.9472 0.763652 3.94727 0.783173L3.94788 0.941792C3.94788 0.961319 3.96159 0.969194 3.97837 0.959384C3.99515 0.949574 4.00874 0.925785 4.00868 0.906258L4.00806 0.747645C4.008 0.728118 3.99436 0.720236 3.97757 0.730053Z" fill="#1B2A4F"/>
<path d="M3.99433 0.898878L3.99377 0.740269C3.99371 0.734453 3.99248 0.729682 3.99033 0.726092C4.00079 0.725638 4.008 0.733669 4.00806 0.74787L4.00867 0.906479C4.00873 0.926005 3.99513 0.949792 3.97832 0.959602C3.9665 0.966488 3.95628 0.964646 3.95117 0.956193C3.95505 0.956019 3.95942 0.954669 3.96398 0.952C3.98085 0.942191 3.99439 0.918404 3.99433 0.898878Z" fill="#6BB5FB"/>
<path d="M3.84578 0.807446C3.82897 0.817256 3.81537 0.841044 3.81543 0.860565L3.81605 1.01918C3.81611 1.03871 3.82977 1.04659 3.84664 1.03678C3.86345 1.02697 3.87699 1.00318 3.87699 0.983651L3.87638 0.825038C3.87631 0.805511 3.86265 0.797629 3.84578 0.807446Z" fill="#1B2A4F"/>
<path d="M3.86247 0.976281L3.86185 0.817662C3.86185 0.811846 3.86062 0.807074 3.85847 0.803485C3.86887 0.803031 3.87613 0.811062 3.87619 0.825264L3.8768 0.983883C3.8768 1.00341 3.86327 1.0272 3.84647 1.03701C3.83466 1.0439 3.82438 1.04205 3.81934 1.0336C3.82321 1.03343 3.82758 1.03208 3.83213 1.02941C3.84893 1.0196 3.86253 0.995809 3.86247 0.976281Z" fill="#6BB5FB"/>
<path d="M3.71494 0.884834C3.69812 0.894645 3.68451 0.918435 3.68457 0.937963L3.68519 1.09659C3.68525 1.11611 3.69892 1.12399 3.71574 1.11418C3.73255 1.10437 3.74617 1.08058 3.7461 1.06105L3.74549 0.902428C3.74543 0.882906 3.73175 0.875024 3.71494 0.884834Z" fill="#1B2A4F"/>
<path d="M3.73072 1.05343L3.7301 0.894811C3.7301 0.888994 3.72887 0.884223 3.72665 0.880634C3.73712 0.880179 3.74439 0.88821 3.74439 0.902419L3.745 1.06103C3.74506 1.08056 3.73146 1.10435 3.71465 1.11416C3.70283 1.12104 3.69261 1.1192 3.6875 1.11075C3.69144 1.11058 3.69575 1.10923 3.70037 1.10656C3.71717 1.09675 3.73078 1.07296 3.73072 1.05343Z" fill="#6BB5FB"/>
<path d="M3.58206 0.962228C3.56528 0.972039 3.5517 0.995828 3.55176 1.01535L3.55237 1.17397C3.55243 1.1935 3.56608 1.20138 3.58286 1.19157C3.59965 1.18176 3.61323 1.15797 3.61317 1.13844L3.61256 0.979821C3.61249 0.960293 3.59885 0.952417 3.58206 0.962228Z" fill="#1B2A4F"/>
<path d="M3.59986 1.13083L3.59924 0.97221C3.59924 0.966393 3.59795 0.961616 3.5958 0.958026C3.60626 0.957572 3.61353 0.965603 3.61353 0.979812L3.61414 1.13844C3.6142 1.15796 3.6006 1.18175 3.58379 1.19156C3.57197 1.19845 3.56175 1.19661 3.55664 1.18815C3.56058 1.18798 3.56489 1.18663 3.56951 1.18396C3.58631 1.17415 3.59992 1.15036 3.59986 1.13083Z" fill="#6BB5FB"/>
<path d="M3.19234 1.34936L2.55792 0.979018C2.54475 0.971348 2.52832 0.980934 2.52832 0.996275V1.12738C2.52832 1.14162 2.53589 1.15477 2.54807 1.16189L3.18249 1.53221C3.1956 1.53988 3.21203 1.5303 3.21203 1.51495V1.38387C3.21203 1.36963 3.20452 1.35647 3.19234 1.34936Z" fill="#3955D1"/>
<path d="M3.45121 1.38239C3.43442 1.3922 3.42084 1.416 3.4209 1.43552L3.42151 1.59413C3.42151 1.61366 3.43522 1.62153 3.452 1.61172C3.46879 1.60191 3.48237 1.57813 3.48231 1.5586L3.4817 1.39998C3.48164 1.38046 3.46799 1.37258 3.45121 1.38239Z" fill="#1B2A4F"/>
<path d="M3.46698 1.551L3.46637 1.39238C3.46637 1.38655 3.46514 1.38178 3.46298 1.37819C3.47339 1.37774 3.48065 1.38577 3.48071 1.39998L3.48133 1.5586C3.48139 1.57812 3.46778 1.60192 3.45098 1.61173C3.43916 1.61861 3.42894 1.61677 3.42383 1.60831C3.42771 1.60814 3.43208 1.60679 3.43663 1.60412C3.45344 1.59431 3.46705 1.57052 3.46698 1.551Z" fill="#6BB5FB"/>
<path d="M3.97757 1.07307C3.96079 1.08288 3.9472 1.10667 3.94727 1.1262L3.94788 1.28483C3.94788 1.30436 3.96159 1.31224 3.97837 1.30242C3.99515 1.29261 4.00874 1.26882 4.00868 1.2493L4.00806 1.09066C4.008 1.07113 3.99436 1.06326 3.97757 1.07307Z" fill="#1B2A4F"/>
<path d="M3.99433 1.24142L3.99377 1.0828C3.99371 1.07699 3.99248 1.07222 3.99033 1.06862C4.00079 1.06817 4.008 1.0762 4.00806 1.09041L4.00867 1.24903C4.00873 1.26855 3.99513 1.29234 3.97832 1.30215C3.9665 1.30904 3.95628 1.3072 3.95117 1.29874C3.95505 1.29857 3.95942 1.29722 3.96398 1.29455C3.98085 1.28474 3.99439 1.26095 3.99433 1.24142Z" fill="#6BB5FB"/>
<path d="M3.84578 1.15046C3.82897 1.16027 3.81537 1.18406 3.81543 1.20359L3.81605 1.3622C3.81611 1.38173 3.82977 1.38961 3.84664 1.3798C3.86345 1.36998 3.87699 1.3462 3.87699 1.32667L3.87638 1.16805C3.87631 1.14853 3.86265 1.14065 3.84578 1.15046Z" fill="#1B2A4F"/>
<path d="M3.86247 1.31907L3.86185 1.16044C3.86185 1.15463 3.86062 1.14985 3.85847 1.14626C3.86887 1.14581 3.87613 1.15384 3.87619 1.16804L3.8768 1.32667C3.8768 1.3462 3.86327 1.36999 3.84647 1.3798C3.83466 1.38669 3.82438 1.38485 3.81934 1.37638C3.82321 1.37622 3.82758 1.37487 3.83213 1.3722C3.84893 1.36239 3.86253 1.3386 3.86247 1.31907Z" fill="#6BB5FB"/>
<path d="M3.71494 1.22761C3.69812 1.23742 3.68451 1.26121 3.68457 1.28073L3.68519 1.43935C3.68525 1.45888 3.69892 1.46675 3.71574 1.45694C3.73255 1.44713 3.74617 1.42334 3.7461 1.40382L3.74549 1.2452C3.74543 1.22568 3.73175 1.2178 3.71494 1.22761Z" fill="#1B2A4F"/>
<path d="M3.73072 1.39646L3.7301 1.23783C3.7301 1.23201 3.72887 1.22724 3.72665 1.22365C3.73712 1.2232 3.74439 1.23123 3.74439 1.24544L3.745 1.40406C3.74506 1.42359 3.73146 1.44738 3.71465 1.45719C3.70283 1.46407 3.69261 1.46224 3.6875 1.45378C3.69144 1.45361 3.69575 1.45226 3.70037 1.44958C3.71717 1.43977 3.73078 1.41598 3.73072 1.39646Z" fill="#6BB5FB"/>
<path d="M3.58206 1.30525C3.56528 1.31506 3.5517 1.33884 3.55176 1.35837L3.55237 1.51698C3.55243 1.53651 3.56608 1.54438 3.58286 1.53457C3.59965 1.52476 3.61323 1.50097 3.61317 1.48145L3.61256 1.32284C3.61249 1.30331 3.59885 1.29544 3.58206 1.30525Z" fill="#1B2A4F"/>
<path d="M3.59986 1.47361L3.59924 1.31498C3.59924 1.30916 3.59795 1.30439 3.5958 1.3008C3.60626 1.30035 3.61353 1.30838 3.61353 1.32259L3.61414 1.48122C3.6142 1.50074 3.6006 1.52453 3.58379 1.53434C3.57197 1.54123 3.56175 1.53939 3.55664 1.53093C3.56058 1.53076 3.56489 1.52941 3.56951 1.52674C3.58631 1.51693 3.59992 1.49314 3.59986 1.47361Z" fill="#6BB5FB"/>
<path d="M3.19234 1.69239L2.55792 1.32204C2.54475 1.31437 2.52832 1.32395 2.52832 1.33929V1.4704C2.52832 1.48463 2.53589 1.49779 2.54807 1.50491L3.18249 1.87524C3.1956 1.88291 3.21203 1.87332 3.21203 1.85798V1.7269C3.21203 1.71266 3.20452 1.6995 3.19234 1.69239Z" fill="#3955D1"/>
<path d="M3.45121 1.72517C3.43442 1.73498 3.42084 1.75877 3.4209 1.77829L3.42151 1.93691C3.42151 1.95643 3.43522 1.96431 3.452 1.9545C3.46879 1.94469 3.48237 1.92091 3.48231 1.90138L3.4817 1.74276C3.48164 1.72324 3.46799 1.71536 3.45121 1.72517Z" fill="#1B2A4F"/>
<path d="M3.46698 1.89377L3.46637 1.73515C3.46637 1.72933 3.46514 1.72455 3.46298 1.72097C3.47339 1.72051 3.48065 1.72855 3.48071 1.74275L3.48133 1.90137C3.48139 1.9209 3.46778 1.94469 3.45098 1.9545C3.43916 1.96138 3.42894 1.95954 3.42383 1.95108C3.42771 1.95091 3.43208 1.94956 3.43663 1.94689C3.45344 1.93708 3.46705 1.91329 3.46698 1.89377Z" fill="#6BB5FB"/>
<path d="M3.97757 1.4156C3.96079 1.4254 3.9472 1.44919 3.94727 1.46871L3.94788 1.62733C3.94788 1.64685 3.96159 1.65473 3.97837 1.64492C3.99515 1.63511 4.00874 1.61132 4.00868 1.59179L4.00806 1.43319C4.008 1.41366 3.99436 1.40579 3.97757 1.4156Z" fill="#1B2A4F"/>
<path d="M3.99433 1.58443L3.99377 1.42582C3.99371 1.42001 3.99248 1.41523 3.99033 1.41164C4.00079 1.41119 4.008 1.41922 4.00806 1.43342L4.00867 1.59203C4.00873 1.61155 3.99513 1.63535 3.97832 1.64515C3.9665 1.65204 3.95628 1.6502 3.95117 1.64174C3.95505 1.64157 3.95942 1.64022 3.96398 1.63755C3.98085 1.62774 3.99439 1.60395 3.99433 1.58443Z" fill="#6BB5FB"/>
<path d="M3.84578 1.49323C3.82897 1.50304 3.81537 1.52683 3.81543 1.54636L3.81605 1.70497C3.81611 1.72449 3.82977 1.73237 3.84664 1.72256C3.86345 1.71275 3.87699 1.68897 3.87699 1.66944L3.87638 1.51083C3.87631 1.4913 3.86265 1.48342 3.84578 1.49323Z" fill="#1B2A4F"/>
<path d="M3.86247 1.66184L3.86185 1.50322C3.86185 1.4974 3.86062 1.49262 3.85847 1.48903C3.86887 1.48858 3.87613 1.49661 3.87619 1.51082L3.8768 1.66944C3.8768 1.68897 3.86327 1.71276 3.84647 1.72257C3.83466 1.72945 3.82438 1.72761 3.81934 1.71915C3.82321 1.71898 3.82758 1.71763 3.83213 1.71496C3.84893 1.70515 3.86253 1.68136 3.86247 1.66184Z" fill="#6BB5FB"/>
<path d="M3.71494 1.57063C3.69812 1.58044 3.68451 1.60422 3.68457 1.62375L3.68519 1.78236C3.68525 1.80188 3.69892 1.80977 3.71574 1.79996C3.73255 1.79015 3.74617 1.76636 3.7461 1.74683L3.74549 1.58822C3.74543 1.5687 3.73175 1.56082 3.71494 1.57063Z" fill="#1B2A4F"/>
<path d="M3.73072 1.73923L3.7301 1.5806C3.7301 1.57479 3.72887 1.57001 3.72665 1.56642C3.73712 1.56597 3.74439 1.574 3.74439 1.58821L3.745 1.74684C3.74506 1.76636 3.73146 1.79015 3.71465 1.79996C3.70283 1.80685 3.69261 1.80501 3.6875 1.79655C3.69144 1.79638 3.69575 1.79503 3.70037 1.79236C3.71717 1.78255 3.73078 1.75876 3.73072 1.73923Z" fill="#6BB5FB"/>
<path d="M3.58206 1.64802C3.56528 1.65783 3.5517 1.68162 3.55176 1.70114L3.55237 1.85975C3.55243 1.87927 3.56608 1.88715 3.58286 1.87734C3.59965 1.86753 3.61323 1.84374 3.61317 1.82422L3.61256 1.66561C3.61249 1.64608 3.59885 1.63821 3.58206 1.64802Z" fill="#1B2A4F"/>
<path d="M3.59986 1.81638L3.59924 1.65776C3.59924 1.65194 3.59795 1.64716 3.5958 1.64357C3.60626 1.64312 3.61353 1.65116 3.61353 1.66536L3.61414 1.82398C3.6142 1.8435 3.6006 1.86729 3.58379 1.8771C3.57197 1.88399 3.56175 1.88215 3.55664 1.87369C3.56058 1.87352 3.56489 1.87217 3.56951 1.8695C3.58631 1.85968 3.59992 1.8359 3.59986 1.81638Z" fill="#6BB5FB"/>
<path d="M3.19234 2.03514L2.55792 1.66481C2.54475 1.65714 2.52832 1.66672 2.52832 1.68206V1.81316C2.52832 1.8274 2.53589 1.84056 2.54807 1.84768L3.18249 2.21799C3.1956 2.22566 3.21203 2.21607 3.21203 2.20073V2.06965C3.21203 2.05541 3.20452 2.04226 3.19234 2.03514Z" fill="#3955D1"/>
<path d="M3.45121 2.06818C3.43442 2.07799 3.42084 2.10179 3.4209 2.12131L3.42151 2.27994C3.42151 2.29947 3.43522 2.30734 3.452 2.29753C3.46879 2.28772 3.48237 2.26393 3.48231 2.2444L3.4817 2.08577C3.48164 2.06625 3.46799 2.05838 3.45121 2.06818Z" fill="#1B2A4F"/>
<path d="M3.46698 2.23679L3.46637 2.07816C3.46637 2.07234 3.46514 2.06757 3.46298 2.06398C3.47339 2.06353 3.48065 2.07156 3.48071 2.08577L3.48133 2.24439C3.48139 2.26392 3.46778 2.28771 3.45098 2.29752C3.43916 2.30441 3.42894 2.30257 3.42383 2.29411C3.42771 2.29394 3.43208 2.29259 3.43663 2.28992C3.45344 2.28011 3.46705 2.25632 3.46698 2.23679Z" fill="#6BB5FB"/>
<path d="M3.97757 1.75861C3.96079 1.76842 3.9472 1.79222 3.94727 1.81174L3.94788 1.97035C3.94788 1.98988 3.96159 1.99775 3.97837 1.98794C3.99515 1.97813 4.00874 1.95435 4.00868 1.93482L4.00806 1.77621C4.008 1.75669 3.99436 1.7488 3.97757 1.75861Z" fill="#1B2A4F"/>
<path d="M3.99433 1.92723L3.99377 1.7686C3.99371 1.76277 3.99248 1.758 3.99033 1.75441C4.00079 1.75396 4.008 1.76199 4.00806 1.7762L4.00867 1.93483C4.00873 1.95435 3.99513 1.97815 3.97832 1.98796C3.9665 1.99485 3.95628 1.993 3.95117 1.98454C3.95505 1.98437 3.95942 1.98302 3.96398 1.98035C3.98085 1.97054 3.99439 1.94675 3.99433 1.92723Z" fill="#6BB5FB"/>
<path d="M3.84578 1.83601C3.82897 1.84582 3.81537 1.86961 3.81543 1.88913L3.81605 2.04775C3.81611 2.06727 3.82977 2.07515 3.84664 2.06534C3.86345 2.05553 3.87699 2.03174 3.87699 2.01221L3.87638 1.8536C3.87631 1.83408 3.86265 1.8262 3.84578 1.83601Z" fill="#1B2A4F"/>
<path d="M3.86247 2.00461L3.86185 1.84599C3.86185 1.84017 3.86062 1.83539 3.85847 1.83181C3.86887 1.83135 3.87613 1.83938 3.87619 1.85359L3.8768 2.01221C3.8768 2.03173 3.86327 2.05553 3.84647 2.06534C3.83466 2.07223 3.82438 2.07038 3.81934 2.06192C3.82321 2.06176 3.82758 2.06041 3.83213 2.05773C3.84893 2.04792 3.86253 2.02413 3.86247 2.00461Z" fill="#6BB5FB"/>
<path d="M3.71494 1.9134C3.69812 1.92321 3.68451 1.94701 3.68457 1.96653L3.68519 2.12516C3.68525 2.14469 3.69892 2.15257 3.71574 2.14276C3.73255 2.13295 3.74617 2.10916 3.7461 2.08963L3.74549 1.93099C3.74543 1.91147 3.73175 1.90359 3.71494 1.9134Z" fill="#1B2A4F"/>
<path d="M3.73072 2.08199L3.7301 1.92338C3.7301 1.91756 3.72887 1.91279 3.72665 1.9092C3.73712 1.90874 3.74439 1.91677 3.74439 1.93098L3.745 2.08959C3.74506 2.10911 3.73146 2.1329 3.71465 2.1427C3.70283 2.1496 3.69261 2.14775 3.6875 2.13929C3.69144 2.13913 3.69575 2.13778 3.70037 2.1351C3.71717 2.12529 3.73078 2.10151 3.73072 2.08199Z" fill="#6BB5FB"/>
<path d="M3.58206 1.99079C3.56528 2.0006 3.5517 2.0244 3.55176 2.04392L3.55237 2.20253C3.55243 2.22206 3.56608 2.22994 3.58286 2.22012C3.59965 2.21031 3.61323 2.18653 3.61317 2.167L3.61256 2.00839C3.61249 1.98886 3.59885 1.98098 3.58206 1.99079Z" fill="#1B2A4F"/>
<path d="M3.59986 2.1594L3.59924 2.00077C3.59924 1.99495 3.59795 1.99018 3.5958 1.98659C3.60626 1.98614 3.61353 1.99417 3.61353 2.00837L3.61414 2.167C3.6142 2.18653 3.6006 2.21032 3.58379 2.22013C3.57197 2.22702 3.56175 2.22517 3.55664 2.21672C3.56058 2.21655 3.56489 2.2152 3.56951 2.21253C3.58631 2.20272 3.59992 2.17893 3.59986 2.1594Z" fill="#6BB5FB"/>
</svg>
