<svg height="464pt" viewBox="0 0 464 464" width="464pt" xmlns="http://www.w3.org/2000/svg"><path d="m432 192h-400c-17.671875 0-32 14.328125-32 32v136c0 17.671875 14.328125 32 32 32h68.960938l27.039062-32h208l29.519531 32h66.480469c17.671875 0 32-14.328125 32-32v-136c0-17.671875-14.328125-32-32-32zm0 0" fill="#f9e109"/><path d="m152 312c-53.019531 0-96-42.980469-96-96v-24h-24c-17.671875 0-32 14.328125-32 32v136c0 17.671875 14.328125 32 32 32h68.960938l27.039062-32h208l29.519531 32h66.480469c17.671875 0 32-14.328125 32-32v-48zm0 0" fill="#fcbc04"/><path d="m432 464h-392l88-104h208zm0 0" fill="#4891d3"/><path d="m358.160156 384-22.160156-24h-208l-20.320312 24zm0 0" fill="#2d72bc"/><path d="m264 440h-136c-4.417969 0-8-3.582031-8-8s3.582031-8 8-8h136c4.417969 0 8 3.582031 8 8s-3.582031 8-8 8zm0 0" fill="#a1d51c"/><path d="m344 440h-32c-4.417969 0-8-3.582031-8-8s3.582031-8 8-8h32c4.417969 0 8 3.582031 8 8s-3.582031 8-8 8zm0 0" fill="#a1d51c"/><path d="m184 408h-40c-4.417969 0-8-3.582031-8-8s3.582031-8 8-8h40c4.417969 0 8 3.582031 8 8s-3.582031 8-8 8zm0 0" fill="#a1d51c"/><path d="m312 408h-88c-4.417969 0-8-3.582031-8-8s3.582031-8 8-8h88c4.417969 0 8 3.582031 8 8s-3.582031 8-8 8zm0 0" fill="#a1d51c"/><path d="m128 360h208l29.519531 32h26.480469v-40c0-13.253906-10.746094-24-24-24h-280c-8.835938 0-16 7.164062-16 16v48h28.960938zm0 0" fill="#e59730"/><path d="m144 0h136c26.507812 0 48 21.492188 48 48v144h-192v-184c0-4.417969 3.582031-8 8-8zm0 0" fill="#4891d3"/><path d="m280 0h-8l-6.71875 53.761719c-.320312 2.457031.523438 4.925781 2.277344 6.679687s4.222656 2.597656 6.679687 2.277344l53.761719-6.71875v-8c0-26.507812-21.492188-48-48-48zm0 0" fill="#2d72bc"/><path d="m320 168c-88.367188 0-160-71.632812-160-160v-8h-16c-4.417969 0-8 3.582031-8 8v184h192v-24zm0 0" fill="#2d72bc"/><path d="m104 48h32v96h-48v-80c0-8.835938 7.164062-16 16-16zm0 0" fill="#fcbc04"/><path d="m112 144h24v-96zm0 0" fill="#e59730"/><path d="m56 144h80v48h-96v-32c0-8.835938 7.164062-16 16-16zm0 0" fill="#a1d51c"/><path d="m328 48h32c8.835938 0 16 7.164062 16 16v80h-48zm0 0" fill="#fcbc04"/><path d="m328 144h80c8.835938 0 16 7.164062 16 16v32h-96zm0 0" fill="#a1d51c"/><path d="m48 224h368c4.417969 0 8 3.582031 8 8v48c0 4.417969-3.582031 8-8 8h-368c-4.417969 0-8-3.582031-8-8v-48c0-4.417969 3.582031-8 8-8zm0 0" fill="#4891d3"/><path d="m416 224h-368c-4.417969 0-8 3.582031-8 8v8h360c4.417969 0 8 3.582031 8 8v40h8c4.417969 0 8-3.582031 8-8v-48c0-4.417969-3.582031-8-8-8zm0 0" fill="#2d72bc"/><path d="m56.398438 224h-8.398438c-4.417969 0-8 3.582031-8 8v48c0 4.417969 3.582031 8 8 8h40.640625c-18.605469-16.371094-30.15625-39.304688-32.242187-64zm0 0" fill="#2d72bc"/><g fill="#a1d51c"><path d="m136 264h-56c-4.417969 0-8-3.582031-8-8s3.582031-8 8-8h56c4.417969 0 8 3.582031 8 8s-3.582031 8-8 8zm0 0"/><path d="m192 264h-24c-4.417969 0-8-3.582031-8-8s3.582031-8 8-8h24c4.417969 0 8 3.582031 8 8s-3.582031 8-8 8zm0 0"/><path d="m328 264h-32c-4.417969 0-8-3.582031-8-8s3.582031-8 8-8h32c4.417969 0 8 3.582031 8 8s-3.582031 8-8 8zm0 0"/><path d="m368 256c0 4.417969-3.582031 8-8 8s-8-3.582031-8-8 3.582031-8 8-8 8 3.582031 8 8zm0 0"/><path d="m400 256c0 4.417969-3.582031 8-8 8s-8-3.582031-8-8 3.582031-8 8-8 8 3.582031 8 8zm0 0"/></g><path d="m280 0c26.507812 0 48 21.492188 48 48h-40c-4.417969 0-8-3.582031-8-8zm0 0" fill="#57b7eb"/><path d="m96 192h40v-48h-24zm0 0" fill="#7ab92d"/><path d="m360 48h-16v32c-.15625 19.128906 13.253906 35.695312 32 39.519531v-55.199219c.085938-4.300781-1.5625-8.453124-4.570312-11.519531-3.011719-3.070312-7.128907-4.800781-11.429688-4.800781zm0 0" fill="#f9e109"/><path d="m400 168h24v-8c0-8.835938-7.164062-16-16-16h-32c0 13.253906 10.746094 24 24 24zm0 0" fill="#c4f236"/></svg>