<?xml version="1.0" encoding="iso-8859-1"?>
<!-- Generator: Adobe Illustrator 19.0.0, SVG Export Plug-In . SVG Version: 6.00 Build 0)  -->
<svg version="1.1" id="Capa_1" xmlns="http://www.w3.org/2000/svg" xmlns:xlink="http://www.w3.org/1999/xlink" x="0px" y="0px"
	 viewBox="0 0 409.6 409.6" style="enable-background:new 0 0 409.6 409.6;" xml:space="preserve">
<circle style="fill:#EFC84A;" cx="204.8" cy="204.8" r="204.8"/>
<path style="opacity:0.1;enable-background:new    ;" d="M407.758,231.913L276.46,100.614h-1.621l-13.141-13.141H148.972v13.141
	h-12.117v41.557h-28.416c-1.109,0-1.963,0.854-1.963,1.963v123.435c0,0.493,0.189,0.929,0.473,1.278l-0.011,0.004l0.038,0.038
	c0.055,0.065,0.114,0.12,0.177,0.177l38.224,38.223l-13.582-7.421h-5.948v7.638l100.909,100.908
	C320.591,398.409,395.433,325.035,407.758,231.913z"/>
<rect x="201" y="260.48" style="fill:#E56353;" width="7.629" height="32.414"/>
<rect x="136.87" y="100.63" style="fill:#3A556A;" width="139.57" height="43.507"/>
<path style="fill:#64798A;" d="M303.121,144.143v123.445c0,1.106-0.908,1.975-1.975,1.975H108.454c-1.106,0-1.975-0.869-1.975-1.975
	V144.143c0-1.106,0.869-1.975,1.975-1.975h192.692C302.213,142.168,303.121,143.037,303.121,144.143z"/>
<rect x="136.21" y="217.59" style="fill:#3A556A;" width="138.26" height="52.08"/>
<rect x="149.38" y="218.84" style="fill:#D5D6DB;" width="111.92" height="57.42"/>
<circle style="fill:#D15241;" cx="272.43" cy="162.43" r="8.789"/>
<circle style="fill:#FCD462;" cx="249.47" cy="162.43" r="8.789"/>
<rect x="148.97" y="87.47" style="fill:#D5D6DB;" width="112.75" height="54.703"/>
<g>
	<rect x="162.56" y="97.37" style="fill:#64798A;" width="88.22" height="8.576"/>
	<rect x="162.56" y="113.83" style="fill:#64798A;" width="88.22" height="8.576"/>
</g>
<rect x="189.44" y="289.07" style="fill:#D5D6DB;" width="30.507" height="29.24"/>
<g>
	<path style="fill:#E56353;" d="M223.743,322.133h-38.136v-36.866h38.136V322.133z M193.235,314.506h22.882v-21.612h-22.882V314.506
		z"/>
	<rect x="125.86" y="299.9" style="fill:#E56353;" width="63.56" height="7.629"/>
	<rect x="221.84" y="299.9" style="fill:#E56353;" width="59.38" height="7.629"/>
</g>
<g>
</g>
<g>
</g>
<g>
</g>
<g>
</g>
<g>
</g>
<g>
</g>
<g>
</g>
<g>
</g>
<g>
</g>
<g>
</g>
<g>
</g>
<g>
</g>
<g>
</g>
<g>
</g>
<g>
</g>
</svg>
