<svg width="13" height="12" viewBox="0 0 13 12" fill="none" xmlns="http://www.w3.org/2000/svg">
<path d="M11.8437 3.09806C11.8437 3.09806 11.6535 3.0188 11.0485 3.30385C10.4434 3.5889 10.3679 3.55288 10.2113 3.51002C10.0547 3.46716 9.96738 3.45608 9.79948 3.21795C9.79948 3.21795 9.68102 2.55825 9.56579 2.45591C9.45056 2.35356 8.96413 2.51428 8.96413 2.51428C8.96413 2.51428 8.38009 2.65191 8.26882 1.84923C8.26882 1.84923 8.34773 1.24476 8.24023 1.05929C8.24023 1.05929 8.45739 1.15535 8.81547 1.00017C9.17355 0.84499 9.46027 1.16736 9.46027 1.16736C9.46027 1.16736 9.55015 1.40752 9.54116 1.55087C9.53217 1.69423 9.58898 1.74799 9.75975 1.67871C9.75975 1.67871 9.8437 1.55605 9.72488 1.3532C9.60606 1.15036 9.52121 0.999431 9.55429 0.842034C9.58736 0.684638 9.68281 0.466092 9.98931 0.356914C10.2958 0.247734 10.7119 0.227597 10.9117 0.141325C11.1114 0.055052 11.1606 0 11.1606 0C11.1606 0 11.0377 0.126546 11.3273 0.663208C11.6169 1.19987 11.4322 1.43264 11.4322 1.43264C11.4322 1.43264 11.2782 1.81006 10.598 1.7794C10.598 1.7794 9.94257 1.80397 10.2999 2.08957C10.2999 2.08957 10.5288 2.04172 10.8709 1.92996C11.2129 1.81819 11.4599 2.27948 11.5212 2.60037C11.5825 2.92126 11.8437 3.09806 11.8437 3.09806Z" fill="#6C63FF"/>
<path d="M10.9616 0.406382L10.9652 0.405273C10.9914 0.507618 10.6986 0.919215 10.4482 1.24639L10.4453 1.24398C10.7984 0.783247 10.9819 0.485635 10.9616 0.406382Z" fill="#444053"/>
<path d="M10.4509 1.23755L10.4526 1.24161C10.2525 1.50284 10.001 1.81431 9.79968 2.04579C9.78045 2.06778 9.76139 2.09087 9.74306 2.11451L9.7373 2.10971C9.75528 2.08606 9.77487 2.06279 9.79411 2.0408C9.99526 1.81025 10.2507 1.49896 10.4509 1.23755Z" fill="#444053"/>
<path d="M9.74219 2.104L9.74615 2.11102C9.37981 2.58118 9.35554 3.31182 9.35464 3.31755L9.27734 3.22518C9.27824 3.21927 9.37333 2.57749 9.74219 2.104Z" fill="#444053"/>
<path d="M11.4196 2.84298C11.4196 2.84298 10.9882 2.61206 10.6509 2.69519C10.3137 2.77832 9.55533 2.40145 9.55533 2.40145C9.55533 2.40145 9.23356 2.26715 9.16885 2.114C9.16885 2.114 8.94793 1.87384 8.93517 1.74988C8.9224 1.62592 8.70759 1.31352 8.56738 1.30151" stroke="#444053" stroke-miterlimit="10"/>
<path d="M11.3544 3.06525C11.3544 3.06525 11.1369 2.91451 11.1622 2.73901" stroke="#444053" stroke-miterlimit="10"/>
<path d="M11.0212 3.25993C11.0212 3.25993 10.7101 3.14392 10.6797 2.68872" stroke="#444053" stroke-miterlimit="10"/>
<path d="M10.5215 3.37784C10.5215 3.37784 10.2241 3.12439 10.3228 2.6814" stroke="#444053" stroke-miterlimit="10"/>
<path d="M9.917 3.25397C9.917 3.25397 9.7192 2.82722 9.89524 2.54956" stroke="#444053" stroke-miterlimit="10"/>
<path d="M11.4227 2.56152C11.4227 2.56152 11.1979 2.63542 11.246 2.75661" stroke="#444053" stroke-miterlimit="10"/>
<path d="M11.1509 2.14307C11.1509 2.14307 10.8498 2.24116 10.8428 2.67881" stroke="#444053" stroke-miterlimit="10"/>
<path d="M10.7317 2.04102C10.7317 2.04102 10.4575 2.3887 10.4776 2.70461" stroke="#444053" stroke-miterlimit="10"/>
<path d="M10.2513 2.17725C10.2513 2.17725 9.9791 2.44476 10.0138 2.59348" stroke="#444053" stroke-miterlimit="10"/>
<path d="M10.0879 2.08311C10.0879 2.08311 9.83265 2.13003 9.79688 2.04395" stroke="#444053" stroke-miterlimit="10"/>
<path d="M9.75684 1.76636C9.75684 1.76636 9.88572 1.94186 9.91862 1.90251" stroke="#444053" stroke-miterlimit="10"/>
<path d="M11.0352 1.65515C11.0352 1.65515 10.3917 1.70318 10.2461 1.50366" stroke="#444053" stroke-miterlimit="10"/>
<path d="M9.62207 0.881836C9.62207 0.881836 9.92388 1.54782 10.1434 1.63261" stroke="#444053" stroke-miterlimit="10"/>
<path d="M9.93652 0.564697C9.93652 0.564697 10.1219 1.17729 10.3516 1.36849" stroke="#444053" stroke-miterlimit="10"/>
<path d="M11.3045 1.14931C11.3045 1.14931 10.8152 1.36507 10.5215 1.14673" stroke="#444053" stroke-width="0.75" stroke-miterlimit="10"/>
<path d="M10.3721 0.433838C10.3721 0.433838 10.4839 0.884049 10.6345 0.992861" stroke="#444053" stroke-width="0.75" stroke-miterlimit="10"/>
<path d="M11.231 0.64502C11.231 0.64502 10.956 0.752167 10.8535 0.670144" stroke="#444053" stroke-width="0.75" stroke-miterlimit="10"/>
<path d="M9.52089 1.91333C9.52089 1.91333 9.52089 2.3059 9.41699 2.33379" stroke="#444053" stroke-miterlimit="10"/>
<path d="M8.6709 2.42172C8.6709 2.42172 9.08434 2.45866 9.27434 2.23901" stroke="#444053" stroke-miterlimit="10"/>
<path d="M9.41468 1.44946C9.41468 1.44946 9.31475 1.84757 9.03906 1.95491" stroke="#444053" stroke-miterlimit="10"/>
<path d="M8.42383 2.00252C8.42383 2.00252 8.71611 2.10689 8.96759 1.84106" stroke="#444053" stroke-miterlimit="10"/>
<path d="M9.09015 1.10718C9.09015 1.10718 9.06265 1.44525 8.88379 1.60357" stroke="#444053" stroke-miterlimit="10"/>
<path d="M8.43555 1.48758C8.43555 1.48758 8.67804 1.48925 8.73484 1.40796" stroke="#444053" stroke-miterlimit="10"/>
<path d="M10.1885 2.771H3.28223V6.35379H10.1885V2.771Z" fill="#33323D"/>
<path d="M12.3607 7.44214H1.12988V9.80053H12.3607V7.44214Z" fill="#33323D"/>
<path d="M3.81021 8.03174H9.56906L10.7164 12.0001H2.59668L3.81021 8.03174Z" fill="white"/>
<path d="M0.810547 6.03589V7.26053V7.51842V9.80014H2.96189V7.62336H10.5301V9.80014H12.6814V7.51842V7.26053V6.03589H0.810547Z" fill="#504F60"/>
<path opacity="0.1" d="M12.6814 6.03589H0.810547V7.26033H12.6814V6.03589Z" fill="#33323D"/>
<path opacity="0.8" d="M12.0418 6.83033C12.1392 6.83033 12.2183 6.7491 12.2183 6.64893C12.2183 6.54875 12.1392 6.46753 12.0418 6.46753C11.9443 6.46753 11.8652 6.54875 11.8652 6.64893C11.8652 6.7491 11.9443 6.83033 12.0418 6.83033Z" fill="#8CCF4D"/>
<path opacity="0.8" d="M11.2469 6.83033C11.3444 6.83033 11.4234 6.7491 11.4234 6.64893C11.4234 6.54875 11.3444 6.46753 11.2469 6.46753C11.1494 6.46753 11.0703 6.54875 11.0703 6.64893C11.0703 6.7491 11.1494 6.83033 11.2469 6.83033Z" fill="#FA5959"/>
<path d="M9.9349 1.90942H3.53613V5.80961H9.9349V1.90942Z" fill="white"/>
<path d="M10.9072 7.60197C10.9207 7.7529 10.8098 7.8994 10.8422 8.04719C10.849 8.07878 10.8623 8.10871 10.8671 8.13956C10.8804 8.22731 10.8296 8.31044 10.7809 8.38397L10.3633 9.01541C10.3465 9.0431 10.3265 9.06856 10.3036 9.09115C10.2236 9.16505 10.1039 9.15655 9.9991 9.17835C9.92542 9.1937 9.85584 9.2252 9.79508 9.27072C9.79244 9.27288 9.79067 9.27598 9.79019 9.2794C9.78969 9.28284 9.79046 9.28633 9.79238 9.28919C9.80966 9.31354 9.83259 9.33307 9.85909 9.34598C9.88559 9.35889 9.91481 9.36477 9.9441 9.36309C9.95506 9.37787 9.9441 9.40004 9.929 9.41038C9.90653 9.42627 9.87507 9.43052 9.8713 9.46968C9.86971 9.48328 9.87236 9.49706 9.87884 9.50903C9.89574 9.53549 9.92197 9.55416 9.95201 9.56113C10.0958 9.60657 10.2527 9.52677 10.361 9.41814C10.4692 9.30951 10.5468 9.17244 10.6531 9.06178C10.7118 9.00063 10.7789 8.94816 10.8393 8.88886C10.9601 8.77063 11.055 8.62672 11.1449 8.48244C11.1745 8.44059 11.1969 8.39378 11.211 8.34407C11.2222 8.29493 11.2171 8.24301 11.2301 8.19424C11.247 8.13051 11.2924 8.0797 11.3302 8.02613C11.4044 7.9212 11.4539 7.79299 11.444 7.66367C11.4341 7.53435 11.3564 7.40707 11.2378 7.3631C11.201 7.34804 11.1605 7.34551 11.1222 7.3559C11.0735 7.37123 11.0377 7.41261 11.0045 7.45214L10.9252 7.54618C10.9054 7.567 10.8898 7.59151 10.879 7.61841C10.8739 7.63197 10.8727 7.64675 10.8756 7.66099C10.8785 7.67522 10.8854 7.68828 10.8954 7.69859" fill="#FBBEBE"/>
<path opacity="0.05" d="M10.9072 7.60197C10.9207 7.7529 10.8098 7.8994 10.8422 8.04719C10.849 8.07878 10.8623 8.10871 10.8671 8.13956C10.8804 8.22731 10.8296 8.31044 10.7809 8.38397L10.3633 9.01541C10.3465 9.0431 10.3265 9.06856 10.3036 9.09115C10.2236 9.16505 10.1039 9.15655 9.9991 9.17835C9.92542 9.1937 9.85584 9.2252 9.79508 9.27072C9.79244 9.27288 9.79067 9.27598 9.79019 9.2794C9.78969 9.28284 9.79046 9.28633 9.79238 9.28919C9.80966 9.31354 9.83259 9.33307 9.85909 9.34598C9.88559 9.35889 9.91481 9.36477 9.9441 9.36309C9.95506 9.37787 9.9441 9.40004 9.929 9.41038C9.90653 9.42627 9.87507 9.43052 9.8713 9.46968C9.86971 9.48328 9.87236 9.49706 9.87884 9.50903C9.89574 9.53549 9.92197 9.55416 9.95201 9.56113C10.0958 9.60657 10.2527 9.52677 10.361 9.41814C10.4692 9.30951 10.5468 9.17244 10.6531 9.06178C10.7118 9.00063 10.7789 8.94816 10.8393 8.88886C10.9601 8.77063 11.055 8.62672 11.1449 8.48244C11.1745 8.44059 11.1969 8.39378 11.211 8.34407C11.2222 8.29493 11.2171 8.24301 11.2301 8.19424C11.247 8.13051 11.2924 8.0797 11.3302 8.02613C11.4044 7.9212 11.4539 7.79299 11.444 7.66367C11.4341 7.53435 11.3564 7.40707 11.2378 7.3631C11.201 7.34804 11.1605 7.34551 11.1222 7.3559C11.0735 7.37123 11.0377 7.41261 11.0045 7.45214L10.9252 7.54618C10.9054 7.567 10.8898 7.59151 10.879 7.61841C10.8739 7.63197 10.8727 7.64675 10.8756 7.66099C10.8785 7.67522 10.8854 7.68828 10.8954 7.69859" fill="black"/>
<path d="M11.2235 11.4864C11.1322 11.5435 11.0186 11.5472 10.9125 11.5337C10.8945 11.5316 10.8753 11.5303 10.8643 11.5438C10.8485 11.5636 10.8672 11.5924 10.8864 11.6083C10.9491 11.6565 11.0226 11.6876 11.1002 11.6986C11.1694 11.7086 11.2392 11.7133 11.309 11.7129C11.4996 11.7162 11.6912 11.7195 11.8799 11.6912C11.8908 11.6904 11.9014 11.6872 11.911 11.6818C11.9232 11.6731 11.9317 11.6599 11.9346 11.6449C11.9477 11.5946 11.9227 11.5403 11.8852 11.5054C11.8476 11.4705 11.7992 11.4509 11.752 11.4315L11.5862 11.3652C11.5472 11.3495 11.4848 11.3083 11.4424 11.3114C11.3649 11.3179 11.2893 11.4469 11.2235 11.4864Z" fill="#3F3D56"/>
<path opacity="0.05" d="M11.2235 11.4864C11.1322 11.5435 11.0186 11.5472 10.9125 11.5337C10.8945 11.5316 10.8753 11.5303 10.8643 11.5438C10.8485 11.5636 10.8672 11.5924 10.8864 11.6083C10.9491 11.6565 11.0226 11.6876 11.1002 11.6986C11.1694 11.7086 11.2392 11.7133 11.309 11.7129C11.4996 11.7162 11.6912 11.7195 11.8799 11.6912C11.8908 11.6904 11.9014 11.6872 11.911 11.6818C11.9232 11.6731 11.9317 11.6599 11.9346 11.6449C11.9477 11.5946 11.9227 11.5403 11.8852 11.5054C11.8476 11.4705 11.7992 11.4509 11.752 11.4315L11.5862 11.3652C11.5472 11.3495 11.4848 11.3083 11.4424 11.3114C11.3649 11.3179 11.2893 11.4469 11.2235 11.4864Z" fill="black"/>
<path d="M11.3397 9.22455C11.2709 9.31895 11.1993 9.42776 11.2164 9.5447C11.2256 9.60769 11.2599 9.6633 11.2851 9.72149C11.3166 9.80156 11.3399 9.88477 11.3546 9.96978C11.3805 10.0934 11.4064 10.2173 11.4222 10.3428C11.4402 10.4845 11.3557 10.8944 11.3478 11.0372C11.3458 11.0716 11.3421 11.1089 11.3187 11.1336C11.3095 11.1434 11.2973 11.1521 11.2934 11.1641C11.2908 11.1763 11.2928 11.1891 11.2987 11.2C11.3378 11.2903 11.4174 11.3573 11.5058 11.3958C11.5943 11.4342 11.8094 11.5002 11.9054 11.5037C11.9181 11.5053 11.9311 11.5035 11.943 11.4985C11.9559 11.4905 11.9661 11.4786 11.9721 11.4643C12.0415 11.3282 11.9748 10.8434 11.9759 10.6895C11.9759 10.5602 12.0062 10.4338 12.0008 10.3056C11.9963 10.2027 11.9696 10.1024 11.9599 9.99971C11.9439 9.83141 11.9739 9.66256 12.0041 9.4963C12.0271 9.36901 12.0501 9.24154 12.0796 9.11555C12.0975 9.03889 12.1184 8.9613 12.1596 8.89387C12.1921 8.84085 12.2363 8.7967 12.2735 8.74608C12.3766 8.60715 12.4224 8.43208 12.401 8.25874C12.3988 8.24174 12.1615 8.32062 12.1409 8.32986C12.0557 8.36707 11.9774 8.41892 11.9092 8.4832C11.8552 8.53677 11.8112 8.60863 11.763 8.66886C11.6951 8.75384 11.628 8.8395 11.5619 8.92583C11.4868 9.02498 11.4127 9.12455 11.3397 9.22455Z" fill="#464353"/>
<path opacity="0.05" d="M11.3397 9.21842C11.2709 9.31282 11.1993 9.42163 11.2164 9.53875C11.2256 9.60156 11.2599 9.65717 11.2851 9.71536C11.3166 9.79543 11.3399 9.87863 11.3546 9.96365C11.3805 10.0872 11.4064 10.2112 11.4222 10.3366C11.4402 10.4783 11.3557 10.8884 11.3478 11.0313C11.3458 11.0654 11.3421 11.1029 11.3187 11.1275C11.3095 11.1373 11.2973 11.146 11.2934 11.158C11.2906 11.1706 11.2925 11.1837 11.2987 11.1949C11.3378 11.2851 11.4174 11.3523 11.5058 11.3906C11.5943 11.4288 11.8094 11.4645 11.9054 11.4676C11.9181 11.4692 11.9311 11.4674 11.943 11.4624C11.9559 11.4545 11.9661 11.4425 11.9721 11.4283C12.0415 11.2921 11.9748 10.8382 11.9759 10.6845C11.9759 10.5552 12.0062 10.4286 12.0008 10.3004C11.9963 10.1975 11.9696 10.0972 11.9599 9.9945C11.9439 9.8262 11.9739 9.65735 12.0041 9.49127C12.0271 9.3638 12.0501 9.23633 12.0796 9.11034C12.0975 9.03368 12.1184 8.95609 12.1596 8.88866C12.1921 8.83582 12.2363 8.79149 12.2735 8.74198C12.3765 8.60298 12.4223 8.42798 12.401 8.25464C12.3988 8.23746 12.1615 8.31634 12.1409 8.32576C12.0556 8.363 11.9773 8.41499 11.9092 8.47946C11.8552 8.53322 11.8112 8.6049 11.763 8.6642C11.6951 8.74918 11.628 8.8349 11.5619 8.92136C11.4868 9.01988 11.4127 9.1189 11.3397 9.21842Z" fill="black"/>
<path d="M10.5716 7.14631C10.7853 7.14631 10.9586 6.96824 10.9586 6.74857C10.9586 6.5289 10.7853 6.35083 10.5716 6.35083C10.3578 6.35083 10.1846 6.5289 10.1846 6.74857C10.1846 6.96824 10.3578 7.14631 10.5716 7.14631Z" fill="#FBBEBE"/>
<path d="M10.9205 6.73155C10.9562 6.7902 11.0031 6.84088 11.0583 6.88054C11.1134 6.92022 11.1758 6.94808 11.2417 6.96247L11.2126 7.07091C11.1622 7.25805 11.1047 7.4559 10.965 7.58559C10.9803 7.52222 10.9606 7.45405 10.9257 7.39956C10.8884 7.34654 10.8442 7.29904 10.7943 7.25842L10.5715 7.05927C10.5649 7.05423 10.5592 7.04797 10.5548 7.0408C10.5494 7.0268 10.5494 7.0112 10.5548 6.9972C10.5832 6.9065 10.6643 6.84941 10.7299 6.78845C10.7629 6.75667 10.7925 6.72132 10.818 6.68296C10.8637 6.61775 10.8912 6.68296 10.9205 6.73155Z" fill="#FBBEBE"/>
<path d="M10.0615 6.34845L10.0528 6.27455C10.114 6.29081 10.1718 6.2376 10.2109 6.18218C10.2499 6.12676 10.2862 6.06174 10.3457 6.03883C10.4176 6.01075 10.4945 6.05564 10.5635 6.09259C10.6409 6.13685 10.7259 6.16539 10.8138 6.17664C10.8278 6.17712 10.8417 6.17949 10.8551 6.18366C10.9 6.2001 10.9214 6.25756 10.9279 6.31057C10.9344 6.36359 10.9326 6.41901 10.9549 6.46594C10.9716 6.50141 11.0005 6.52782 11.0181 6.56274C11.0654 6.65695 11.0198 6.78553 11.0697 6.8779L10.9457 6.76096C10.9342 6.75025 10.9182 6.73916 10.9058 6.74821C10.8934 6.75727 10.8952 6.77094 10.8911 6.78331C10.879 6.82026 10.835 6.83061 10.8028 6.81638C10.7706 6.80216 10.7474 6.77075 10.7239 6.74249C10.6691 6.67598 10.6038 6.61761 10.5261 6.58916C10.4925 6.57591 10.4566 6.5702 10.4206 6.5724C10.3847 6.5746 10.3496 6.58465 10.3178 6.6019C10.2599 6.63552 10.2175 6.71385 10.1467 6.71662C10.0494 6.72032 10.009 6.53429 9.96387 6.46076C9.9803 6.44798 9.99184 6.42969 9.99651 6.40908C10.0012 6.38846 9.99865 6.36681 9.98939 6.34789C9.9973 6.34475 10.0602 6.33644 10.0615 6.34845Z" fill="#464353"/>
<path d="M11.6746 11.4836C11.5981 11.5537 11.4988 11.5917 11.3964 11.5902C11.3703 11.5902 11.3342 11.5954 11.334 11.6221C11.3344 11.6301 11.3371 11.6378 11.3415 11.6443C11.374 11.6997 11.4252 11.7409 11.4853 11.76C11.5411 11.7773 11.6007 11.7744 11.659 11.7714L11.8288 11.7624C11.8608 11.7605 11.893 11.7589 11.925 11.7548C11.957 11.7507 11.9915 11.7439 12.025 11.7389C12.1069 11.7269 12.1897 11.7228 12.2723 11.7269C12.2942 11.7278 12.3196 11.7269 12.3332 11.7099C12.3469 11.6929 12.3395 11.6622 12.3345 11.6377C12.3244 11.587 12.3345 11.534 12.3252 11.4832C12.3088 11.394 12.2342 11.3258 12.1519 11.2935C12.0755 11.2636 11.9399 11.2294 11.8675 11.2791C11.7898 11.3327 11.7431 11.4199 11.6746 11.4836Z" fill="#3F3D56"/>
<path d="M11.8432 8.49821C11.8583 8.57211 11.9271 8.62753 11.9293 8.70143C11.9309 8.76128 11.8892 8.81227 11.8594 8.86308C11.8309 8.9163 11.8068 8.97192 11.7875 9.02934C11.7307 9.17837 11.6604 9.32156 11.5775 9.45702C11.5376 9.52186 11.493 9.59243 11.5022 9.66873C11.5085 9.70433 11.5206 9.73858 11.5381 9.76997L11.6577 10.014C11.6839 10.0628 11.7044 10.1145 11.7188 10.1683C11.729 10.2146 11.7301 10.2627 11.7368 10.31C11.7556 10.4596 11.8239 10.6104 11.7837 10.7554C11.7801 10.7679 11.7675 10.7831 11.758 10.7738C11.7973 10.8496 11.8299 10.9261 11.8261 11.012C11.8245 11.0571 11.811 11.1043 11.8274 11.1461C11.8366 11.1624 11.8427 11.1803 11.8453 11.1989C11.8453 11.2111 11.8398 11.2228 11.8385 11.2359C11.8353 11.2704 11.866 11.2992 11.8982 11.3098C11.9304 11.3203 11.9651 11.3199 11.9974 11.3299C12.0598 11.3484 12.104 11.4038 12.1574 11.4422C12.2115 11.4808 12.2753 11.5021 12.3411 11.5038C12.3504 11.5048 12.3598 11.5028 12.3681 11.4982C12.3728 11.494 12.3766 11.4888 12.3792 11.483C12.3818 11.4772 12.3831 11.4708 12.3832 11.4644C12.386 11.4338 12.3815 11.403 12.3701 11.3746C12.3586 11.3462 12.3405 11.3211 12.3174 11.3016C12.3073 11.2951 12.299 11.2861 12.2931 11.2754C12.2901 11.266 12.2893 11.2559 12.2908 11.246C12.3005 11.1117 12.2981 10.9768 12.2838 10.8429C12.2773 10.8005 12.2752 10.7576 12.2775 10.7147C12.2811 10.6791 12.2915 10.6436 12.2875 10.6079C12.2836 10.5723 12.2661 10.5401 12.2557 10.5058C12.2377 10.4448 12.2424 10.3794 12.2404 10.3155C12.2372 10.2047 12.2126 10.096 12.188 9.98814C12.1784 9.94584 12.1676 9.90132 12.1383 9.86991C12.1135 9.84331 12.0734 9.81763 12.0828 9.78216C12.0879 9.76902 12.0956 9.75713 12.1054 9.74724C12.117 9.73235 12.1256 9.71517 12.1305 9.69679C12.1354 9.67839 12.1366 9.65916 12.134 9.64028C12.1445 9.64316 12.1557 9.64213 12.1656 9.63741C12.1754 9.63269 12.1834 9.62454 12.188 9.61441C12.3823 9.52038 12.5394 9.33195 12.6086 9.12282C12.6125 9.10739 12.6185 9.09265 12.6266 9.07904C12.6445 9.05317 12.6758 9.04209 12.7035 9.02768C12.7905 8.98279 12.8507 8.89836 12.9059 8.81578C12.9381 8.76775 12.9701 8.71824 12.9839 8.66189C12.9915 8.62546 12.9951 8.58829 12.9947 8.55105L12.9995 8.35855C13.0005 8.34612 12.9993 8.33359 12.9959 8.3216C12.9914 8.31011 12.9845 8.29973 12.9758 8.29112C12.9231 8.23342 12.8538 8.19459 12.7781 8.18027C12.727 8.17085 12.6749 8.1727 12.6233 8.16827C12.5232 8.15977 12.4243 8.12799 12.3242 8.13538C12.1667 8.14721 12.0267 8.25934 11.9525 8.40252C11.9264 8.45369 11.8991 8.49821 11.8432 8.49821Z" fill="#464353"/>
<path d="M10.9706 7.24597C10.9729 7.27565 10.969 7.30549 10.9593 7.33353C10.9471 7.3605 10.9161 7.38138 10.8894 7.37048C10.8974 7.352 10.8759 7.33002 10.8559 7.33242C10.8461 7.33467 10.8369 7.33937 10.8292 7.34611C10.8215 7.35283 10.8155 7.36139 10.8117 7.37103C10.7983 7.39848 10.7938 7.42963 10.7989 7.45989C10.8052 7.49683 10.8264 7.53378 10.8209 7.57073C10.8164 7.60213 10.7939 7.63354 10.8059 7.6631C10.8137 7.67638 10.8234 7.68835 10.8347 7.69856C10.8505 7.71848 10.8583 7.74386 10.8564 7.76948C10.8544 7.79511 10.843 7.81897 10.8245 7.83619L11.1261 7.84229C11.1151 7.8942 11.1376 7.94722 11.1635 7.99322C11.2359 8.11965 11.3358 8.22713 11.4554 8.30724C11.575 8.38736 11.7111 8.43796 11.8528 8.45505C11.8452 8.45969 11.8386 8.46602 11.8336 8.47358C11.8286 8.48114 11.8254 8.48974 11.824 8.49876C11.8226 8.50779 11.8232 8.51701 11.8257 8.52577C11.8282 8.53454 11.8326 8.54261 11.8385 8.54945C11.8629 8.57439 11.9044 8.57125 11.9352 8.55499C11.9659 8.53874 11.9902 8.51195 12.0182 8.49126C12.0677 8.45503 12.1281 8.43826 12.1886 8.44397C12.2264 8.44766 12.263 8.46022 12.301 8.46244C12.4128 8.46854 12.5088 8.38596 12.6157 8.3516C12.6941 8.32684 12.7827 8.32684 12.8494 8.2766C12.8778 8.25498 12.901 8.21951 12.8927 8.18423C12.8857 8.16398 12.8746 8.14547 12.8602 8.12992C12.8223 8.07967 12.8 8.01908 12.773 7.96199C12.7192 7.84886 12.6453 7.74709 12.555 7.66199C12.4869 7.60071 12.4149 7.54435 12.3393 7.49332C12.3209 7.47921 12.3012 7.46685 12.2807 7.45638C12.2532 7.44718 12.2264 7.43602 12.2005 7.42294C12.1645 7.40003 12.1446 7.35958 12.1174 7.32688C12.0576 7.2552 11.9657 7.22213 11.892 7.16579C11.8426 7.12884 11.7991 7.07823 11.74 7.05994C11.7114 7.05107 11.6808 7.05033 11.6521 7.04146C11.587 7.02114 11.5395 6.96166 11.4755 6.93764C11.4248 6.91917 11.3691 6.9236 11.3156 6.91677C11.2566 6.90925 11.2003 6.88727 11.1514 6.85267C11.1352 6.83922 11.117 6.8285 11.0975 6.82089C11.0168 6.79558 11.0102 6.95021 11.0026 7.00396C10.9906 7.08617 10.9706 7.16524 10.9706 7.24597Z" fill="#6C63FF"/>
<path d="M11.0488 7.76538C11.0623 7.91631 10.9514 8.06263 10.9838 8.2106C10.9906 8.2422 11.0039 8.27212 11.0088 8.30297C11.0222 8.39073 10.9712 8.47386 10.9225 8.5472L10.5049 9.17717C10.4881 9.20486 10.4681 9.23032 10.4452 9.25291C10.3652 9.32681 10.2455 9.31831 10.1407 9.34011C10.067 9.3555 9.99745 9.38699 9.93668 9.43248C9.93404 9.43464 9.93227 9.43774 9.93179 9.44116C9.93129 9.4446 9.93208 9.44809 9.93398 9.45095C9.95122 9.47534 9.97416 9.4949 10.0007 9.50781C10.0272 9.52073 10.0564 9.52658 10.0857 9.52485C10.0967 9.53981 10.0857 9.56179 10.0706 9.57214C10.0481 9.58821 10.0167 9.59246 10.0129 9.63163C10.0113 9.64522 10.014 9.65901 10.0204 9.67098C10.0374 9.69738 10.0636 9.71604 10.0936 9.72307C10.2374 9.76852 10.3943 9.68871 10.5026 9.58008C10.6108 9.47146 10.6884 9.33438 10.7948 9.22372C10.8536 9.16257 10.9207 9.1101 10.9809 9.0508C11.1019 8.93257 11.1957 8.78866 11.2865 8.64437C11.3161 8.60251 11.3385 8.5557 11.3526 8.506C11.3638 8.45686 11.3587 8.40495 11.3717 8.35618C11.3886 8.29244 11.4341 8.24146 11.4718 8.18807C11.5461 8.08313 11.5955 7.95492 11.5856 7.8256C11.5757 7.69629 11.4981 7.569 11.3794 7.52503C11.3427 7.50988 11.3021 7.50735 11.2638 7.51783C11.2153 7.53316 11.1794 7.57454 11.1461 7.61408L11.0668 7.70811C11.0471 7.72888 11.0314 7.75343 11.0208 7.78034C11.0157 7.79385 11.0145 7.80861 11.0173 7.82282C11.0202 7.837 11.027 7.85005 11.037 7.86034" fill="#FBBEBE"/>
<path d="M11.2604 7.14528C11.2054 7.14861 11.145 7.15415 11.1062 7.19443C11.09 7.21292 11.0769 7.23402 11.0674 7.25687C11.0298 7.33576 10.9931 7.41815 10.9904 7.5059C10.9881 7.57611 11.0084 7.64465 11.0183 7.71411C11.0269 7.77175 11.005 7.8305 11.0003 7.88888C11.0684 7.86745 11.1583 7.83826 11.2201 7.80205C11.2607 7.7748 11.3037 7.75178 11.3487 7.73332C11.4143 7.71097 11.5245 7.7494 11.5863 7.78099C11.5897 7.73591 11.557 7.65776 11.5604 7.61269C11.561 7.59382 11.5642 7.57515 11.5701 7.55726C11.5794 7.53833 11.5905 7.52033 11.603 7.5035C11.6269 7.46386 11.6378 7.41745 11.6344 7.37097C11.6309 7.32449 11.6132 7.28033 11.5838 7.24486C11.5286 7.18094 11.442 7.15692 11.3595 7.14713C11.3074 7.14089 11.255 7.13897 11.2027 7.1414" fill="#6C63FF"/>
<path d="M3.11548 5.85255L2.761 5.3242C2.761 5.3242 2.75435 5.1934 2.73116 5.16292C2.70797 5.13244 2.72613 5.06445 2.72613 5.06445C2.72613 5.06445 2.75111 5.02751 2.72954 5.02363C2.70797 5.01975 2.72613 4.93698 2.72613 4.93698L2.72451 4.80453C2.72451 4.80453 2.74446 4.67706 2.72792 4.64658C2.72303 4.6383 2.72059 4.62875 2.72088 4.61909C2.72117 4.60941 2.72417 4.60002 2.72954 4.59208C2.72954 4.59208 2.74932 4.51911 2.72954 4.49971C2.70977 4.48031 2.71462 4.36725 2.71948 4.2771C2.72433 4.18694 2.68478 4.13614 2.68478 4.12266C2.68478 4.10917 2.55392 3.97653 2.55392 3.96452C2.55392 3.95251 2.47105 3.90337 2.42126 3.89062C2.37147 3.87788 2.34684 3.86679 2.34846 3.85996C2.35007 3.85312 2.27062 3.82615 2.27062 3.82615C2.27062 3.82615 2.20106 3.82098 2.17445 3.78532C2.14785 3.74967 2.0666 3.73932 2.06462 3.73895L2.063 3.73193C2.063 3.72935 2.0621 3.72676 2.06156 3.72417C2.06813 3.71342 2.07413 3.70232 2.07954 3.69092L2.08421 3.68058C2.11332 3.68076 2.14177 3.67167 2.16564 3.65453C2.1774 3.64452 2.187 3.6321 2.19383 3.61808C2.20066 3.60406 2.2046 3.58872 2.20537 3.57306C2.20679 3.54165 2.20009 3.51041 2.18596 3.48254C2.1714 3.45205 2.15001 3.42028 2.15756 3.38703C2.16079 3.3728 2.16906 3.36024 2.17337 3.3462C2.17981 3.31878 2.17555 3.28987 2.16151 3.26565C2.14893 3.24108 2.13149 3.21928 2.11747 3.19545C2.09969 3.16493 2.08779 3.1312 2.08242 3.09606C2.08141 3.07737 2.0771 3.05902 2.06965 3.04193C2.06212 3.02989 2.0522 3.01962 2.04053 3.01182C1.98866 2.97378 1.92608 2.95431 1.86239 2.9564C1.81728 2.95788 1.77252 2.97044 1.72758 2.96471C1.70079 2.95998 1.67446 2.95293 1.64884 2.94365C1.5933 2.92666 1.52913 2.91982 1.48077 2.95252C1.43242 2.98522 1.41318 3.04951 1.38029 3.10031C1.35135 3.14465 1.30838 3.18197 1.28681 3.22963C1.28681 3.22963 1.28681 3.22778 1.28681 3.22704C1.28138 3.23789 1.27721 3.24936 1.27441 3.26122C1.26824 3.29885 1.27076 3.33746 1.28178 3.37391C1.28421 3.39353 1.29379 3.41149 1.30856 3.42416C1.32492 3.43506 1.34739 3.43247 1.36645 3.43598L1.36429 3.44559C1.34489 3.54108 1.36112 3.64058 1.40977 3.72436C1.45841 3.80812 1.53592 3.87004 1.62691 3.89783C1.62691 3.90134 1.62691 3.90466 1.62691 3.90817C1.62688 3.91793 1.62627 3.92768 1.62512 3.93736C1.62512 3.93736 1.45848 3.90208 1.41372 3.92591C1.36896 3.94974 1.28124 3.9684 1.26794 3.98133C1.25464 3.99426 1.22156 3.98484 1.19172 4.06465C1.16188 4.14446 1.15865 4.22593 1.11982 4.26343C1.08099 4.30093 1.06194 4.32624 1.06014 4.35339C1.05834 4.38055 1.06517 4.38739 1.05025 4.39588C1.03533 4.40438 1.0143 4.44004 1.02041 4.45371C1.0227 4.46306 1.02221 4.47288 1.01901 4.48194C1.01579 4.49099 1.01002 4.49886 1.00244 4.50451C0.994582 4.51018 0.988291 4.51789 0.984228 4.52683C0.980166 4.53577 0.97844 4.54565 0.979249 4.5555C0.979249 4.5555 0.969182 4.59245 0.945994 4.6015C0.922805 4.61055 0.907885 4.66597 0.907885 4.66597L0.832747 4.75465L0.683908 4.58543C0.672727 4.57277 0.657124 4.5652 0.640515 4.56433C0.623923 4.56346 0.607655 4.56939 0.595288 4.58081L0.522127 4.64842C0.493941 4.65546 0.468452 4.67103 0.448966 4.69313C0.433111 4.71003 0.420277 4.72967 0.411037 4.75114L0.371131 4.78809C0.35853 4.80414 0.350801 4.82365 0.348949 4.84419C0.347098 4.86473 0.351178 4.88539 0.360705 4.90355L0.456156 5.01199V5.01291C0.422344 5.01596 0.390203 5.02943 0.363941 5.05152C0.221573 5.18084 0.220135 5.29963 0.241347 5.35394C0.262558 5.40825 0.443394 5.61719 0.443394 5.61719C0.443394 5.61719 0.548371 5.75741 0.699906 5.83186L0.698828 5.83315C0.6957 5.8365 0.69277 5.84001 0.69002 5.84368L0.687503 5.84701L0.685167 5.85033L0.68247 5.8544C0.681751 5.85547 0.681086 5.85658 0.680493 5.85772L0.677617 5.86253C0.676952 5.8636 0.67634 5.86471 0.675819 5.86585C0.674561 5.86807 0.673482 5.87029 0.672404 5.8725C0.672008 5.87322 0.671649 5.87396 0.671325 5.87472C0.669887 5.87767 0.668449 5.88063 0.667191 5.88396L0.665753 5.88728C0.664854 5.8895 0.664135 5.89172 0.663236 5.89412C0.662679 5.89556 0.662194 5.89704 0.661798 5.89855L0.659641 5.9052C0.659048 5.90677 0.658581 5.90838 0.658203 5.91C0.658203 5.91241 0.656765 5.91481 0.656226 5.91739C0.655686 5.91998 0.655327 5.92035 0.654967 5.92201C0.654608 5.92367 0.65317 5.92996 0.652451 5.9342C0.652451 5.93568 0.652451 5.93735 0.651552 5.93901C0.650653 5.94067 0.650653 5.94474 0.650114 5.94769C0.649575 5.95065 0.650114 5.95176 0.650114 5.95397L0.649035 5.96229V5.96894C0.649035 5.97208 0.649035 5.97522 0.648137 5.97854C0.647238 5.98187 0.648137 5.98242 0.648137 5.98445C0.648137 5.98981 0.648137 5.99517 0.648137 6.0009C0.644901 6.19967 0.656226 6.22849 0.656226 6.22849C0.663614 6.24686 0.675675 6.26284 0.691135 6.27477C0.706612 6.28669 0.724911 6.29413 0.744127 6.29629C0.753564 6.29705 0.763037 6.29655 0.772348 6.29481C0.858632 6.27948 1.05996 6.24383 1.13186 6.25787C1.17482 6.266 1.2541 6.2538 1.31054 6.2429L1.32546 6.23995L1.33571 6.27376L1.36842 6.26452L1.39628 6.28096L1.41426 6.29149C1.44698 6.40529 1.57964 6.36649 1.57964 6.36649L1.61109 6.38497L1.93088 6.39347C1.96678 6.41569 2.00471 6.43426 2.04413 6.44889C2.04934 6.45064 2.0547 6.45186 2.06013 6.45258C2.09002 6.45508 2.12004 6.45563 2.15001 6.45424C2.17445 6.45424 2.19333 6.45258 2.19333 6.45258C2.19333 6.45258 2.19009 6.36335 2.18542 6.26341C2.28454 6.26088 2.38346 6.25257 2.48166 6.23847C2.65243 6.2078 2.72361 6.04819 2.74985 5.96284C2.75771 5.9977 2.7633 6.03306 2.76657 6.06869C2.77355 6.10003 2.78243 6.13088 2.79318 6.16106C2.80233 6.18519 2.81441 6.20802 2.82913 6.22905C2.95496 6.1849 2.87874 6.11821 2.85232 6.08976C2.82589 6.06131 2.87029 6.0371 2.87029 6.0371C2.87029 6.0371 2.90516 6.01327 2.90175 5.99129C2.89833 5.96931 2.89672 5.94547 3.0096 5.94714C3.12249 5.9488 3.11548 5.85255 3.11548 5.85255ZM1.36609 4.76795C1.36752 4.77756 1.38406 4.8823 1.39736 4.90983C1.40134 4.92801 1.40261 4.94668 1.40114 4.96525C1.33445 4.95971 1.26488 4.95675 1.26488 4.95675C1.26684 4.95925 1.26808 4.96226 1.26848 4.96543L1.25787 4.96303L1.24277 4.95934L1.36573 4.76703L1.36609 4.76795ZM1.12234 5.16625L1.23792 5.18472L1.24763 5.1862C1.24435 5.20451 1.24238 5.22302 1.24169 5.24162C1.24169 5.24347 1.24421 5.2455 1.24799 5.2479C1.24637 5.25723 1.24565 5.26669 1.24583 5.27617C1.24763 5.2854 1.30155 5.30572 1.36357 5.32253C1.36267 5.32605 1.36195 5.32937 1.36105 5.33233C1.30623 5.30277 1.22012 5.28891 1.21024 5.26693C1.20035 5.24494 0.906987 5.13964 0.906987 5.13964L0.877866 5.12468L0.954982 5.13964L0.976193 5.13743C1.02424 5.15028 1.07306 5.15991 1.12234 5.16625Z" fill="url(#paint0_linear)"/>
<path d="M2.73934 5.9266C2.73934 5.9266 2.6935 6.21184 2.46036 6.25396C2.22721 6.29608 1.44887 6.28777 1.44887 6.28777C1.44887 6.28777 1.0038 6.22181 0.842919 5.83552C0.682038 5.44924 0.5785 5.29535 0.717091 5.2887C0.855682 5.28205 1.59897 5.54733 1.64157 5.55029C1.68417 5.55324 2.7805 4.963 2.73934 5.9266Z" fill="#65617D"/>
<path opacity="0.05" d="M2.73934 5.9266C2.73934 5.9266 2.6935 6.21184 2.46036 6.25396C2.22721 6.29608 1.44887 6.28777 1.44887 6.28777C1.44887 6.28777 1.0038 6.22181 0.842919 5.83552C0.682038 5.44924 0.5785 5.29535 0.717091 5.2887C0.855682 5.28205 1.59897 5.54733 1.64157 5.55029C1.68417 5.55324 2.7805 4.963 2.73934 5.9266Z" fill="black"/>
<path d="M0.651875 6.2444C0.659101 6.26267 0.671001 6.27857 0.686334 6.29045C0.701649 6.30231 0.719804 6.3097 0.738876 6.31182C0.748314 6.31241 0.757787 6.31186 0.767098 6.31016C0.852482 6.29501 1.05273 6.25955 1.12337 6.27322C1.1658 6.28116 1.24435 6.26915 1.30025 6.25844C1.33746 6.25123 1.36479 6.2444 1.36479 6.2444C1.36479 6.2444 1.29899 6.01995 1.29091 6.0133C1.28282 6.00665 0.995208 5.82858 0.995208 5.82858L0.767637 5.81177C0.737007 5.81648 0.709307 5.83314 0.690342 5.85832C0.666435 5.88824 0.645763 5.9372 0.644325 6.01755C0.64055 6.2154 0.651875 6.2444 0.651875 6.2444Z" fill="#3F3D56"/>
<path opacity="0.05" d="M0.652228 6.24402C0.659454 6.26229 0.671353 6.2782 0.686667 6.29008C0.70198 6.30194 0.720152 6.30932 0.739223 6.31145C0.716935 6.28187 0.696301 6.25104 0.677392 6.21909L0.67865 6.05542C0.674121 6.01053 0.679908 5.96518 0.69551 5.92299C0.711111 5.88079 0.736113 5.84296 0.76852 5.8125C0.76852 5.8125 0.648633 5.82081 0.645218 6.01829C0.641803 6.21576 0.652228 6.24402 0.652228 6.24402Z" fill="black"/>
<path opacity="0.1" d="M1.6378 5.88606L1.84973 5.71554L2.183 5.37803L2.09312 5.37378C2.07964 5.38265 2.04189 5.41073 2.04046 5.44435C2.03884 5.48555 1.95058 5.44731 1.90438 5.47077C1.85818 5.49423 1.63349 5.79036 1.59412 5.78833C1.55475 5.7863 1.52348 5.76783 1.50694 5.79664L1.50586 5.79849L1.6378 5.88606Z" fill="black"/>
<path opacity="0.1" d="M0.689453 5.85857C0.697003 5.86227 0.704733 5.86596 0.712463 5.86929C0.87335 5.94023 1.07199 6.08876 1.08691 6.11573C1.09589 6.13217 1.21112 6.20403 1.29992 6.25798C1.33714 6.25077 1.36446 6.24394 1.36446 6.24394C1.36446 6.24394 1.29867 6.01948 1.29058 6.01283C1.28249 6.00618 0.994869 5.82809 0.994869 5.82809L0.76729 5.81128C0.736353 5.81605 0.708418 5.833 0.689453 5.85857Z" fill="black"/>
<path d="M0.243265 5.37461C0.264476 5.42855 0.443515 5.6362 0.443515 5.6362C0.443515 5.6362 0.556763 5.78805 0.717825 5.85788C0.878888 5.92771 1.07734 6.07734 1.09208 6.10431C1.10161 6.12168 1.22996 6.20111 1.32019 6.25561L1.34051 6.2678L1.38527 6.29459L1.40899 6.30845C1.40899 6.30845 1.464 6.26319 1.51883 6.21756C1.57365 6.17193 1.62668 6.12722 1.62668 6.12519C1.62668 6.12316 1.64969 6.06275 1.64466 6.05942C1.63962 6.0561 1.63081 6.0343 1.60996 6.00714C1.58796 5.97703 1.55931 5.95272 1.52638 5.93621C1.47874 5.91104 1.44074 5.87011 1.41852 5.82001C1.41852 5.82001 1.41133 5.81465 1.40055 5.80745C1.37818 5.79165 1.35322 5.7802 1.32684 5.77364C1.29089 5.76902 1.2233 5.69309 1.2233 5.69309C1.19702 5.67551 1.17511 5.65184 1.15931 5.624C1.14134 5.58706 0.887337 5.40712 0.863789 5.3905L1.48108 5.79802L1.62884 5.89556L1.84077 5.72524L2.17404 5.38773L2.06403 5.38255C1.90225 5.37535 1.61464 5.36408 1.57869 5.37258C1.54924 5.37954 1.5189 5.38161 1.48881 5.37868C1.48881 5.37868 1.40684 5.38237 1.35255 5.353C1.29826 5.32362 1.21288 5.30977 1.20299 5.28797C1.19311 5.26617 0.902616 5.16161 0.902616 5.16161C0.902616 5.16161 0.507149 4.94566 0.36568 5.07386C0.224211 5.20207 0.221874 5.3203 0.243265 5.37461Z" fill="#65617D"/>
<path d="M1.51855 4.13605L1.56943 4.30989L1.63522 4.70135L1.87664 4.71816L1.94566 4.59993L2.01541 4.48096C2.01541 4.48096 2.05891 4.32282 2.09019 4.16986C2.11769 4.03445 2.13585 3.90291 2.10583 3.88869C2.07905 3.87613 2.06161 3.8305 2.0501 3.78136C2.04867 3.77544 2.04741 3.76916 2.04633 3.76288C2.03828 3.72135 2.03287 3.67933 2.03015 3.63708C2.03015 3.63708 1.52449 3.61011 1.59513 3.8244C1.60773 3.861 1.61417 3.89955 1.61419 3.93838C1.61419 3.94836 1.61419 3.95815 1.61239 3.96739C1.60888 4.00062 1.59875 4.03275 1.58259 4.06177C1.56644 4.09079 1.54464 4.11608 1.51855 4.13605Z" fill="#EE8E9E"/>
<path d="M1.41309 4.1075L1.43106 4.40308L1.47205 4.65451L1.51806 4.77108L1.55923 5.40806C1.55923 5.40806 1.95469 5.45517 2.0514 5.40713C2.05854 5.40433 2.06476 5.39952 2.06938 5.39328C2.18568 5.21279 2.14757 4.68998 2.14757 4.68998L2.19179 4.35246L2.16231 4.17733L2.09041 4.16957L2.0354 4.16348C2.0354 4.16348 2.023 4.17918 2.00503 4.20357C1.95631 4.26952 1.86679 4.39957 1.8729 4.4537C1.88099 4.5276 1.86302 4.60389 1.83498 4.61572C1.80693 4.62754 1.7841 4.64786 1.77925 4.62754C1.77226 4.61051 1.77051 4.59168 1.77422 4.5736C1.77925 4.54478 1.75283 4.45703 1.75283 4.45703C1.75283 4.45703 1.70861 4.35413 1.71184 4.31034C1.71508 4.26656 1.70699 4.21576 1.69387 4.20394C1.68074 4.19211 1.66259 4.18029 1.67733 4.12634C1.69207 4.0724 1.61262 3.96729 1.61262 3.96729L1.41309 4.1075Z" fill="#E3E8F4"/>
<path opacity="0.1" d="M1.93725 4.84478L1.95378 5.34931L2.04851 5.40344C2.05563 5.4005 2.06183 5.39566 2.06649 5.3894C2.18279 5.2089 2.14468 4.68609 2.14468 4.68609L2.18908 4.34856L2.15942 4.17343L2.08752 4.16567C2.1152 4.03025 2.13318 3.8989 2.10316 3.88449C2.07638 3.87193 2.05894 3.8263 2.04762 3.77734L1.99639 4.13426C1.99639 4.13426 2.0007 4.16641 2.00214 4.19966C2.00426 4.22069 2.00287 4.24193 1.998 4.26247C1.99137 4.29009 1.99026 4.31882 1.99477 4.3469C1.96511 4.40048 1.95037 4.49987 1.94318 4.59575C1.93347 4.72322 1.93725 4.84478 1.93725 4.84478Z" fill="black"/>
<path d="M2.04867 3.76831C2.04867 3.76831 2.13154 3.77884 2.15779 3.81431C2.18403 3.84978 2.25306 3.85495 2.25306 3.85495C2.25306 3.85495 2.3318 3.88192 2.33018 3.88857C2.32856 3.89522 2.35319 3.90557 2.40208 3.91906C2.45098 3.93254 2.53349 3.9815 2.53349 3.99295C2.53349 4.0044 2.6631 4.1363 2.6631 4.14979C2.6631 4.16328 2.70246 4.21389 2.69761 4.30331C2.69276 4.39272 2.68772 4.50652 2.7075 4.52499C2.72727 4.54346 2.7075 4.61606 2.7075 4.61606C2.70219 4.62397 2.69921 4.63328 2.69892 4.64289C2.69863 4.65248 2.70104 4.66197 2.70588 4.67019C2.72224 4.70049 2.70246 4.82703 2.70246 4.82703L2.70426 4.95875C2.70426 4.95875 2.68629 5.04133 2.7075 5.04484C2.72871 5.04835 2.70426 5.08529 2.70426 5.08529C2.70426 5.08529 2.68629 5.15272 2.70911 5.1832C2.73194 5.21368 2.7386 5.34337 2.7386 5.34337L3.09003 5.8682C3.09003 5.8682 3.09506 5.96445 2.98343 5.96279C2.8718 5.96113 2.87324 5.98477 2.87665 6.00657C2.88007 6.02837 2.84537 6.0522 2.84537 6.0522C2.84537 6.0522 2.80115 6.07585 2.8274 6.10448C2.85364 6.13312 2.92914 6.19907 2.80439 6.24285C2.78968 6.22201 2.7776 6.19936 2.76844 6.17542C2.75787 6.14564 2.74909 6.11523 2.74219 6.08435C2.74219 6.08435 2.73069 5.95595 2.70768 5.93914C2.68467 5.92233 2.6879 5.84123 2.6879 5.84123C2.6879 5.84123 2.7208 5.77547 2.67478 5.74886C2.62876 5.72226 1.96221 5.34245 1.96221 5.34245L1.94603 4.83775C1.94603 4.83775 1.93453 4.46477 2.00355 4.33988C1.99904 4.3118 2.00016 4.28308 2.00679 4.25546C2.0183 4.22516 2.00517 4.12725 2.00517 4.12725L2.04867 3.76831Z" fill="#3F3D56"/>
<path opacity="0.1" d="M1.61853 3.97188C1.61853 3.97188 1.45352 3.93696 1.40912 3.96061C1.36472 3.98426 1.2779 4.00273 1.26531 4.01603C1.25273 4.02933 1.21948 4.01954 1.18982 4.09879C1.16016 4.17805 1.1571 4.25915 1.11917 4.29628C1.08125 4.33341 1.06183 4.35872 1.06021 4.3857C1.0586 4.41267 1.06507 4.4195 1.05033 4.42782C1.03559 4.43613 1.01438 4.47178 1.02067 4.48527C1.02696 4.49876 1.3622 4.79582 1.3622 4.79582C1.3622 4.79582 1.37874 4.90888 1.39348 4.93751C1.40822 4.96615 1.37712 5.36112 1.34423 5.38809C1.31133 5.41507 1.56515 5.41285 1.56515 5.41285C1.56515 5.41285 1.57665 5.15421 1.58654 5.14017C1.59642 5.12613 1.57989 4.84995 1.57989 4.84995C1.57989 4.84995 1.57827 4.61366 1.59966 4.55122C1.62105 4.48878 1.61764 4.28113 1.61764 4.28113C1.61764 4.28113 1.63651 4.15662 1.65952 4.12761C1.68253 4.09861 1.61853 3.97188 1.61853 3.97188Z" fill="black"/>
<path d="M1.61373 3.96658C1.61373 3.96658 1.44871 3.93167 1.40431 3.95513C1.35991 3.97859 1.27291 3.99744 1.26051 4.01055C1.2481 4.02367 1.21449 4.01388 1.18501 4.09332C1.15553 4.17276 1.15211 4.25349 1.11436 4.29062C1.07661 4.32775 1.05684 4.35306 1.05522 4.38004C1.0536 4.40701 1.06025 4.41384 1.04533 4.42234C1.03041 4.43084 1.00938 4.46613 1.01585 4.47961C1.02232 4.4931 1.3574 4.79016 1.3574 4.79016C1.3574 4.79016 1.37375 4.90322 1.38867 4.93186C1.40359 4.96049 1.37214 5.35547 1.33924 5.38244C1.30634 5.40942 1.56106 5.40702 1.56106 5.40702C1.56106 5.40702 1.57257 5.14838 1.58227 5.13452C1.59198 5.12067 1.5758 4.84411 1.5758 4.84411C1.5758 4.84411 1.57419 4.60801 1.59558 4.54556C1.61697 4.48312 1.61445 4.27547 1.61445 4.27547C1.61445 4.27547 1.63333 4.15096 1.65634 4.12195C1.67934 4.09295 1.61373 3.96658 1.61373 3.96658Z" fill="#3F3D56"/>
<path opacity="0.1" d="M1.59662 3.82416C1.60922 3.86076 1.61568 3.89931 1.61568 3.93814C1.69633 3.96241 1.78256 3.95833 1.86072 3.92656C1.93886 3.89477 2.00446 3.83708 2.04709 3.76265C2.03904 3.72112 2.03363 3.6791 2.03092 3.63685C2.03092 3.63685 1.52598 3.6097 1.59662 3.82416Z" fill="black"/>
<path d="M1.34668 3.55729C1.34661 3.65633 1.38355 3.75163 1.44982 3.82352C1.51612 3.89542 1.60673 3.9384 1.70297 3.94367C1.79921 3.94892 1.89375 3.916 1.96707 3.85173C2.04039 3.78746 2.08691 3.69671 2.09705 3.59821C2.10719 3.49971 2.08015 3.40099 2.02153 3.32236C1.96291 3.24374 1.87717 3.19125 1.78199 3.1757C1.68681 3.16014 1.58946 3.18272 1.51 3.23877C1.43054 3.29482 1.37504 3.38005 1.35495 3.47693C1.34945 3.50335 1.34666 3.53028 1.34668 3.55729Z" fill="#EE8E9E"/>
<path d="M1.10585 4.45215L1.01598 4.48078C1.01828 4.49009 1.01779 4.4999 1.01457 4.50894C1.01137 4.51797 1.0056 4.5258 0.998 4.5314C0.990181 4.53702 0.983944 4.54465 0.979935 4.55353C0.975927 4.56244 0.974291 4.57227 0.975172 4.58202C0.975172 4.58202 0.965285 4.61897 0.942277 4.62765C0.919269 4.63633 0.904529 4.69175 0.904529 4.69175L0.829034 4.78117C0.829034 4.78117 0.800993 4.80481 0.806026 4.81664C0.811059 4.82846 0.776367 4.83179 0.776367 4.83179L0.794342 5.13217L0.950366 5.16265L1.04725 5.15249L1.12598 5.12219L1.19501 5.07989L1.2261 4.99731L1.36415 4.78117L1.10585 4.45215Z" fill="#3F3D56"/>
<path d="M0.798179 4.85479C0.798179 4.85479 0.597921 4.55791 0.448357 4.71808C0.298793 4.87825 0.509118 5.13837 0.558373 5.12987C0.607629 5.12137 0.842581 5.10788 0.842581 5.10788L0.798179 4.85479Z" fill="#EE8E9E"/>
<path d="M1.26979 4.72664L0.385213 4.26264C0.371588 4.25549 0.354924 4.26105 0.347968 4.27504L0.00303485 4.96957C-0.00392169 4.98357 0.00148905 5.00072 0.0150965 5.00785L0.899691 5.47187C0.913317 5.479 0.92998 5.47346 0.936937 5.45945L1.28187 4.76492C1.28883 4.75092 1.28342 4.73379 1.26979 4.72664Z" fill="#3F3D56"/>
<path d="M1.18754 4.76751L0.402542 4.35571L0.100586 4.96372L0.885585 5.3755L1.18754 4.76751Z" fill="#6C63FF"/>
<path d="M0.221412 4.65895C0.229357 4.65895 0.235793 4.65234 0.235793 4.64417C0.235793 4.63601 0.229357 4.62939 0.221412 4.62939C0.213467 4.62939 0.207031 4.63601 0.207031 4.64417C0.207031 4.65234 0.213467 4.65895 0.221412 4.65895Z" fill="#E6E8EC"/>
<path d="M1.07176 5.11555C1.08495 5.11555 1.09567 5.10455 1.09567 5.09098C1.09567 5.0774 1.08495 5.06641 1.07176 5.06641C1.05855 5.06641 1.04785 5.0774 1.04785 5.09098C1.04785 5.10455 1.05855 5.11555 1.07176 5.11555Z" fill="#E6E8EC"/>
<path d="M0.667974 4.91738C0.666177 5.14017 1.11449 5.18746 1.11449 5.18746L1.22899 5.20594L1.2804 5.21425L1.30179 4.99663C1.30179 4.99663 1.27824 4.99294 1.24894 4.98592C1.20544 4.97557 1.14918 4.95765 1.1375 4.93234C1.11862 4.89041 0.669232 4.69459 0.667974 4.91738Z" fill="#EE8E9E"/>
<path opacity="0.1" d="M1.35352 3.47667C1.36382 3.47745 1.37354 3.4819 1.38102 3.48923C1.3936 3.50309 1.39432 3.52766 1.41086 3.53616C1.41704 3.53884 1.42385 3.53961 1.43045 3.53837C1.47413 3.53209 1.4993 3.48147 1.54136 3.46743C1.56581 3.46097 1.59167 3.46326 1.6147 3.4739C1.62405 3.47702 1.63248 3.48254 1.63915 3.48997C1.65317 3.50845 1.64328 3.53616 1.64975 3.5587C1.65874 3.5901 1.69523 3.60248 1.72669 3.60655C1.75815 3.61061 1.79374 3.61301 1.81477 3.6374C1.82173 3.64654 1.82672 3.65709 1.82942 3.66838C1.83212 3.67965 1.83246 3.69138 1.83041 3.7028C1.82852 3.71074 1.82852 3.71905 1.83041 3.727C1.83904 3.75231 1.88164 3.74843 1.89278 3.72848C1.90105 3.71388 1.89854 3.70187 1.91777 3.69781C1.9315 3.69668 1.94531 3.69916 1.95786 3.70501C1.99133 3.71682 2.02656 3.72238 2.06193 3.72146C2.08444 3.67215 2.09654 3.6185 2.09745 3.56404C2.09835 3.50959 2.08807 3.45555 2.06724 3.40547C2.0464 3.35539 2.0155 3.3104 1.97657 3.27345C1.93765 3.2365 1.89154 3.20842 1.84132 3.19105C1.7911 3.17369 1.73785 3.16744 1.68511 3.17271C1.63237 3.17797 1.5813 3.19464 1.53525 3.22159C1.48921 3.24857 1.44924 3.28524 1.41794 3.32919C1.38666 3.37314 1.36477 3.42341 1.3537 3.47667H1.35352Z" fill="black"/>
<path d="M1.83231 3.71746C1.83042 3.70951 1.83042 3.7012 1.83231 3.69326C1.83436 3.68188 1.83404 3.67016 1.83134 3.65891C1.82864 3.64766 1.82365 3.63715 1.81667 3.62804C1.79564 3.60347 1.76023 3.60126 1.72859 3.59701C1.69695 3.59276 1.66064 3.58057 1.65165 3.54916C1.64518 3.52662 1.65507 3.4991 1.64105 3.48062C1.63449 3.47307 1.62602 3.46751 1.6166 3.46455C1.59359 3.45385 1.56773 3.45151 1.54326 3.4579C1.5012 3.47194 1.47603 3.52256 1.43235 3.52884C1.42575 3.53017 1.41892 3.52939 1.41276 3.52662C1.39622 3.51812 1.39478 3.49355 1.38292 3.4797C1.36296 3.45808 1.32503 3.47212 1.30077 3.45605C1.28605 3.44343 1.27654 3.42553 1.27416 3.40599C1.26329 3.36976 1.26083 3.33143 1.26697 3.29403C1.28117 3.23141 1.33582 3.18836 1.37051 3.1346C1.40305 3.08472 1.42139 3.02154 1.4701 2.98847C1.51881 2.95541 1.58155 2.9628 1.63673 2.97961C1.6621 2.98892 1.6882 2.99596 1.71475 3.00067C1.75915 3.00621 1.80373 2.99383 1.84831 2.99235C1.91149 2.99025 1.97357 3.00974 2.02483 3.04778C2.03639 3.05552 2.04621 3.06573 2.05359 3.0777C2.061 3.09468 2.06539 3.1129 2.06654 3.13146C2.07178 3.16634 2.08358 3.19984 2.10123 3.23011C2.11489 3.25395 2.13233 3.27538 2.14473 3.29995C2.15859 3.32404 2.16285 3.35271 2.15659 3.37994C2.15228 3.39379 2.14401 3.40636 2.14078 3.42058C2.13359 3.45346 2.15462 3.48506 2.169 3.51535C2.18298 3.54308 2.18962 3.57412 2.18823 3.60532C2.18746 3.62088 2.18358 3.6361 2.1768 3.65001C2.17002 3.66394 2.16051 3.67628 2.14886 3.68624C2.12445 3.70364 2.09535 3.71275 2.06564 3.71229C2.02961 3.71341 1.99368 3.70785 1.95958 3.69584C1.947 3.69008 1.93323 3.6876 1.91949 3.68864C1.90026 3.6927 1.90278 3.70471 1.89451 3.71931C1.88354 3.73889 1.84112 3.74277 1.83231 3.71746Z" fill="#3F3D56"/>
<path opacity="0.1" d="M1.62921 5.89635L1.84114 5.72601L2.17441 5.38847L2.0644 5.3833C2.05149 5.39531 2.04324 5.41172 2.04121 5.42949C2.03959 5.47069 1.95133 5.43226 1.90513 5.45591C1.85893 5.47955 1.63424 5.77552 1.59487 5.77349C1.55551 5.77146 1.52423 5.75298 1.50769 5.78162L1.50661 5.78347C1.50005 5.79123 1.49122 5.79662 1.48145 5.7988L1.62921 5.89635Z" fill="black"/>
<path d="M1.20215 5.88411L1.30857 6.23345L1.32528 6.28887L1.37598 6.27465L1.48779 6.24306L1.98536 6.10266C2.04804 6.09987 2.10938 6.08309 2.16512 6.05352C2.25919 5.99935 2.36683 5.97522 2.4743 5.98424C2.5401 5.99052 2.61326 5.96133 2.67402 5.84605C2.67402 5.84605 2.81189 5.42762 2.46388 5.30772C2.11586 5.18782 2.09915 5.37146 2.09915 5.37146L2.09429 5.37441C2.08081 5.38328 2.04306 5.41136 2.04162 5.44498C2.04001 5.48618 1.95174 5.44794 1.90555 5.4714C1.85935 5.49486 1.63465 5.791 1.59528 5.78897C1.55591 5.78694 1.52464 5.76846 1.5081 5.79728L1.50702 5.79913C1.4948 5.81631 1.45831 5.82037 1.43404 5.82093C1.42649 5.82133 1.41894 5.82133 1.41139 5.82093L1.40815 5.82185L1.38299 5.82961L1.20215 5.88411Z" fill="#65617D"/>
<path opacity="0.1" d="M1.22949 5.20586L1.2809 5.21418L1.30229 4.99655C1.30229 4.99655 1.27875 4.99286 1.24945 4.98584C1.25717 5.01632 1.23956 5.13363 1.22949 5.20586Z" fill="black"/>
<path opacity="0.1" d="M2.5735 4.18905C2.5735 4.18905 2.72611 4.14342 2.68836 4.58901C2.66215 4.86099 2.54966 5.11654 2.36822 5.31633C2.36822 5.31633 2.04304 5.46302 1.8969 5.43937C1.75076 5.41572 1.64417 5.41073 1.64417 5.41073C1.59812 5.38685 1.54775 5.37307 1.49623 5.37028C1.41426 5.36695 1.24188 5.31485 1.23846 5.29767C1.23505 5.28049 1.28124 5.03276 1.26147 5.01428C1.26147 5.01428 1.49138 5.02389 1.51439 5.04089C1.53739 5.05788 1.57029 5.04587 1.59492 5.04089C1.61954 5.0359 1.69504 4.96865 1.84442 5.02777C1.84442 5.02777 1.89529 5.03276 1.91506 5.01927C1.93118 5.01155 1.94954 5.01037 1.96647 5.01595C1.97925 5.01159 1.99136 5.00536 2.00242 4.99747C2.00727 4.99082 2.04682 4.99747 2.04682 4.99747C2.04917 4.99856 2.05173 4.9991 2.0543 4.99908C2.05688 4.99906 2.05942 4.99847 2.06176 4.99734C2.06409 4.99622 2.06618 4.99459 2.06785 4.99258C2.06952 4.99056 2.07074 4.9882 2.07145 4.98565C2.07664 4.97189 2.08446 4.95932 2.09445 4.9487C2.09445 4.9487 2.13867 4.69228 2.22244 4.59603C2.22913 4.59003 2.23427 4.58242 2.23739 4.57386C2.24054 4.56533 2.24156 4.55613 2.24041 4.54707C2.23358 4.51973 2.37649 4.13492 2.5735 4.18905Z" fill="black"/>
<path d="M2.56845 4.1545C2.56845 4.1545 2.72125 4.10905 2.6835 4.55445C2.65736 4.82642 2.54485 5.08201 2.36335 5.28176C2.36335 5.28176 2.03817 5.42863 1.89202 5.40498C1.74588 5.38133 1.6391 5.37579 1.6391 5.37579C1.59312 5.35189 1.5428 5.33811 1.49134 5.33534C1.40919 5.33183 1.2368 5.27991 1.23356 5.26273C1.23033 5.24555 1.27617 4.99782 1.25657 4.97916C1.25657 4.97916 1.48648 4.98895 1.50949 5.00595C1.5325 5.02294 1.56522 5.01075 1.58985 5.00595C1.61447 5.00115 1.68997 4.93372 1.83953 4.99265C1.83953 4.99265 1.8904 4.99782 1.91 4.98434C1.92612 4.97667 1.94444 4.97543 1.96141 4.98083C1.97415 4.97635 1.98625 4.97015 1.99736 4.96235C2.00221 4.95552 2.04158 4.96235 2.04158 4.96235C2.04394 4.96342 2.04649 4.96398 2.04906 4.96396C2.05165 4.96394 2.05418 4.96335 2.05652 4.96222C2.05885 4.96109 2.06094 4.95947 2.06261 4.95746C2.06428 4.95544 2.06551 4.95308 2.06621 4.95053C2.0714 4.93677 2.07922 4.9242 2.08922 4.91358C2.08922 4.91358 2.13362 4.65717 2.21738 4.56092C2.22407 4.55491 2.22921 4.5473 2.23236 4.53875C2.23549 4.53021 2.23653 4.52101 2.23536 4.51196C2.22871 4.48536 2.37144 4.10111 2.56845 4.1545Z" fill="#3F3D56"/>
<path opacity="0.1" d="M1.38281 5.8288L1.59958 6.09852L1.60102 6.09704C1.60264 6.09187 1.62402 6.0346 1.61899 6.03109C1.61396 6.02758 1.57639 5.94334 1.5009 5.90787C1.46251 5.88862 1.43026 5.85851 1.40798 5.82104L1.38281 5.8288Z" fill="black"/>
<path opacity="0.1" d="M1.38513 6.29575L1.40886 6.30961C1.40886 6.30961 1.46386 6.26435 1.51867 6.21872C1.57349 6.1731 1.62651 6.12839 1.62651 6.12636C1.62651 6.12433 1.64952 6.06392 1.64449 6.0606C1.63945 6.05727 1.63065 6.03547 1.6098 6.00832C1.46278 5.96602 1.55588 6.07094 1.56882 6.07574C1.56882 6.07574 1.38999 6.03344 1.3801 6.23387C1.37924 6.25463 1.38095 6.27543 1.38513 6.29575Z" fill="black"/>
<path d="M1.56661 6.38056L1.59789 6.39903L1.9148 6.40735C1.95033 6.42955 1.9879 6.44812 2.02696 6.46277C2.03214 6.46436 2.03742 6.46553 2.04278 6.46628C2.07221 6.46876 2.10174 6.46931 2.13122 6.46795C2.15549 6.46795 2.17418 6.46628 2.17418 6.46628C2.17418 6.46628 2.15926 6.05559 2.14794 6.01236C2.14254 5.99166 2.11594 5.9961 2.0897 6.00644C2.07003 6.01472 2.05103 6.0246 2.03289 6.036C2.03289 6.036 1.89844 6.04949 1.87705 6.06131C1.85566 6.07314 1.7949 6.05448 1.75715 6.06131C1.7194 6.06815 1.652 6.01568 1.652 6.01568C1.46811 5.95324 1.57165 6.06963 1.58477 6.0748C1.58477 6.0748 1.40501 6.03249 1.39585 6.23295C1.38668 6.4334 1.56661 6.38056 1.56661 6.38056Z" fill="#3F3D56"/>
<path d="M2.02555 6.2222C2.02897 6.30718 2.09349 6.41267 2.13195 6.46846C2.15621 6.46846 2.17491 6.46679 2.17491 6.46679C2.17491 6.46679 2.15999 6.05612 2.14867 6.01289C2.14327 5.9922 2.11667 5.99664 2.09043 6.00698C2.05862 6.06831 2.02268 6.15348 2.02555 6.2222Z" fill="#565387"/>
<path opacity="0.1" d="M2.02555 6.2222C2.02897 6.30718 2.09349 6.41267 2.13195 6.46846C2.15621 6.46846 2.17491 6.46679 2.17491 6.46679C2.17491 6.46679 2.15999 6.05612 2.14867 6.01289C2.14327 5.9922 2.11667 5.99664 2.09043 6.00698C2.05862 6.06831 2.02268 6.15348 2.02555 6.2222Z" fill="black"/>
<path opacity="0.05" d="M1.97116 6.23346C1.99309 6.31548 1.99273 6.40747 2.0276 6.46326C2.03278 6.46485 2.03806 6.46601 2.04342 6.46677C2.07282 6.46924 2.10237 6.4698 2.13185 6.46843C2.15612 6.46843 2.17481 6.46677 2.17481 6.46677C2.17481 6.46677 2.15989 6.05612 2.14857 6.01289C2.14317 5.9922 2.11657 5.99664 2.09033 6.00698C2.07067 6.01526 2.05167 6.02514 2.03353 6.03654C2.03353 6.03654 1.9433 6.12835 1.97116 6.23346Z" fill="black"/>
<path opacity="0.1" d="M0.876953 5.40039C0.876953 5.40039 1.03442 5.45286 1.1678 5.63944L0.876953 5.40039Z" fill="black"/>
<g opacity="0.1">
<path opacity="0.1" d="M2.15686 3.37549C2.15686 3.37678 2.15686 3.37789 2.15596 3.37918C2.15445 3.384 2.15258 3.3887 2.15039 3.39322C2.15212 3.38716 2.15429 3.38123 2.15686 3.37549Z" fill="black"/>
<path opacity="0.1" d="M1.26716 3.29376C1.26982 3.28195 1.27394 3.27052 1.27938 3.25977C1.27938 3.26254 1.27759 3.26549 1.27687 3.26845C1.27088 3.30586 1.2734 3.34417 1.28424 3.3804C1.28663 3.39991 1.29605 3.41777 1.31066 3.43047C1.33511 3.44654 1.37304 3.4325 1.39299 3.45411C1.40557 3.46797 1.40629 3.49254 1.42283 3.50104C1.42899 3.50381 1.43583 3.50458 1.44242 3.50325C1.4861 3.49697 1.51127 3.44635 1.55333 3.43231C1.5778 3.42585 1.60368 3.42819 1.62667 3.43896C1.63609 3.44192 1.64456 3.44748 1.65112 3.45504C1.66514 3.47351 1.65525 3.50104 1.66172 3.52358C1.67071 3.55498 1.7072 3.56736 1.73866 3.57142C1.77012 3.57549 1.80571 3.57789 1.82674 3.60246C1.83371 3.61157 1.83871 3.62208 1.84141 3.63333C1.8441 3.64458 1.84443 3.65629 1.84238 3.66767C1.84049 3.67562 1.84049 3.68393 1.84238 3.69187C1.85101 3.71718 1.89361 3.7133 1.90475 3.69335C1.91302 3.67876 1.9105 3.66675 1.92974 3.66269C1.94347 3.66165 1.95724 3.66413 1.96982 3.66989C2.00392 3.6819 2.03986 3.68746 2.07588 3.68633C2.10559 3.68679 2.13469 3.67769 2.15911 3.66028C2.16978 3.65167 2.17848 3.64076 2.18463 3.62832C2.17908 3.65095 2.16644 3.67107 2.14868 3.68559C2.12427 3.703 2.09517 3.7121 2.06545 3.71164C2.02943 3.71277 1.9935 3.70721 1.9594 3.6952C1.94681 3.68944 1.93305 3.68696 1.91931 3.688C1.90008 3.69206 1.90259 3.70407 1.89451 3.71866C1.88318 3.73861 1.84058 3.74249 1.83195 3.71718C1.83015 3.70922 1.83015 3.70095 1.83195 3.69298C1.834 3.6816 1.83368 3.66989 1.83098 3.65864C1.82828 3.64739 1.82329 3.63688 1.81631 3.62777C1.79528 3.6032 1.75987 3.60098 1.72823 3.59673C1.6966 3.59248 1.66029 3.58029 1.6513 3.54889C1.64483 3.52635 1.65471 3.49882 1.64069 3.48035C1.63417 3.47283 1.62579 3.46727 1.61643 3.46427C1.59334 3.45358 1.56744 3.45123 1.54291 3.45762C1.50102 3.47166 1.47568 3.52228 1.432 3.52856C1.4254 3.52989 1.41857 3.52912 1.4124 3.52635C1.39587 3.51785 1.39443 3.49328 1.38256 3.47942C1.36261 3.45781 1.32486 3.47185 1.30042 3.45578C1.28569 3.44316 1.27618 3.42526 1.27381 3.40571C1.26312 3.36945 1.26085 3.33109 1.26716 3.29376Z" fill="black"/>
</g>
<path opacity="0.1" d="M2.18222 4.64459C2.15203 4.68634 2.11769 4.72495 2.09109 4.76892C2.06219 4.81226 2.04815 4.86426 2.05119 4.9167C2.07869 4.8877 2.09145 4.84743 2.10871 4.81104C2.13819 4.74933 2.18204 4.69705 2.21925 4.64053C2.22626 4.62963 2.27156 4.56663 2.24873 4.56405C2.22968 4.56127 2.19247 4.63037 2.18222 4.64459Z" fill="black"/>
<path d="M2.34405 8.59756C2.3658 8.66924 2.38773 8.7411 2.41487 8.81075C2.46377 8.93183 2.52532 9.04711 2.59841 9.15455C2.64552 9.22529 2.69616 9.29349 2.75012 9.35887C2.81771 9.44071 2.89393 9.5231 2.91694 9.62766C2.93078 9.68807 2.9261 9.75107 2.93186 9.8124C2.93761 9.87374 2.9572 9.9395 3.00592 9.97645C3.04061 10.0029 3.08501 10.0108 3.12761 10.0176C3.15817 10.0226 3.19628 10.0243 3.2121 9.99714C3.21763 9.98606 3.22053 9.97377 3.22055 9.9613L3.22792 9.87097C3.22935 9.85138 3.23618 9.82644 3.25524 9.82552C3.27429 9.8246 3.28382 9.85064 3.3 9.86247C3.32157 9.87799 3.35392 9.86247 3.36579 9.83901C3.37564 9.8136 3.37627 9.78541 3.36759 9.75957C3.3545 9.70816 3.33095 9.66016 3.29852 9.61876C3.26608 9.57738 3.22547 9.54352 3.17938 9.51941C3.14737 9.50614 3.11666 9.48976 3.0877 9.47045C3.05828 9.44416 3.0339 9.41246 3.0158 9.37698C2.84899 9.09469 2.68127 8.81094 2.56353 8.50372C2.54033 8.44881 2.52467 8.39088 2.51698 8.33154C2.51122 8.27113 2.52039 8.21035 2.52417 8.14976C2.53114 8.04091 2.52131 7.9316 2.49505 7.82591C2.48931 7.79816 2.47916 7.77158 2.46503 7.74721C2.41649 7.67165 2.30325 7.66038 2.23134 7.71248C2.20486 7.73341 2.18292 7.75977 2.16688 7.78989C2.15085 7.82002 2.1411 7.85323 2.13823 7.88743C2.13302 7.94876 2.16735 8.01231 2.18479 8.06939C2.23763 8.24564 2.29072 8.42169 2.34405 8.59756Z" fill="#A1616A"/>
<path opacity="0.05" d="M2.34405 8.59756C2.3658 8.66924 2.38773 8.7411 2.41487 8.81075C2.46377 8.93183 2.52532 9.04711 2.59841 9.15455C2.64552 9.22529 2.69616 9.29349 2.75012 9.35887C2.81771 9.44071 2.89393 9.5231 2.91694 9.62766C2.93078 9.68807 2.9261 9.75107 2.93186 9.8124C2.93761 9.87374 2.9572 9.9395 3.00592 9.97645C3.04061 10.0029 3.08501 10.0108 3.12761 10.0176C3.15817 10.0226 3.19628 10.0243 3.2121 9.99714C3.21763 9.98606 3.22053 9.97377 3.22055 9.9613L3.22792 9.87097C3.22935 9.85138 3.23618 9.82644 3.25524 9.82552C3.27429 9.8246 3.28382 9.85064 3.3 9.86247C3.32157 9.87799 3.35392 9.86247 3.36579 9.83901C3.37564 9.8136 3.37627 9.78541 3.36759 9.75957C3.3545 9.70816 3.33095 9.66016 3.29852 9.61876C3.26608 9.57738 3.22547 9.54352 3.17938 9.51941C3.14737 9.50614 3.11666 9.48976 3.0877 9.47045C3.05828 9.44416 3.0339 9.41246 3.0158 9.37698C2.84899 9.09469 2.68127 8.81094 2.56353 8.50372C2.54033 8.44881 2.52467 8.39088 2.51698 8.33154C2.51122 8.27113 2.52039 8.21035 2.52417 8.14976C2.53114 8.04091 2.52131 7.9316 2.49505 7.82591C2.48931 7.79816 2.47916 7.77158 2.46503 7.74721C2.41649 7.67165 2.30325 7.66038 2.23134 7.71248C2.20486 7.73341 2.18292 7.75977 2.16688 7.78989C2.15085 7.82002 2.1411 7.85323 2.13823 7.88743C2.13302 7.94876 2.16735 8.01231 2.18479 8.06939C2.23763 8.24564 2.29072 8.42169 2.34405 8.59756Z" fill="black"/>
<path d="M1.29528 11.6157C1.32779 11.6273 1.36238 11.6316 1.39666 11.6282C1.39918 11.5994 1.43693 11.5929 1.46497 11.5944C1.47854 11.594 1.49197 11.5971 1.50398 11.6037C1.51099 11.6083 1.51638 11.6149 1.52321 11.6197C1.5354 11.6266 1.54904 11.6302 1.56294 11.6303L1.7089 11.6428C1.77398 11.6486 1.84175 11.6537 1.90269 11.6299C1.91482 11.6259 1.92562 11.6185 1.93379 11.6085C1.95032 11.5841 1.93379 11.5492 1.91096 11.5314C1.88813 11.5137 1.85865 11.5057 1.83564 11.4876C1.78494 11.4479 1.77793 11.3737 1.75115 11.3142C1.73211 11.2767 1.70862 11.2417 1.68122 11.2102C1.66138 11.1831 1.63824 11.1587 1.61237 11.1376C1.55377 11.0942 1.48654 11.0951 1.41769 11.0888C1.36916 11.0844 1.3235 11.0814 1.28862 11.1257C1.24548 11.1812 1.26274 11.292 1.26544 11.3567C1.2688 11.4437 1.27877 11.5303 1.29528 11.6157Z" fill="#514E7F"/>
<path opacity="0.05" d="M1.29528 11.6157C1.32779 11.6273 1.36238 11.6316 1.39666 11.6282C1.39918 11.5994 1.43693 11.5929 1.46497 11.5944C1.47854 11.594 1.49197 11.5971 1.50398 11.6037C1.51099 11.6083 1.51638 11.6149 1.52321 11.6197C1.5354 11.6266 1.54904 11.6302 1.56294 11.6303L1.7089 11.6428C1.77398 11.6486 1.84175 11.6537 1.90269 11.6299C1.91482 11.6259 1.92562 11.6185 1.93379 11.6085C1.95032 11.5841 1.93379 11.5492 1.91096 11.5314C1.88813 11.5137 1.85865 11.5057 1.83564 11.4876C1.78494 11.4479 1.77793 11.3737 1.75115 11.3142C1.73211 11.2767 1.70862 11.2417 1.68122 11.2102C1.66138 11.1831 1.63824 11.1587 1.61237 11.1376C1.55377 11.0942 1.48654 11.0951 1.41769 11.0888C1.36916 11.0844 1.3235 11.0814 1.28862 11.1257C1.24548 11.1812 1.26274 11.292 1.26544 11.3567C1.2688 11.4437 1.27877 11.5303 1.29528 11.6157Z" fill="black"/>
<path d="M1.35525 8.69777C1.31067 8.71255 1.29125 8.76963 1.29952 8.81711C1.30779 8.86459 1.33547 8.9056 1.3583 8.94772C1.42337 9.06724 1.45141 9.20395 1.50606 9.32865C1.54686 9.42102 1.60205 9.50785 1.64231 9.60133C1.68257 9.6948 1.70756 9.80029 1.68311 9.89949C1.67125 9.94771 1.64824 9.99186 1.63296 10.0393C1.61784 10.0908 1.60796 10.1437 1.60348 10.1973C1.58369 10.3792 1.58013 10.5626 1.59288 10.7452C1.59299 10.7675 1.59752 10.7895 1.60618 10.8099C1.61535 10.8284 1.63116 10.8468 1.62415 10.8653C1.6211 10.8729 1.61445 10.8784 1.61121 10.8858C1.60187 10.9065 1.62056 10.9285 1.63764 10.9433C1.63458 10.9488 1.63048 10.9537 1.62557 10.9576C1.62067 10.9615 1.61506 10.9643 1.60906 10.966C1.6213 10.974 1.63072 10.9859 1.63589 10.9998C1.64107 11.0137 1.64175 11.029 1.63782 11.0434C1.62272 11.0458 1.62182 11.0696 1.63134 11.0822C1.64087 11.0948 1.65597 11.1025 1.6628 11.1167C1.66683 11.1283 1.66638 11.1411 1.66158 11.1523C1.65676 11.1636 1.64794 11.1725 1.63692 11.1773C1.61447 11.1862 1.58997 11.1881 1.56645 11.1829C1.5266 11.1772 1.48724 11.1683 1.44872 11.1563C1.42858 11.1522 1.41056 11.1408 1.39794 11.1242C1.38534 11.1076 1.37897 11.0868 1.38005 11.0658C1.37115 10.9906 1.36844 10.9147 1.37196 10.8391C1.37825 10.4726 1.37196 10.1057 1.3565 9.73933C1.35021 9.59153 1.30707 9.44836 1.25153 9.31239C1.22083 9.24291 1.18669 9.17508 1.14925 9.10918C1.06908 8.95843 0.998258 8.79143 1.01659 8.62055C1.01857 8.60207 1.02504 8.58009 1.04284 8.57713C1.04979 8.57636 1.05682 8.57758 1.06315 8.58064C1.10007 8.59836 1.1358 8.61861 1.1701 8.64124C1.22645 8.67519 1.29 8.69459 1.35525 8.69777Z" fill="#464353"/>
<path opacity="0.05" d="M1.35525 8.69777C1.31067 8.71255 1.29125 8.76963 1.29952 8.81711C1.30779 8.86459 1.33547 8.9056 1.3583 8.94772C1.42337 9.06724 1.45141 9.20395 1.50606 9.32865C1.54686 9.42102 1.60205 9.50785 1.64231 9.60133C1.68257 9.6948 1.70756 9.80029 1.68311 9.89949C1.67125 9.94771 1.64824 9.99186 1.63296 10.0393C1.61784 10.0908 1.60796 10.1437 1.60348 10.1973C1.58369 10.3792 1.58013 10.5626 1.59288 10.7452C1.59299 10.7675 1.59752 10.7895 1.60618 10.8099C1.61535 10.8284 1.63116 10.8468 1.62415 10.8653C1.6211 10.8729 1.61445 10.8784 1.61121 10.8858C1.60187 10.9065 1.62056 10.9285 1.63764 10.9433C1.63458 10.9488 1.63048 10.9537 1.62557 10.9576C1.62067 10.9615 1.61506 10.9643 1.60906 10.966C1.6213 10.974 1.63072 10.9859 1.63589 10.9998C1.64107 11.0137 1.64175 11.029 1.63782 11.0434C1.62272 11.0458 1.62182 11.0696 1.63134 11.0822C1.64087 11.0948 1.65597 11.1025 1.6628 11.1167C1.66683 11.1283 1.66638 11.1411 1.66158 11.1523C1.65676 11.1636 1.64794 11.1725 1.63692 11.1773C1.61447 11.1862 1.58997 11.1881 1.56645 11.1829C1.5266 11.1772 1.48724 11.1683 1.44872 11.1563C1.42858 11.1522 1.41056 11.1408 1.39794 11.1242C1.38534 11.1076 1.37897 11.0868 1.38005 11.0658C1.37115 10.9906 1.36844 10.9147 1.37196 10.8391C1.37825 10.4726 1.37196 10.1057 1.3565 9.73933C1.35021 9.59153 1.30707 9.44836 1.25153 9.31239C1.22083 9.24291 1.18669 9.17508 1.14925 9.10918C1.06908 8.95843 0.998258 8.79143 1.01659 8.62055C1.01857 8.60207 1.02504 8.58009 1.04284 8.57713C1.04979 8.57636 1.05682 8.57758 1.06315 8.58064C1.10007 8.59836 1.1358 8.61861 1.1701 8.64124C1.22645 8.67519 1.29 8.69459 1.35525 8.69777Z" fill="black"/>
<path d="M0.752202 8.25218C0.72896 8.23684 0.702141 8.22816 0.674549 8.22705C0.642553 8.22871 0.615231 8.25033 0.590245 8.27102C0.56064 8.29437 0.532544 8.31968 0.506121 8.34676C0.451404 8.40669 0.413296 8.48057 0.395717 8.56074C0.378155 8.6409 0.381768 8.72444 0.406178 8.8027C0.432602 8.88416 0.480956 8.95603 0.52877 9.02641L0.625836 9.16977C0.773953 9.38832 0.922069 9.60686 1.0772 9.82023C1.07723 9.82548 1.07889 9.83058 1.08192 9.83479C1.08496 9.83902 1.08922 9.84212 1.09409 9.84369C1.09966 9.84517 1.10668 9.84499 1.11009 9.84979C1.11167 9.85278 1.11236 9.85618 1.11207 9.85958C1.11173 9.87536 1.1088 9.89097 1.10344 9.90577C1.10092 9.91064 1.10028 9.91632 1.10164 9.92165C1.10668 9.93366 1.12789 9.92683 1.13472 9.9381C1.13921 9.94549 1.13364 9.95509 1.12771 9.96137C1.12177 9.96765 1.1144 9.97467 1.11548 9.98336C1.11656 9.99204 1.1313 10.0018 1.13076 10.0125C1.13076 10.0188 1.12537 10.0236 1.12159 10.0286C1.11631 10.0366 1.1139 10.0462 1.11478 10.0558C1.11568 10.0653 1.1198 10.0743 1.12645 10.0811C1.13669 10.1853 1.08151 10.2843 1.07054 10.3881C1.05257 10.5522 1.12537 10.7123 1.13418 10.8769C1.13366 10.8955 1.13709 10.9139 1.14424 10.9309C1.15916 10.9593 1.19817 10.9765 1.19619 11.0088C1.19337 11.0221 1.1897 11.0352 1.18523 11.048C1.18217 11.0665 1.1908 11.0849 1.19116 11.1034C1.19152 11.1219 1.17552 11.1446 1.15862 11.1372C1.17133 11.1808 1.18266 11.2248 1.1926 11.2691L1.53233 11.298C1.536 11.2666 1.53495 11.2348 1.52927 11.2037C1.52226 11.1699 1.50752 11.1385 1.49979 11.1051C1.49476 11.0886 1.49336 11.0712 1.49566 11.0541C1.49796 11.037 1.50391 11.0207 1.5131 11.0063C1.50423 11.0064 1.49562 11.0033 1.48879 10.9975C1.48194 10.9917 1.47731 10.9836 1.47571 10.9747C1.47287 10.9566 1.47317 10.9382 1.47661 10.9203C1.48559 10.8293 1.44838 10.7395 1.44946 10.648C1.45054 10.576 1.47517 10.5067 1.48757 10.436C1.51417 10.2845 1.48649 10.1202 1.5521 9.98188C1.59183 9.89856 1.64683 9.80619 1.60225 9.72546C1.58032 9.68556 1.5415 9.65822 1.51615 9.62053C1.4955 9.58491 1.47999 9.5464 1.47014 9.50618C1.41783 9.33991 1.33316 9.18547 1.25893 9.02734C1.23833 8.98769 1.22303 8.94539 1.21345 8.90153C1.2082 8.86305 1.20628 8.82416 1.2077 8.78533C1.2077 8.71561 1.20354 8.64596 1.19529 8.57676C1.19362 8.54645 1.18519 8.51692 1.17067 8.49049C1.156 8.47048 1.13768 8.45361 1.11674 8.44079C1.00529 8.36228 0.872637 8.31739 0.752202 8.25218Z" fill="#464353"/>
<path d="M1.15938 11.7438C1.19201 11.7553 1.22663 11.7595 1.26095 11.7562C1.26346 11.7273 1.30104 11.7209 1.32908 11.7224C1.34265 11.7219 1.35608 11.7251 1.36809 11.7316C1.3751 11.7362 1.38049 11.743 1.3875 11.7477C1.39965 11.7546 1.41333 11.7582 1.42723 11.7582L1.57302 11.7708C1.63827 11.7765 1.70586 11.7818 1.76698 11.7578C1.7791 11.7539 1.78985 11.7465 1.7979 11.7364C1.81444 11.712 1.7979 11.6773 1.77507 11.6595C1.75224 11.6418 1.72276 11.6337 1.69993 11.6156C1.64906 11.5758 1.64223 11.5018 1.61526 11.4423C1.5964 11.4046 1.57296 11.3696 1.54551 11.3381C1.52559 11.311 1.50239 11.2867 1.47648 11.2657C1.41806 11.2221 1.35065 11.223 1.28198 11.2167C1.23326 11.2123 1.1876 11.2095 1.15291 11.2536C1.10977 11.3091 1.12702 11.4199 1.12954 11.4848C1.13292 11.5718 1.1429 11.6584 1.15938 11.7438Z" fill="#514E7F"/>
<path d="M2.66467 7.64725C2.85054 7.64725 3.00121 7.49242 3.00121 7.30141C3.00121 7.1104 2.85054 6.95557 2.66467 6.95557C2.4788 6.95557 2.32812 7.1104 2.32812 7.30141C2.32812 7.49242 2.4788 7.64725 2.66467 7.64725Z" fill="#A1616A"/>
<path d="M2.34826 7.4042C2.30008 7.44687 2.23088 7.45001 2.1676 7.45666C2.0323 7.47094 1.90059 7.51013 1.77879 7.57231C1.76193 7.57977 1.74667 7.59058 1.73385 7.60409C1.72292 7.61874 1.71514 7.63562 1.71102 7.6536C1.69945 7.6925 1.69511 7.73331 1.69826 7.77386C1.70266 7.8132 1.71368 7.85146 1.7308 7.88693C1.7775 7.9863 1.84956 8.07076 1.93931 8.13134C1.95513 8.14344 1.97307 8.15229 1.99216 8.15739C2.03638 8.16681 2.07916 8.14058 2.12284 8.12875C2.16257 8.11809 2.20445 8.11944 2.24346 8.13263C2.27941 8.1452 2.31878 8.1681 2.35437 8.15277C2.37714 8.13967 2.39485 8.11894 2.40452 8.09402C2.43889 8.02726 2.46956 7.95855 2.49638 7.88822C2.50601 7.86077 2.5171 7.83387 2.52963 7.80767C2.56864 7.73137 2.63605 7.67244 2.66966 7.59319C2.67308 7.58715 2.67513 7.58038 2.6757 7.57342C2.67626 7.56645 2.67531 7.55945 2.6729 7.55291C2.66666 7.54408 2.65803 7.53734 2.64809 7.53351C2.59839 7.50427 2.55309 7.46775 2.51363 7.42507C2.49152 7.40327 2.4509 7.34434 2.41908 7.33917C2.38331 7.33288 2.37253 7.38277 2.34826 7.4042Z" fill="#A1616A"/>
<path d="M2.35461 8.10685C2.31561 8.12532 2.26959 8.11738 2.22734 8.10833C2.11841 8.08487 2.00822 8.06122 1.90737 8.01282C1.87586 8.00042 1.84857 7.97886 1.82882 7.95075C1.81656 7.92671 1.8091 7.90039 1.80689 7.87334L1.78891 7.74403C1.78244 7.69913 1.79359 7.65757 1.79466 7.61212C1.79535 7.60708 1.79506 7.60196 1.79378 7.59705C1.79252 7.59214 1.79031 7.58752 1.78729 7.58349C1.78115 7.57817 1.7732 7.57558 1.76518 7.57628C1.71467 7.57721 1.68411 7.63171 1.6487 7.66865C1.62824 7.68997 1.60378 7.70682 1.5768 7.71816C1.54444 7.73183 1.50489 7.74144 1.49141 7.77469C1.48602 7.78855 1.48674 7.80425 1.48098 7.81811C1.45833 7.87353 1.3618 7.85505 1.33718 7.91047C1.33017 7.92599 1.33071 7.94539 1.3192 7.95758C1.3077 7.96977 1.28613 7.96959 1.26833 7.97255C1.19804 7.98437 1.16407 8.06768 1.10403 8.10703C1.05352 8.14029 0.988445 8.13955 0.933978 8.16541C0.903778 8.17982 0.876995 8.20236 0.844997 8.21178C0.813 8.2212 0.776869 8.21621 0.742535 8.21714C0.738868 8.21679 0.735183 8.21721 0.731695 8.21837C0.72819 8.21956 0.724972 8.22146 0.722222 8.22397C0.720083 8.22732 0.718681 8.23108 0.718087 8.23504C0.717494 8.23899 0.717746 8.24304 0.718806 8.24688C0.735452 8.35611 0.779511 8.45901 0.846615 8.54543C0.913719 8.63185 1.00157 8.69884 1.10151 8.73976C1.11313 8.74354 1.12413 8.74903 1.13423 8.75601C1.16479 8.77948 1.17018 8.82991 1.20487 8.84654C1.2174 8.85106 1.23089 8.85195 1.24386 8.84907C1.25684 8.8462 1.2688 8.8397 1.2784 8.83028C1.29754 8.81134 1.31555 8.79123 1.33232 8.77005C1.364 8.73604 1.40558 8.71356 1.45078 8.70595C1.49249 8.69912 1.53905 8.7041 1.57284 8.67769C1.58666 8.66464 1.59952 8.65057 1.61131 8.63557C1.63635 8.61157 1.66606 8.5933 1.69849 8.58199C1.7871 8.54602 1.88075 8.52487 1.97586 8.51937C2.06448 8.51438 2.15562 8.52269 2.23939 8.49313C2.26114 8.48621 2.28118 8.47455 2.29817 8.45896C2.31618 8.43893 2.32957 8.41501 2.33736 8.38894C2.36757 8.2982 2.37354 8.20077 2.35461 8.10685Z" fill="#6C63FF"/>
<path d="M1.92153 7.59742C1.94633 7.59502 1.97132 7.59742 1.99631 7.59742C2.02561 7.59742 2.05455 7.59003 2.08385 7.58984C2.13025 7.59062 2.17519 7.60662 2.21213 7.6355C2.24905 7.66439 2.27603 7.70463 2.28914 7.7504C2.2916 7.75771 2.29203 7.76557 2.2904 7.77312C2.28942 7.77685 2.2872 7.78009 2.28409 7.78227C2.28098 7.78443 2.27722 7.78539 2.2735 7.78495C2.26377 7.75762 2.25105 7.73153 2.23557 7.70716C2.20771 7.66807 2.168 7.63962 2.12268 7.62624C2.07749 7.61309 2.02989 7.61131 1.9839 7.62107C1.96467 7.62476 1.94598 7.62994 1.92728 7.63529L1.8374 7.66079C1.82086 7.66541 1.80415 7.67003 1.78815 7.67612C1.77574 7.68093 1.75453 7.69848 1.74231 7.69922C1.72577 7.69922 1.73907 7.68444 1.74644 7.67446C1.76111 7.65388 1.78166 7.63853 1.80522 7.63049C1.84258 7.61477 1.88162 7.60366 1.92153 7.59742Z" fill="#6C63FF"/>
<path d="M2.14927 8.63615C2.17102 8.70783 2.19277 8.77969 2.22009 8.84934C2.26893 8.97045 2.33046 9.08573 2.40362 9.19314C2.45073 9.26388 2.50137 9.33209 2.55533 9.39747C2.62274 9.47931 2.69805 9.5617 2.72214 9.66608C2.73598 9.72668 2.73131 9.78967 2.73706 9.85082C2.74281 9.91197 2.76241 9.97792 2.81094 10.0149C2.84581 10.0411 2.89021 10.049 2.93281 10.0561C2.96319 10.0611 3.0013 10.0627 3.0173 10.0356C3.02272 10.0244 3.02562 10.0122 3.02574 9.99972L3.03293 9.90938C3.03455 9.8898 3.04138 9.86486 3.06026 9.86394C3.07913 9.86302 3.08902 9.88906 3.10519 9.90089C3.12677 9.91641 3.15912 9.90089 3.17098 9.87742C3.18076 9.852 3.18139 9.82385 3.17278 9.79799C3.15962 9.74659 3.13606 9.69863 3.10363 9.65725C3.0712 9.61587 3.03063 9.58199 2.98458 9.55782C2.95253 9.54452 2.92177 9.52812 2.89273 9.50887C2.86325 9.48256 2.83885 9.45078 2.82083 9.4152C2.65384 9.1331 2.48613 8.84934 2.36857 8.54193C2.34538 8.48708 2.32965 8.4292 2.32183 8.36993C2.31626 8.30952 2.32525 8.24874 2.3292 8.18815C2.33618 8.0793 2.32634 7.96999 2.30008 7.8643C2.29435 7.83651 2.28414 7.80991 2.26988 7.7856C2.22153 7.70985 2.10811 7.69877 2.0362 7.75087C2.00971 7.7718 1.98773 7.79814 1.97167 7.82825C1.9556 7.85838 1.94581 7.8916 1.94291 7.92581C1.9377 7.98715 1.97221 8.0507 1.98947 8.10779C2.04255 8.28416 2.09583 8.46027 2.14927 8.63615Z" fill="#A1616A"/>
<path d="M3.15499 7.05657C3.15769 7.02775 3.13252 7.00115 3.10394 6.98268C3.07383 6.96683 3.04493 6.94867 3.01748 6.92836C2.99196 6.90564 2.97794 6.87608 2.95241 6.85336C2.9234 6.83065 2.89045 6.81379 2.85534 6.80366C2.78066 6.77675 2.70225 6.76233 2.62311 6.76099C2.54312 6.76099 2.46133 6.77946 2.40111 6.8214C2.38625 6.831 2.37341 6.84357 2.36337 6.85835C2.35387 6.87608 2.34776 6.89552 2.34539 6.91562C2.33105 6.9776 2.31162 7.03823 2.28733 7.09685C2.26235 7.16206 2.23574 7.22968 2.17696 7.28011C2.11405 7.33387 2.01788 7.36491 1.97636 7.42994C1.97176 7.43572 1.96854 7.44252 1.96696 7.44979C1.96536 7.45707 1.96545 7.46463 1.96719 7.47187C1.97313 7.48831 1.99218 7.49958 2.0098 7.50993C2.11189 7.57015 2.19997 7.6483 2.24527 7.74159C2.29057 7.83489 2.28931 7.94481 2.22478 8.03071C2.20105 8.06249 2.16834 8.10018 2.19152 8.13214C2.22747 8.18072 2.34773 8.15283 2.37577 8.20419C2.38458 8.22063 2.37936 8.23929 2.37936 8.25721C2.37936 8.31115 2.42987 8.359 2.49117 8.38394C2.55246 8.40888 2.62347 8.41479 2.69249 8.41793C2.71081 8.37561 2.71262 8.32765 2.69752 8.28399C2.69292 8.27457 2.69111 8.26397 2.69231 8.25351C2.69745 8.24189 2.70545 8.23182 2.7155 8.22432C2.7892 8.15264 2.77356 8.04734 2.72934 7.96217C2.68512 7.87701 2.6161 7.79923 2.59039 7.70963C2.57763 7.66511 2.57763 7.61505 2.61196 7.5781C2.63166 7.56033 2.65291 7.54444 2.67541 7.53062C2.71562 7.50258 2.7466 7.46262 2.76421 7.41608C2.78488 7.35715 2.78219 7.28676 2.84222 7.24704C2.89992 7.21009 2.98099 7.22081 3.0448 7.1955C3.09387 7.17555 3.15104 7.09888 3.15499 7.05657Z" fill="#464353"/>
<defs>
<linearGradient id="paint0_linear" x1="1.67401" y1="6.45609" x2="1.67401" y2="2.92943" gradientUnits="userSpaceOnUse">
<stop stop-color="#808080" stop-opacity="0.25"/>
<stop offset="0.54" stop-color="#808080" stop-opacity="0.12"/>
<stop offset="1" stop-color="#808080" stop-opacity="0.1"/>
</linearGradient>
</defs>
</svg>
