<svg height="512" viewBox="0 0 512 512" width="512" xmlns="http://www.w3.org/2000/svg"><g id="flat"><path d="m72 200h368v128h-368z" fill="#0bafea"/><path d="m140 264h232a20 20 0 0 1 20 20v44a0 0 0 0 1 0 0h-272a0 0 0 0 1 0 0v-44a20 20 0 0 1 20-20z" fill="#026ca2"/><path d="m384 488h-256l24-192h208z" fill="#eaeae8"/><path d="m112 144h288a40 40 0 0 1 40 40v16a0 0 0 0 1 0 0h-368a0 0 0 0 1 0 0v-16a40 40 0 0 1 40-40z" fill="#0a9acd"/><path d="m360 144h-208v-90a30 30 0 0 1 30-30h202v40h-24z" fill="#eaeae8"/><path d="m380 24a20 20 0 0 1 20 20v20a0 0 0 0 1 0 0h-40a0 0 0 0 1 0 0v-20a20 20 0 0 1 20-20z" fill="#cbcbcb"/><path d="m152 144h-40l6.607-39.644a10 10 0 0 1 9.864-8.356h23.529z" fill="#026ca2"/><path d="m360 144h40l-6.607-39.644a10 10 0 0 0 -9.864-8.356h-23.529z" fill="#026ca2"/><path d="m336 240h-8a8 8 0 0 1 0-16h8a8 8 0 0 1 0 16z" fill="#029532"/><path d="m376 240h-8a8 8 0 0 1 0-16h8a8 8 0 0 1 0 16z" fill="#fbb540"/><path d="m272 328h32v64h-32z" fill="#029532"/><path d="m304 360h32v32h-32z" fill="#f2aab6"/><path d="m208 328a32 32 0 0 0 -17.75 58.625l17.75-26.625z" fill="#fbb540"/><path d="m208 328v32l-17.75 26.625a32 32 0 1 0 17.75-58.625z" fill="#ff6268"/><g fill="#cbcbcb"><path d="m224 432h-32a8 8 0 0 1 0-16h32a8 8 0 0 1 0 16z"/><path d="m280 432h-24a8 8 0 0 1 0-16h24a8 8 0 0 1 0 16z"/><path d="m336 432h-24a8 8 0 0 1 0-16h24a8 8 0 0 1 0 16z"/><path d="m344 464h-32a8 8 0 0 1 0-16h32a8 8 0 0 1 0 16z"/><path d="m288 464h-120a8 8 0 0 1 0-16h120a8 8 0 0 1 0 16z"/></g></g></svg>