<svg width="19" height="11" viewBox="0 0 19 11" fill="none" xmlns="http://www.w3.org/2000/svg">
<path d="M1.07014 10.3061C1.04717 10.3065 1.02497 10.3142 1.00677 10.3281C0.952762 10.1869 0.869156 10.0962 0.775229 10.0962C0.681302 10.0962 0.597696 10.1869 0.54369 10.3281C0.525492 10.3142 0.503285 10.3065 0.480324 10.3061C0.373614 10.3061 0.287109 10.4846 0.287109 10.7048H1.26335C1.26335 10.4846 1.17684 10.3061 1.07014 10.3061Z" fill="#6C63FF"/>
<path d="M4.94968 10.6824H0V10.7269H4.94968V10.6824Z" fill="#3F3D56"/>
<path d="M18.6639 9.37051C18.6409 9.37097 18.6187 9.3787 18.6005 9.39256C18.5465 9.25138 18.4629 9.16064 18.369 9.16064C18.2751 9.16064 18.1914 9.25138 18.1374 9.39256C18.1192 9.3787 18.097 9.37097 18.0741 9.37051C17.9674 9.37051 17.8809 9.54903 17.8809 9.76925H18.8571C18.8571 9.54903 18.7706 9.37051 18.6639 9.37051Z" fill="#6C63FF"/>
<path d="M16.5639 2.04409H11.8507V1.948H9.71356V2.04409H4.98092C4.93905 2.04409 4.8976 2.05225 4.85892 2.0681C4.82024 2.08395 4.78509 2.10718 4.75549 2.13647C4.72588 2.16575 4.7024 2.20052 4.68638 2.23878C4.67036 2.27705 4.66211 2.31806 4.66211 2.35947V8.74377C4.66211 8.82742 4.6957 8.90763 4.75549 8.96678C4.81528 9.02592 4.89637 9.05915 4.98092 9.05915H16.5639C16.6485 9.05915 16.7296 9.02592 16.7894 8.96678C16.8491 8.90763 16.8827 8.82742 16.8827 8.74377V2.35947C16.8827 2.31806 16.8745 2.27705 16.8585 2.23878C16.8424 2.20052 16.819 2.16575 16.7894 2.13647C16.7598 2.10718 16.7246 2.08395 16.6859 2.0681C16.6472 2.05225 16.6058 2.04409 16.5639 2.04409V2.04409Z" fill="#3F3D56"/>
<path opacity="0.2" d="M16.4554 2.60156H5.08984V8.94411H16.4554V2.60156Z" fill="black"/>
<path d="M10.7621 2.42863C10.8264 2.42863 10.8786 2.377 10.8786 2.31331C10.8786 2.24963 10.8264 2.198 10.7621 2.198C10.6977 2.198 10.6455 2.24963 10.6455 2.31331C10.6455 2.377 10.6977 2.42863 10.7621 2.42863Z" fill="#6C63FF"/>
<path d="M19.0002 9.72485H2.50879V9.76937H19.0002V9.72485Z" fill="#3F3D56"/>
<path d="M12.3258 4.97142V4.50218C12.3258 4.42657 12.3107 4.35171 12.2815 4.28185C12.2522 4.212 12.2093 4.14853 12.1553 4.09507C12.1013 4.04161 12.0371 3.9992 11.9665 3.97026C11.8959 3.94133 11.8202 3.92644 11.7438 3.92644H11.2694C11.2694 3.8631 11.0636 3.8112 10.8022 3.80628V3.2404C10.8842 3.23018 10.9592 3.18941 11.0119 3.1264C11.0646 3.0634 11.0911 2.98288 11.0859 2.90125C11.0807 2.81962 11.0443 2.74301 10.984 2.68702C10.9238 2.63102 10.8442 2.59985 10.7615 2.59985C10.6788 2.59985 10.5993 2.63102 10.539 2.68702C10.4787 2.74301 10.4423 2.81962 10.4371 2.90125C10.4319 2.98288 10.4584 3.0634 10.5111 3.1264C10.5639 3.18941 10.6389 3.23018 10.7209 3.2404V3.80628C10.4594 3.8112 10.2537 3.8631 10.2537 3.92644H9.69804C9.62161 3.92644 9.54593 3.94133 9.47532 3.97026C9.4047 3.9992 9.34054 4.04161 9.2865 4.09507C9.23245 4.14853 9.18958 4.212 9.16033 4.28185C9.13108 4.35171 9.11603 4.42657 9.11603 4.50218V4.97142C9.04871 4.97142 8.99414 5.19636 8.99414 5.47382C8.99414 5.75129 9.04871 5.97622 9.11603 5.97622V6.52585C9.11603 6.60146 9.13108 6.67632 9.16033 6.74618C9.18958 6.81603 9.23245 6.8795 9.2865 6.93296C9.34054 6.98642 9.4047 7.02883 9.47532 7.05777C9.54593 7.0867 9.62161 7.10159 9.69804 7.10159H11.7438C11.8202 7.10159 11.8959 7.0867 11.9665 7.05777C12.0371 7.02883 12.1013 6.98642 12.1553 6.93296C12.2093 6.8795 12.2522 6.81603 12.2815 6.74618C12.3107 6.67632 12.3258 6.60146 12.3258 6.52585V5.97622C12.3931 5.97622 12.4477 5.75129 12.4477 5.47382C12.4477 5.19636 12.3931 4.97142 12.3258 4.97142Z" fill="#6C63FF"/>
<path d="M9.81356 4.10718H11.6262C11.763 4.10718 11.8942 4.16093 11.9909 4.2566C12.0876 4.35227 12.1419 4.48203 12.1419 4.61733V6.41045C12.1419 6.54575 12.0876 6.67551 11.9909 6.77118C11.8942 6.86686 11.763 6.9206 11.6262 6.9206H9.81356C9.67678 6.9206 9.54561 6.86686 9.4489 6.77118C9.35219 6.67551 9.29785 6.54575 9.29785 6.41045V4.61733C9.29785 4.48203 9.35218 4.35227 9.4489 4.2566C9.54561 4.16093 9.67679 4.10718 9.81356 4.10718Z" fill="#3F3D56"/>
<path d="M10.0707 5.44335C9.9738 5.44324 9.88085 5.40509 9.8123 5.33728C9.74375 5.26947 9.70519 5.17752 9.70508 5.08162C9.70508 5.07629 9.70722 5.07118 9.71103 5.06741C9.71484 5.06364 9.72001 5.06152 9.72539 5.06152C9.73078 5.06152 9.73595 5.06364 9.73976 5.06741C9.74357 5.07118 9.74571 5.07629 9.74571 5.08162C9.74571 5.1669 9.77995 5.24868 9.84091 5.30898C9.90186 5.36928 9.98454 5.40315 10.0707 5.40315C10.1569 5.40315 10.2396 5.36928 10.3006 5.30898C10.3615 5.24868 10.3958 5.1669 10.3958 5.08162C10.3958 5.07629 10.3979 5.07118 10.4017 5.06741C10.4055 5.06364 10.4107 5.06152 10.4161 5.06152C10.4215 5.06152 10.4266 5.06364 10.4305 5.06741C10.4343 5.07118 10.4364 5.07629 10.4364 5.08162C10.4363 5.17752 10.3977 5.26947 10.3292 5.33728C10.2606 5.40509 10.1677 5.44324 10.0707 5.44335V5.44335Z" fill="#6C63FF"/>
<path d="M10.72 6.12688C10.6446 6.12679 10.5723 6.09713 10.5189 6.04438C10.4656 5.99164 10.4356 5.92013 10.4355 5.84554C10.4355 5.84021 10.4377 5.83509 10.4415 5.83133C10.4453 5.82756 10.4505 5.82544 10.4559 5.82544C10.4612 5.82544 10.4664 5.82756 10.4702 5.83133C10.474 5.83509 10.4762 5.84021 10.4762 5.84554C10.4762 5.90949 10.5019 5.97083 10.5476 6.01605C10.5933 6.06128 10.6553 6.08669 10.72 6.08669C10.7846 6.08669 10.8466 6.06128 10.8924 6.01605C10.9381 5.97083 10.9638 5.90949 10.9638 5.84554C10.9638 5.84021 10.9659 5.83509 10.9697 5.83133C10.9735 5.82756 10.9787 5.82544 10.9841 5.82544C10.9895 5.82544 10.9946 5.82756 10.9984 5.83133C11.0022 5.83509 11.0044 5.84021 11.0044 5.84554C11.0043 5.92013 10.9743 5.99164 10.921 6.04438C10.8677 6.09713 10.7954 6.12679 10.72 6.12688Z" fill="#6C63FF"/>
<path d="M11.3705 5.44335C11.2736 5.44324 11.1806 5.40509 11.1121 5.33728C11.0436 5.26947 11.005 5.17752 11.0049 5.08162C11.0049 5.07629 11.007 5.07118 11.0108 5.06741C11.0146 5.06364 11.0198 5.06152 11.0252 5.06152C11.0306 5.06152 11.0358 5.06364 11.0396 5.06741C11.0434 5.07118 11.0455 5.07629 11.0455 5.08162C11.0455 5.1669 11.0798 5.24868 11.1407 5.30898C11.2017 5.36928 11.2843 5.40315 11.3705 5.40315C11.4567 5.40315 11.5394 5.36928 11.6004 5.30898C11.6613 5.24868 11.6956 5.1669 11.6956 5.08162C11.6956 5.07629 11.6977 5.07118 11.7015 5.06741C11.7053 5.06364 11.7105 5.06152 11.7159 5.06152C11.7213 5.06152 11.7264 5.06364 11.7302 5.06741C11.734 5.07118 11.7362 5.07629 11.7362 5.08162C11.7361 5.17752 11.6975 5.26946 11.629 5.33728C11.5604 5.40509 11.4675 5.44324 11.3705 5.44335V5.44335Z" fill="#6C63FF"/>
<path d="M10.0705 5.28262C10.1715 5.28262 10.2533 5.20165 10.2533 5.10176C10.2533 5.00187 10.1715 4.9209 10.0705 4.9209C9.96955 4.9209 9.8877 5.00187 9.8877 5.10176C9.8877 5.20165 9.96955 5.28262 10.0705 5.28262Z" fill="#6C63FF"/>
<path d="M11.3713 5.28262C11.4723 5.28262 11.5541 5.20165 11.5541 5.10176C11.5541 5.00187 11.4723 4.9209 11.3713 4.9209C11.2703 4.9209 11.1885 5.00187 11.1885 5.10176C11.1885 5.20165 11.2703 5.28262 11.3713 5.28262Z" fill="#6C63FF"/>
<path d="M10.7211 6.02625C10.8109 6.02625 10.8837 5.99026 10.8837 5.94586C10.8837 5.90147 10.8109 5.86548 10.7211 5.86548C10.6314 5.86548 10.5586 5.90147 10.5586 5.94586C10.5586 5.99026 10.6314 6.02625 10.7211 6.02625Z" fill="#6C63FF"/>
<path d="M17.2022 8.82862H16.093V8.74956C16.093 8.7475 16.0926 8.74547 16.0918 8.74356C16.091 8.74166 16.0898 8.73993 16.0884 8.73848C16.0869 8.73702 16.0851 8.73587 16.0832 8.73508C16.0813 8.73429 16.0792 8.73389 16.0772 8.73389H15.6969C15.6948 8.73389 15.6927 8.73429 15.6908 8.73508C15.6889 8.73587 15.6871 8.73702 15.6856 8.73848C15.6842 8.73993 15.683 8.74166 15.6822 8.74356C15.6814 8.74547 15.681 8.7475 15.681 8.74956V8.82862H15.4433V8.74956C15.4433 8.7475 15.4429 8.74547 15.4421 8.74356C15.4413 8.74166 15.4401 8.73993 15.4387 8.73848C15.4372 8.73702 15.4355 8.73587 15.4335 8.73508C15.4316 8.73429 15.4295 8.73389 15.4275 8.73389H15.0472C15.0451 8.73389 15.043 8.73429 15.0411 8.73508C15.0392 8.73587 15.0374 8.73702 15.036 8.73848C15.0345 8.73993 15.0333 8.74166 15.0325 8.74356C15.0317 8.74547 15.0313 8.7475 15.0313 8.74956V8.82862H14.7936V8.74956C14.7936 8.7475 14.7932 8.74547 14.7924 8.74356C14.7916 8.74166 14.7905 8.73993 14.789 8.73848C14.7875 8.73702 14.7858 8.73587 14.7838 8.73508C14.7819 8.73429 14.7799 8.73389 14.7778 8.73389H14.3975C14.3954 8.73389 14.3933 8.73429 14.3914 8.73508C14.3895 8.73587 14.3877 8.73702 14.3863 8.73848C14.3848 8.73993 14.3836 8.74166 14.3828 8.74356C14.382 8.74547 14.3816 8.7475 14.3816 8.74956V8.82862H14.1439V8.74956C14.1439 8.7475 14.1435 8.74547 14.1427 8.74356C14.1419 8.74166 14.1408 8.73993 14.1393 8.73848C14.1378 8.73702 14.1361 8.73587 14.1342 8.73508C14.1322 8.73429 14.1302 8.73389 14.1281 8.73389H13.7478C13.7457 8.73389 13.7436 8.73429 13.7417 8.73508C13.7398 8.73587 13.7381 8.73702 13.7366 8.73848C13.7351 8.73993 13.7339 8.74166 13.7331 8.74356C13.7323 8.74547 13.7319 8.7475 13.7319 8.74956V8.82862H13.4942V8.74956C13.4942 8.7475 13.4938 8.74547 13.493 8.74356C13.4922 8.74166 13.4911 8.73993 13.4896 8.73848C13.4881 8.73702 13.4864 8.73587 13.4845 8.73508C13.4825 8.73429 13.4805 8.73389 13.4784 8.73389H13.0981C13.096 8.73389 13.094 8.73429 13.092 8.73508C13.0901 8.73587 13.0884 8.73702 13.0869 8.73848C13.0854 8.73993 13.0843 8.74166 13.0835 8.74356C13.0827 8.74547 13.0823 8.7475 13.0823 8.74956V8.82862H12.8446V8.74956C12.8446 8.7475 12.8441 8.74547 12.8434 8.74356C12.8426 8.74166 12.8414 8.73993 12.8399 8.73848C12.8384 8.73702 12.8367 8.73587 12.8348 8.73508C12.8329 8.73429 12.8308 8.73389 12.8287 8.73389H12.4484C12.4463 8.73389 12.4443 8.73429 12.4423 8.73508C12.4404 8.73587 12.4387 8.73702 12.4372 8.73848C12.4357 8.73993 12.4346 8.74166 12.4338 8.74356C12.433 8.74547 12.4326 8.7475 12.4326 8.74956V8.82862H12.1949V8.74956C12.1949 8.7475 12.1945 8.74547 12.1937 8.74356C12.1929 8.74166 12.1917 8.73993 12.1902 8.73848C12.1888 8.73702 12.187 8.73587 12.1851 8.73508C12.1832 8.73429 12.1811 8.73389 12.179 8.73389H9.19996C9.19788 8.73389 9.19582 8.73429 9.1939 8.73508C9.19198 8.73587 9.19023 8.73702 9.18876 8.73848C9.18729 8.73993 9.18612 8.74166 9.18532 8.74356C9.18453 8.74547 9.18412 8.7475 9.18412 8.74956V8.82862H8.94643V8.74956C8.94643 8.7475 8.94602 8.74547 8.94522 8.74356C8.94442 8.74166 8.94326 8.73993 8.94179 8.73848C8.94031 8.73702 8.93857 8.73587 8.93664 8.73508C8.93472 8.73429 8.93266 8.73389 8.93058 8.73389H8.55027C8.54819 8.73389 8.54613 8.73429 8.54421 8.73508C8.54229 8.73587 8.54054 8.73702 8.53907 8.73848C8.5376 8.73993 8.53643 8.74166 8.53563 8.74356C8.53484 8.74547 8.53443 8.7475 8.53443 8.74956V8.82862H8.29674V8.74956C8.29674 8.7475 8.29633 8.74547 8.29553 8.74356C8.29473 8.74166 8.29357 8.73993 8.29209 8.73848C8.29062 8.73702 8.28888 8.73587 8.28695 8.73508C8.28503 8.73429 8.28297 8.73389 8.28089 8.73389H7.90059C7.8985 8.73389 7.89644 8.73429 7.89452 8.73508C7.8926 8.73587 7.89085 8.73702 7.88938 8.73848C7.88791 8.73993 7.88674 8.74166 7.88594 8.74356C7.88515 8.74547 7.88474 8.7475 7.88474 8.74956V8.82862H7.64705V8.74956C7.64705 8.7475 7.64664 8.74547 7.64584 8.74356C7.64505 8.74166 7.64388 8.73993 7.64241 8.73848C7.64094 8.73702 7.63919 8.73587 7.63727 8.73508C7.63534 8.73429 7.63328 8.73389 7.6312 8.73389H7.2509C7.24881 8.73389 7.24675 8.73429 7.24483 8.73508C7.24291 8.73587 7.24116 8.73702 7.23969 8.73848C7.23822 8.73993 7.23705 8.74166 7.23626 8.74356C7.23546 8.74547 7.23505 8.7475 7.23505 8.74956V8.82862H6.99736V8.74956C6.99736 8.7475 6.99695 8.74547 6.99615 8.74356C6.99536 8.74166 6.99419 8.73993 6.99272 8.73848C6.99125 8.73702 6.9895 8.73587 6.98758 8.73508C6.98565 8.73429 6.98359 8.73389 6.98151 8.73389H6.60121C6.59913 8.73389 6.59707 8.73429 6.59514 8.73508C6.59322 8.73587 6.59147 8.73702 6.59 8.73848C6.58853 8.73993 6.58736 8.74166 6.58657 8.74356C6.58577 8.74547 6.58536 8.7475 6.58536 8.74956V8.82862H6.34767V8.74956C6.34767 8.7475 6.34726 8.74547 6.34646 8.74356C6.34567 8.74166 6.3445 8.73993 6.34303 8.73848C6.34156 8.73702 6.33981 8.73587 6.33789 8.73508C6.33597 8.73429 6.3339 8.73389 6.33182 8.73389H5.95152C5.94944 8.73389 5.94738 8.73429 5.94545 8.73508C5.94353 8.73587 5.94178 8.73702 5.94031 8.73848C5.93884 8.73993 5.93767 8.74166 5.93688 8.74356C5.93608 8.74547 5.93567 8.7475 5.93567 8.74956V8.82862H5.69798V8.74956C5.69798 8.7475 5.69757 8.74547 5.69677 8.74356C5.69598 8.74166 5.69481 8.73993 5.69334 8.73848C5.69187 8.73702 5.69012 8.73587 5.6882 8.73508C5.68628 8.73429 5.68422 8.73389 5.68214 8.73389H5.30183C5.29975 8.73389 5.29769 8.73429 5.29577 8.73508C5.29384 8.73587 5.2921 8.73702 5.29062 8.73848C5.28915 8.73993 5.28799 8.74166 5.28719 8.74356C5.28639 8.74547 5.28598 8.7475 5.28598 8.74956V8.82862H4.55706C4.50712 8.82862 4.45767 8.83835 4.41153 8.85726C4.36539 8.87616 4.32346 8.90387 4.28815 8.93881C4.25283 8.97374 4.22482 9.01522 4.20571 9.06086C4.18659 9.1065 4.17676 9.15543 4.17676 9.20483V9.37494C4.17676 9.47472 4.21683 9.57041 4.28815 9.64096C4.35947 9.71151 4.4562 9.75115 4.55706 9.75115H17.2022C17.3031 9.75115 17.3998 9.71151 17.4711 9.64096C17.5425 9.57041 17.5825 9.47472 17.5825 9.37494V9.20483C17.5825 9.15543 17.5727 9.1065 17.5536 9.06086C17.5345 9.01522 17.5065 8.97374 17.4711 8.93881C17.4358 8.90387 17.3939 8.87616 17.3478 8.85726C17.3016 8.83835 17.2522 8.82862 17.2022 8.82862V8.82862Z" fill="#3F3D56"/>
<path d="M14.4101 7.07617H6.82812V7.12068H14.4101V7.07617Z" fill="#6C63FF"/>
<path d="M7.36835 7.05399H5.50098C5.56074 6.35788 5.56074 5.65802 5.50098 4.96191H7.36835C7.26554 5.67844 7.25953 6.37692 7.36835 7.05399Z" fill="#D0CDE1"/>
<path d="M7.1214 5.38477H5.77148V5.47379H7.1214V5.38477Z" fill="#3F3D56"/>
<path d="M7.1214 5.67407H5.77148V5.76311H7.1214V5.67407Z" fill="#3F3D56"/>
<path d="M7.1214 5.96338H5.77148V6.0524H7.1214V5.96338Z" fill="#3F3D56"/>
<path d="M7.1214 6.25293H5.77148V6.34195H7.1214V6.25293Z" fill="#3F3D56"/>
<path d="M7.1214 6.54224H5.77148V6.63126H7.1214V6.54224Z" fill="#3F3D56"/>
<path d="M2.40643 0.0713836C2.40643 0.0713836 2.11303 -0.0322757 1.92441 0.382361C1.73579 0.796997 1.44238 1.2531 1.44238 1.2531L1.61004 1.29456C1.61004 1.29456 1.65196 1.00432 1.75675 0.962852L1.71483 1.33602C1.71483 1.33602 2.97229 1.77139 3.53815 1.29456L3.51719 1.14944C3.51719 1.14944 3.60102 1.17017 3.60102 1.29456L3.66389 1.23237C3.66389 1.23237 3.60102 1.10797 3.4124 0.94212C3.2886 0.83326 3.24606 0.626156 3.23144 0.496671C3.22048 0.38855 3.17675 0.286227 3.10598 0.203122C2.98063 0.0594177 2.75223 -0.0933193 2.40643 0.0713836Z" fill="#2F2E41"/>
<path d="M1.55957 9.21704L1.64956 9.72893L2.00954 9.66216L2.07704 9.21704H1.55957Z" fill="#FFB9B9"/>
<path d="M2.07698 9.50635L1.58201 9.55086L1.60451 9.95147L1.58201 10.4634C1.58201 10.4634 1.28953 11.042 1.717 10.9975C2.14448 10.953 2.09948 10.7304 2.09948 10.7304L2.21197 10.5969L2.14448 10.2631L2.07698 9.50635Z" fill="#2F2E41"/>
<path d="M3.58485 9.21704L3.49485 9.72893L3.13488 9.66216L3.06738 9.21704H3.58485Z" fill="#FFB9B9"/>
<path d="M3.06761 9.50635L3.56258 9.55086L3.54008 9.95147L3.56258 10.4634C3.56258 10.4634 3.85506 11.042 3.42758 10.9975C3.00011 10.953 3.04511 10.7304 3.04511 10.7304L2.93262 10.5969L3.00011 10.2631L3.06761 9.50635Z" fill="#2F2E41"/>
<path d="M2.54969 1.44956C2.83548 1.44956 3.06715 1.22038 3.06715 0.937672C3.06715 0.654963 2.83548 0.425781 2.54969 0.425781C2.2639 0.425781 2.03223 0.654963 2.03223 0.937672C2.03223 1.22038 2.2639 1.44956 2.54969 1.44956Z" fill="#FFB9B9"/>
<path d="M2.21191 1.20483L2.27941 2.00605L2.90937 1.9838C2.90937 1.9838 2.72938 1.47191 2.84187 1.2716L2.21191 1.20483Z" fill="#FFB9B9"/>
<path d="M2.5722 1.85031L2.83133 1.69043L3.11216 1.82806L3.56213 2.02836L3.40464 3.92013C3.40464 3.92013 3.76462 5.09971 3.69712 5.67837C3.62963 6.25702 4.43957 9.15032 3.78712 9.28386C3.13466 9.41739 2.66219 9.55093 2.63969 9.32837C2.61719 9.10581 2.5722 5.70062 2.5722 5.70062C2.5722 5.70062 2.5047 9.30611 2.23472 9.35063C1.96474 9.39514 0.794813 9.57319 0.884807 9.30611C0.974801 9.03904 1.58226 4.36525 1.87474 4.09818L1.91974 3.87562L1.53726 2.07287L2.25551 1.71876L2.5722 1.85031Z" fill="#2F2E41"/>
<path d="M1.2217 4.61011L1.1992 5.52262C1.1992 5.52262 0.982633 6.42353 1.34965 6.4182C1.71667 6.41288 1.44669 5.52262 1.44669 5.52262L1.60417 4.63236L1.2217 4.61011Z" fill="#FFB9B9"/>
<path d="M4.62435 3.65234L5.25663 4.31712C5.25663 4.31712 6.02564 4.84515 5.74869 5.08345C5.47174 5.32175 5.07231 4.48049 5.07231 4.48049L4.35449 3.92139L4.62435 3.65234Z" fill="#FFB9B9"/>
<path d="M1.88574 4.04262L3.42667 3.99588L3.40665 3.89239V3.89194L1.91724 3.86523L1.88574 4.04262Z" fill="#D0CDE1"/>
<path d="M2.2014 4.0869C2.27595 4.0869 2.33639 4.02711 2.33639 3.95336C2.33639 3.87961 2.27595 3.81982 2.2014 3.81982C2.12684 3.81982 2.06641 3.87961 2.06641 3.95336C2.06641 4.02711 2.12684 4.0869 2.2014 4.0869Z" fill="#2F2E41"/>
<path d="M1.7175 2.09515L1.57126 2.06177C1.57126 2.06177 1.38003 2.13966 1.33503 2.38448C1.29003 2.6293 0.705074 4.54333 0.997554 4.65461C1.29003 4.76589 1.7175 4.8104 1.7175 4.76589C1.7175 4.72137 1.89749 3.05217 1.89749 3.05217L1.7175 2.09515Z" fill="#2F2E41"/>
<path d="M3.09375 2.17992L3.5625 2.02832C3.5625 2.02832 3.78749 2.02832 3.78749 2.27314C3.78749 2.37413 4.21868 3.20371 4.21868 3.20371C4.21868 3.20371 5.25474 3.93426 5.09613 3.96041C4.82615 4.00493 4.66866 4.47231 4.66866 4.47231L3.65622 3.58206L3.09375 2.17992Z" fill="#2F2E41"/>
<path d="M1.91842 0.975899C1.91842 0.975899 2.08608 0.747849 2.23278 0.706385C2.37949 0.664921 2.40045 0.457603 2.40045 0.457603C2.40045 0.457603 2.77769 0.87224 3.00822 0.892971C3.23876 0.913702 3.02918 0.395407 3.02918 0.395407L2.61002 0.291748L2.21183 0.333211L1.89746 0.54053L1.91842 0.975899Z" fill="#2F2E41"/>
<path d="M2.04406 0.960071C2.08133 0.960071 2.11155 0.915231 2.11155 0.859918C2.11155 0.804605 2.08133 0.759766 2.04406 0.759766C2.00678 0.759766 1.97656 0.804605 1.97656 0.859918C1.97656 0.915231 2.00678 0.960071 2.04406 0.960071Z" fill="#FFB9B9"/>
</svg>
