<svg width="2767" height="1602" viewBox="0 0 2767 1602" fill="none" xmlns="http://www.w3.org/2000/svg">
<g clip-path="url(#clip0)">
<path d="M155.847 1500.94C152.501 1501 149.268 1502.12 146.618 1504.15C138.753 1483.58 126.577 1470.37 112.898 1470.37C99.2194 1470.37 87.0438 1483.58 79.1788 1504.15C76.5286 1502.12 73.2946 1501 69.9507 1500.94C54.4104 1500.94 41.8125 1526.94 41.8125 1559.01H183.984C183.984 1526.94 171.385 1500.94 155.847 1500.94Z" fill="#6C63FF"/>
<path d="M720.83 1555.78H0V1562.26H720.83V1555.78Z" fill="#3F3D56"/>
<path d="M2718.05 1364.69C2714.7 1364.75 2711.46 1365.88 2708.81 1367.9C2700.95 1347.34 2688.78 1334.12 2675.1 1334.12C2661.43 1334.12 2649.24 1347.34 2641.37 1367.9C2638.72 1365.88 2635.49 1364.75 2632.15 1364.69C2616.61 1364.69 2604.02 1390.69 2604.02 1422.76H2746.18C2746.18 1390.69 2733.59 1364.69 2718.05 1364.69Z" fill="#6C63FF"/>
<path d="M2412.23 297.729H1725.84V283.735H1414.6V297.729H725.379C719.281 297.729 713.245 298.917 707.612 301.226C701.979 303.534 696.86 306.917 692.549 311.183C688.237 315.447 684.818 320.511 682.485 326.083C680.152 331.657 678.95 337.629 678.95 343.66V1273.45C678.95 1285.63 683.842 1297.31 692.549 1305.92C701.257 1314.54 713.066 1319.38 725.379 1319.38H2412.23C2424.55 1319.38 2436.36 1314.54 2445.07 1305.92C2453.76 1297.31 2458.65 1285.63 2458.65 1273.45V343.66C2458.65 337.629 2457.46 331.657 2455.13 326.083C2452.79 320.511 2449.38 315.447 2445.07 311.183C2440.76 306.917 2435.63 303.534 2429.99 301.226C2424.36 298.917 2418.33 297.729 2412.23 297.729Z" fill="#3F3D56"/>
<path opacity="0.2" d="M2396.43 378.882H741.242V1302.59H2396.43V378.882Z" fill="black"/>
<path d="M1567.3 353.732C1576.67 353.732 1584.27 346.212 1584.27 336.937C1584.27 327.663 1576.67 320.144 1567.3 320.144C1557.92 320.144 1550.32 327.663 1550.32 336.937C1550.32 346.212 1557.92 353.732 1567.3 353.732Z" fill="#6C63FF"/>
<path d="M2767.03 1416.26H365.359V1422.74H2767.03V1416.26Z" fill="#3F3D56"/>
<path d="M1795.03 723.984V655.646C1795.03 644.635 1792.83 633.732 1788.57 623.558C1784.31 613.385 1778.06 604.142 1770.2 596.356C1762.33 588.57 1752.98 582.394 1742.7 578.179C1732.42 573.966 1721.39 571.797 1710.27 571.797H1641.18C1641.18 562.573 1611.21 555.014 1573.14 554.298V471.885C1585.08 470.397 1596.01 464.459 1603.68 455.282C1611.36 446.107 1615.21 434.381 1614.46 422.492C1613.7 410.604 1608.4 399.447 1599.62 391.293C1590.85 383.137 1579.26 378.598 1567.21 378.598C1555.17 378.598 1543.59 383.137 1534.81 391.293C1526.03 399.447 1520.73 410.604 1519.97 422.492C1519.21 434.381 1523.07 446.107 1530.75 455.282C1538.44 464.459 1549.36 470.397 1561.3 471.885V554.298C1523.22 555.014 1493.26 562.573 1493.26 571.797H1412.34C1401.21 571.797 1390.19 573.966 1379.91 578.179C1369.62 582.394 1360.28 588.57 1352.41 596.356C1344.54 604.142 1338.29 613.385 1334.03 623.558C1329.77 633.732 1327.58 644.635 1327.58 655.646V723.984C1317.78 723.984 1309.83 756.744 1309.83 797.152C1309.83 837.562 1317.78 870.32 1327.58 870.32V950.366C1327.58 961.378 1329.77 972.28 1334.03 982.454C1338.29 992.627 1344.54 1001.87 1352.41 1009.66C1360.28 1017.44 1369.62 1023.62 1379.91 1027.83C1390.19 1032.05 1401.21 1034.21 1412.34 1034.21H1710.27C1721.39 1034.21 1732.42 1032.05 1742.7 1027.83C1752.98 1023.62 1762.33 1017.44 1770.2 1009.66C1778.06 1001.87 1784.31 992.627 1788.57 982.454C1792.83 972.28 1795.03 961.378 1795.03 950.366V870.32C1804.83 870.32 1812.78 837.562 1812.78 797.152C1812.78 756.744 1804.83 723.984 1795.03 723.984Z" fill="#6C63FF"/>
<path d="M1429.16 598.19H1693.14C1713.06 598.19 1732.17 606.018 1746.25 619.951C1760.34 633.884 1768.24 652.782 1768.24 672.486V933.63C1768.24 953.334 1760.34 972.232 1746.25 986.165C1732.17 1000.1 1713.06 1007.93 1693.14 1007.93H1429.16C1409.24 1007.93 1390.14 1000.1 1376.06 986.165C1361.97 972.232 1354.06 953.334 1354.06 933.63V672.486C1354.06 652.782 1361.97 633.884 1376.06 619.951C1390.14 606.018 1409.25 598.19 1429.16 598.19Z" fill="#3F3D56"/>
<path d="M1466.61 792.75C1452.5 792.734 1438.96 787.178 1428.98 777.303C1419 767.427 1413.38 754.036 1413.37 740.069C1413.37 739.293 1413.68 738.549 1414.23 738C1414.79 737.451 1415.54 737.142 1416.32 737.142C1417.11 737.142 1417.86 737.451 1418.42 738C1418.97 738.549 1419.28 739.293 1419.28 740.069C1419.28 752.489 1424.27 764.399 1433.15 773.181C1442.02 781.963 1454.06 786.896 1466.61 786.896C1479.17 786.896 1491.21 781.963 1500.09 773.181C1508.96 764.399 1513.96 752.489 1513.96 740.069C1513.96 739.293 1514.26 738.549 1514.82 738C1515.37 737.451 1516.13 737.142 1516.91 737.142C1517.7 737.142 1518.44 737.451 1519.01 738C1519.56 738.549 1519.87 739.293 1519.87 740.069C1519.86 754.036 1514.23 767.427 1504.26 777.303C1494.27 787.178 1480.74 792.734 1466.61 792.75Z" fill="#6C63FF"/>
<path d="M1561.18 892.332C1550.2 892.319 1539.67 887.999 1531.89 880.317C1524.13 872.636 1519.76 862.221 1519.75 851.358C1519.75 850.582 1520.07 849.837 1520.62 849.289C1521.17 848.74 1521.93 848.431 1522.72 848.431C1523.49 848.431 1524.25 848.74 1524.8 849.289C1525.35 849.837 1525.67 850.582 1525.67 851.358C1525.67 860.672 1529.41 869.605 1536.07 876.191C1542.73 882.778 1551.75 886.479 1561.18 886.479C1570.59 886.479 1579.61 882.778 1586.28 876.191C1592.94 869.605 1596.68 860.672 1596.68 851.358C1596.68 850.582 1596.99 849.837 1597.54 849.289C1598.09 848.74 1598.85 848.431 1599.64 848.431C1600.42 848.431 1601.17 848.74 1601.72 849.289C1602.27 849.837 1602.59 850.582 1602.59 851.358C1602.58 862.221 1598.21 872.636 1590.45 880.317C1582.69 887.999 1572.16 892.319 1561.18 892.332Z" fill="#6C63FF"/>
<path d="M1655.9 792.75C1641.79 792.734 1628.25 787.178 1618.27 777.303C1608.29 767.427 1602.67 754.036 1602.66 740.069C1602.66 739.293 1602.96 738.549 1603.52 738C1604.07 737.451 1604.83 737.142 1605.61 737.142C1606.4 737.142 1607.16 737.451 1607.71 738C1608.27 738.549 1608.57 739.293 1608.57 740.069C1608.57 752.489 1613.57 764.399 1622.43 773.181C1631.32 781.963 1643.35 786.896 1655.9 786.896C1668.45 786.896 1680.5 781.963 1689.38 773.181C1698.25 764.399 1703.25 752.489 1703.25 740.069C1703.25 739.293 1703.55 738.549 1704.1 738C1704.66 737.451 1705.42 737.142 1706.2 737.142C1706.99 737.142 1707.73 737.451 1708.28 738C1708.84 738.549 1709.16 739.293 1709.16 740.069C1709.14 754.036 1703.52 767.426 1693.55 777.303C1683.56 787.178 1670.03 792.734 1655.9 792.75Z" fill="#6C63FF"/>
<path d="M1466.58 769.341C1481.29 769.341 1493.2 757.549 1493.2 743.001C1493.2 728.454 1481.29 716.662 1466.58 716.662C1451.88 716.662 1439.96 728.454 1439.96 743.001C1439.96 757.549 1451.88 769.341 1466.58 769.341Z" fill="#FF88FF"/>
<path d="M1656.02 769.341C1670.73 769.341 1682.64 757.549 1682.64 743.001C1682.64 728.454 1670.73 716.662 1656.02 716.662C1641.31 716.662 1629.4 728.454 1629.4 743.001C1629.4 757.549 1641.31 769.341 1656.02 769.341Z" fill="#FF88FF"/>
<path d="M1561.33 877.676C1574.41 877.676 1585.01 872.435 1585.01 865.968C1585.01 859.504 1574.41 854.262 1561.33 854.262C1548.27 854.262 1537.67 859.504 1537.67 865.968C1537.67 872.435 1548.27 877.676 1561.33 877.676Z" fill="#6C63FF"/>
<path d="M2505.18 1285.77H2343.65V1274.25C2343.65 1273.95 2343.59 1273.66 2343.47 1273.38C2343.36 1273.1 2343.18 1272.85 2342.98 1272.64C2342.76 1272.43 2342.5 1272.26 2342.22 1272.15C2341.94 1272.03 2341.64 1271.97 2341.35 1271.97H2285.96C2285.66 1271.97 2285.35 1272.03 2285.08 1272.15C2284.8 1272.26 2284.54 1272.43 2284.32 1272.64C2284.11 1272.85 2283.94 1273.1 2283.82 1273.38C2283.71 1273.66 2283.65 1273.95 2283.65 1274.25V1285.77H2249.03V1274.25C2249.03 1273.95 2248.97 1273.66 2248.86 1273.38C2248.74 1273.1 2248.57 1272.85 2248.36 1272.64C2248.14 1272.43 2247.9 1272.26 2247.6 1272.15C2247.33 1272.03 2247.02 1271.97 2246.73 1271.97H2191.35C2191.04 1271.97 2190.74 1272.03 2190.46 1272.15C2190.18 1272.26 2189.92 1272.43 2189.72 1272.64C2189.5 1272.85 2189.32 1273.1 2189.21 1273.38C2189.09 1273.66 2189.03 1273.95 2189.03 1274.25V1285.77H2154.41V1274.25C2154.41 1273.95 2154.36 1273.66 2154.24 1273.38C2154.12 1273.1 2153.96 1272.85 2153.74 1272.64C2153.53 1272.43 2153.28 1272.26 2152.99 1272.15C2152.71 1272.03 2152.42 1271.97 2152.11 1271.97H2096.73C2096.42 1271.97 2096.12 1272.03 2095.84 1272.15C2095.56 1272.26 2095.3 1272.43 2095.1 1272.64C2094.88 1272.85 2094.71 1273.1 2094.59 1273.38C2094.47 1273.66 2094.41 1273.95 2094.41 1274.25V1285.77H2059.8V1274.25C2059.8 1273.95 2059.74 1273.66 2059.62 1273.38C2059.51 1273.1 2059.35 1272.85 2059.13 1272.64C2058.91 1272.43 2058.66 1272.26 2058.39 1272.15C2058.09 1272.03 2057.8 1271.97 2057.5 1271.97H2002.11C2001.81 1271.97 2001.5 1272.03 2001.22 1272.15C2000.95 1272.26 2000.7 1272.43 2000.48 1272.64C2000.26 1272.85 2000.09 1273.1 1999.97 1273.38C1999.86 1273.66 1999.8 1273.95 1999.8 1274.25V1285.77H1965.18V1274.25C1965.18 1273.95 1965.12 1273.66 1965.01 1273.38C1964.89 1273.1 1964.73 1272.85 1964.51 1272.64C1964.29 1272.43 1964.05 1272.26 1963.77 1272.15C1963.48 1272.03 1963.19 1271.97 1962.88 1271.97H1907.5C1907.19 1271.97 1906.9 1272.03 1906.61 1272.15C1906.33 1272.26 1906.08 1272.43 1905.87 1272.64C1905.65 1272.85 1905.49 1273.1 1905.37 1273.38C1905.25 1273.66 1905.2 1273.95 1905.2 1274.25V1285.77H1870.58V1274.25C1870.58 1273.95 1870.51 1273.66 1870.4 1273.38C1870.29 1273.1 1870.11 1272.85 1869.89 1272.64C1869.68 1272.43 1869.43 1272.26 1869.15 1272.15C1868.87 1272.03 1868.57 1271.97 1868.26 1271.97H1812.88C1812.57 1271.97 1812.28 1272.03 1811.99 1272.15C1811.71 1272.26 1811.47 1272.43 1811.25 1272.64C1811.03 1272.85 1810.87 1273.1 1810.75 1273.38C1810.64 1273.66 1810.58 1273.95 1810.58 1274.25V1285.77H1775.96V1274.25C1775.96 1273.95 1775.9 1273.66 1775.79 1273.38C1775.67 1273.1 1775.5 1272.85 1775.28 1272.64C1775.07 1272.43 1774.81 1272.26 1774.53 1272.15C1774.26 1272.03 1773.95 1271.97 1773.65 1271.97H1339.8C1339.5 1271.97 1339.2 1272.03 1338.92 1272.15C1338.64 1272.26 1338.39 1272.43 1338.17 1272.64C1337.96 1272.85 1337.79 1273.1 1337.67 1273.38C1337.56 1273.66 1337.5 1273.95 1337.5 1274.25V1285.77H1302.88V1274.25C1302.88 1273.95 1302.82 1273.66 1302.71 1273.38C1302.59 1273.1 1302.42 1272.85 1302.21 1272.64C1301.99 1272.43 1301.74 1272.26 1301.46 1272.15C1301.18 1272.03 1300.88 1271.97 1300.57 1271.97H1245.19C1244.89 1271.97 1244.59 1272.03 1244.31 1272.15C1244.03 1272.26 1243.77 1272.43 1243.56 1272.64C1243.34 1272.85 1243.17 1273.1 1243.06 1273.38C1242.94 1273.66 1242.88 1273.95 1242.88 1274.25V1285.77H1208.27V1274.25C1208.27 1273.95 1208.21 1273.66 1208.09 1273.38C1207.97 1273.1 1207.81 1272.85 1207.59 1272.64C1207.38 1272.43 1207.12 1272.26 1206.84 1272.15C1206.56 1272.03 1206.26 1271.97 1205.96 1271.97H1150.57C1150.27 1271.97 1149.97 1272.03 1149.69 1272.15C1149.41 1272.26 1149.16 1272.43 1148.94 1272.64C1148.73 1272.85 1148.56 1273.1 1148.44 1273.38C1148.33 1273.66 1148.27 1273.95 1148.27 1274.25V1285.77H1113.65V1274.25C1113.65 1273.95 1113.59 1273.66 1113.48 1273.38C1113.36 1273.1 1113.19 1272.85 1112.98 1272.64C1112.76 1272.43 1112.51 1272.26 1112.23 1272.15C1111.95 1272.03 1111.65 1271.97 1111.34 1271.97H1055.96C1055.66 1271.97 1055.36 1272.03 1055.08 1272.15C1054.8 1272.26 1054.54 1272.43 1054.33 1272.64C1054.11 1272.85 1053.94 1273.1 1053.83 1273.38C1053.71 1273.66 1053.65 1273.95 1053.65 1274.25V1285.77H1019.04V1274.25C1019.04 1273.95 1018.98 1273.66 1018.86 1273.38C1018.74 1273.1 1018.57 1272.85 1018.36 1272.64C1018.15 1272.43 1017.89 1272.26 1017.61 1272.15C1017.33 1272.03 1017.03 1271.97 1016.73 1271.97H961.344C961.041 1271.97 960.741 1272.03 960.46 1272.15C960.18 1272.26 959.926 1272.43 959.712 1272.64C959.497 1272.85 959.327 1273.1 959.212 1273.38C959.095 1273.66 959.036 1273.95 959.036 1274.25V1285.77H924.421V1274.25C924.421 1273.95 924.361 1273.66 924.244 1273.38C924.129 1273.1 923.959 1272.85 923.745 1272.64C923.531 1272.43 923.276 1272.26 922.996 1272.15C922.717 1272.03 922.415 1271.97 922.112 1271.97H866.729C866.426 1271.97 866.126 1272.03 865.845 1272.15C865.565 1272.26 865.31 1272.43 865.096 1272.64C864.882 1272.85 864.712 1273.1 864.597 1273.38C864.48 1273.66 864.42 1273.95 864.42 1274.25V1285.77H829.805V1274.25C829.805 1273.95 829.746 1273.66 829.629 1273.38C829.514 1273.1 829.344 1272.85 829.129 1272.64C828.915 1272.43 828.661 1272.26 828.381 1272.15C828.101 1272.03 827.801 1271.97 827.498 1271.97H772.113C771.81 1271.97 771.51 1272.03 771.231 1272.15C770.95 1272.26 770.696 1272.43 770.481 1272.64C770.267 1272.85 770.098 1273.1 769.981 1273.38C769.865 1273.66 769.805 1273.95 769.805 1274.25V1285.77H663.651C656.378 1285.77 649.177 1287.18 642.457 1289.94C635.738 1292.69 629.632 1296.73 624.489 1301.82C619.346 1306.9 615.267 1312.94 612.484 1319.59C609.699 1326.24 608.268 1333.36 608.268 1340.56V1365.33C608.268 1379.86 614.103 1393.8 624.489 1404.07C634.876 1414.35 648.963 1420.12 663.651 1420.12H2505.18C2519.88 1420.12 2533.96 1414.35 2544.34 1404.07C2554.74 1393.8 2560.57 1379.86 2560.57 1365.33V1340.56C2560.57 1333.36 2559.14 1326.24 2556.36 1319.59C2553.58 1312.94 2549.5 1306.9 2544.34 1301.82C2539.2 1296.73 2533.1 1292.69 2526.39 1289.94C2519.66 1287.18 2512.46 1285.77 2505.18 1285.77Z" fill="#3F3D56"/>
<path d="M2098.57 1030.55H994.391V1037.03H2098.57V1030.55Z" fill="#6C63FF"/>
<path d="M1073.06 1027.32H801.116C809.819 925.939 809.819 824.014 801.116 722.635H1073.06C1058.09 826.988 1057.22 928.712 1073.06 1027.32Z" fill="#D0CDE1"/>
<path d="M1037.1 784.218H840.511V797.182H1037.1V784.218Z" fill="#3F3D56"/>
<path d="M1037.1 826.316H840.511V839.283H1037.1V826.316Z" fill="#3F3D56"/>
<path d="M1037.1 868.485H840.511V881.449H1037.1V868.485Z" fill="#3F3D56"/>
<path d="M1037.1 910.654H840.511V923.618H1037.1V910.654Z" fill="#3F3D56"/>
<path d="M1037.1 952.823H840.511V965.787H1037.1V952.823Z" fill="#3F3D56"/>
<path d="M350.453 10.396C350.453 10.396 307.724 -4.70052 280.255 55.6857C252.786 116.072 210.057 182.497 210.057 182.497L234.473 188.535C234.473 188.535 240.578 146.266 255.839 140.226L249.734 194.573C249.734 194.573 432.86 257.979 515.267 188.535L512.215 167.4C512.215 167.4 524.423 170.419 524.423 188.535L533.579 179.478C533.579 179.478 524.423 161.361 496.954 137.207C478.925 121.353 472.729 91.1911 470.6 72.3334C469.004 56.587 462.636 41.6851 452.329 29.582C434.074 8.65338 400.812 -13.5907 350.453 10.396Z" fill="#2F2E41"/>
<path d="M227.123 1342.3L240.228 1416.85L292.653 1407.13L302.483 1342.3H227.123Z" fill="#FFB9B9"/>
<path d="M302.474 1384.47L230.391 1390.95L233.668 1449.3L230.391 1523.85C230.391 1523.85 187.797 1608.12 250.05 1601.64C312.304 1595.15 305.751 1562.74 305.751 1562.74L322.133 1543.29L312.304 1494.68L302.474 1384.47Z" fill="#2F2E41"/>
<path d="M522.068 1342.3L508.961 1416.85L456.538 1407.13L446.708 1342.3H522.068Z" fill="#FFB9B9"/>
<path d="M446.741 1384.47L518.824 1390.95L515.547 1449.3L518.824 1523.85C518.824 1523.85 561.418 1608.12 499.164 1601.64C436.911 1595.15 443.464 1562.74 443.464 1562.74L427.082 1543.29L436.911 1494.68L446.741 1384.47Z" fill="#2F2E41"/>
<path d="M371.315 211.109C412.935 211.109 446.673 177.732 446.673 136.559C446.673 95.3865 412.935 62.0093 371.315 62.0093C329.695 62.0093 295.956 95.3865 295.956 136.559C295.956 177.732 329.695 211.109 371.315 211.109Z" fill="#FFB9B9"/>
<path d="M322.125 175.432L331.955 292.119L423.697 288.878C423.697 288.878 397.485 214.329 413.867 185.156L322.125 175.432Z" fill="#FFB9B9"/>
<path d="M374.594 269.472L412.331 246.188L453.229 266.232L518.759 295.403L495.823 570.913C495.823 570.913 548.247 742.703 538.417 826.977C528.589 911.25 646.542 1332.62 551.524 1352.07C456.505 1371.51 387.699 1390.96 384.422 1358.55C381.145 1326.14 374.594 830.217 374.594 830.217C374.594 830.217 364.763 1355.31 325.446 1361.79C286.128 1368.27 115.75 1394.2 128.856 1355.31C141.962 1316.41 230.427 635.739 273.021 596.844L279.575 564.431L223.874 301.885L328.473 250.314L374.594 269.472Z" fill="#2F2E41"/>
<path d="M177.919 671.435L174.642 804.329C174.642 804.329 143.103 935.534 196.552 934.758C250.002 933.983 210.684 804.329 210.684 804.329L233.618 674.675L177.919 671.435Z" fill="#FFB9B9"/>
<path d="M673.452 531.914L765.531 628.73C765.531 628.73 877.524 705.631 837.191 740.336C796.858 775.041 738.689 652.523 738.689 652.523L634.151 571.098L673.452 531.914Z" fill="#FFB9B9"/>
<path d="M274.624 588.753L499.032 581.946L496.117 566.874V566.808L279.211 562.918L274.624 588.753Z" fill="#D0CDE1"/>
<path d="M320.592 595.202C331.449 595.202 340.251 586.494 340.251 575.753C340.251 565.013 331.449 556.305 320.592 556.305C309.734 556.305 300.934 565.013 300.934 575.753C300.934 586.494 309.734 595.202 320.592 595.202Z" fill="#2F2E41"/>
<path d="M250.122 305.165L228.825 300.304C228.825 300.304 200.976 311.647 194.422 347.302C187.869 382.957 102.681 661.709 145.275 677.916C187.869 694.122 250.122 700.604 250.122 694.122C250.122 687.638 276.334 444.542 276.334 444.542L250.122 305.165Z" fill="#2F2E41"/>
<path d="M450.548 317.475L518.813 295.397C518.813 295.397 551.578 295.397 551.578 331.052C551.578 345.759 614.373 466.577 614.373 466.577C614.373 466.577 765.256 572.971 742.158 576.78C702.84 583.263 679.905 651.331 679.905 651.331L532.461 521.678L450.548 317.475Z" fill="#2F2E41"/>
<path d="M279.383 142.091C279.383 142.091 303.799 108.879 325.163 102.84C346.529 96.8012 349.581 66.6081 349.581 66.6081C349.581 66.6081 404.519 126.994 438.092 130.014C471.666 133.033 441.144 57.5501 441.144 57.5501L380.101 42.4536L322.112 48.4921L276.33 78.6853L279.383 142.091Z" fill="#2F2E41"/>
<path d="M297.68 139.821C303.107 139.821 307.508 133.291 307.508 125.235C307.508 117.18 303.107 110.649 297.68 110.649C292.251 110.649 287.85 117.18 287.85 125.235C287.85 133.291 292.251 139.821 297.68 139.821Z" fill="#FFB9B9"/>
</g>
<defs>
<clipPath id="clip0">
<rect width="2767" height="1602" fill="white"/>
</clipPath>
</defs>
</svg>
