<?xml version="1.0" encoding="iso-8859-1"?>
<!-- Generator: Adobe Illustrator 19.0.0, SVG Export Plug-In . SVG Version: 6.00 Build 0)  -->
<svg version="1.1" id="Layer_1" xmlns="http://www.w3.org/2000/svg" xmlns:xlink="http://www.w3.org/1999/xlink" x="0px" y="0px"
	 viewBox="0 0 504.135 504.135" style="enable-background:new 0 0 504.135 504.135;" xml:space="preserve">
<path style="fill:#AEB1B4;" d="M42.025,202.668c0,1.2,2,0.8,2,8.8h419.6c0-8-2-7.6-2-8.8v-11.2h-420v11.2H42.025z"/>
<path style="fill:#7D8B95;" d="M187.225,307.868c3.2-33.2,30.8-59.6,65.2-59.6c36.4,0,65.6,29.6,65.6,66v87.2
	c84-26.8,142.4-102.4,145.6-190.4h-419.6c3.2,88,61.6,163.2,141.6,190.4v-87.2C186.025,312.268,187.225,310.268,187.225,307.868z"/>
<rect x="42.025" y="171.468" style="fill:#E8E3E3;" width="420" height="20"/>
<path style="fill:#AEB1B4;" d="M2.025,91.468v43.2c0,16.4,17.6,32.8,34,32.8h440c17.2,0,26-17.6,26-32.8v-43.2H2.025z"/>
<path style="fill:#7D8B95;" d="M188.425,307.868c-0.4,2-0.4,4.4-0.4,6.4C188.025,312.268,188.025,310.268,188.425,307.868z"/>
<path style="fill:#AEB1B4;" d="M314.025,402.668v-88c0-34-28-62-62-62s-62,28-62,62v88c0,0.4,0.8,0.4,0.8,0.8
	c19.6,6,41.2,9.2,62.8,9.2s41.6-3.2,61.2-9.2C314.825,403.068,314.025,402.668,314.025,402.668z"/>
<path style="fill:#ACD9EA;" d="M256.025,272.668c-23.2,0-42,18.8-42,42s18.8,42,42,42s42-18.8,42-42
	S279.225,272.668,256.025,272.668z"/>
<path style="fill:#CDEEF9;" d="M256.025,292.668c-12,0-22,10-22,22s10,22,22,22c6,0,12-2.4,16-6.8c4-4,6-9.6,6-15.2
	C277.225,293.468,256.825,292.668,256.025,292.668z"/>
<path d="M252.025,418.668c-119.2,0-216-96.8-216-216v-31.2c0-2.4,1.6-4,4-4s4,1.6,4,4v31.2c0,114.8,93.2,208,208,208
	s208-93.2,208-208v-31.2c0-2.4,1.6-4,4-4s4,1.6,4,4v31.2C468.025,321.468,371.225,418.668,252.025,418.668z"/>
<path d="M476.025,173.468h-440c-9.2,0-18-4-24.8-11.2c-7.2-7.6-11.6-18-11.2-28v-44.8c0-2.4,1.6-4,4-4h496c2.4,0,4,1.6,4,4v44.8
	c0.8,13.2-2.8,24.4-9.6,31.6C489.625,170.668,483.225,173.468,476.025,173.468z M8.025,93.468v41.2c-0.4,8.4,2.8,16.4,8.8,22.4
	c5.2,5.6,12,8.4,19.2,8.4h440c5.2,0,9.6-1.6,12.8-5.2c5.2-5.2,7.6-14.8,7.2-25.6l0,0v-41.2L8.025,93.468L8.025,93.468z"/>
<path d="M410.025,193.468h-368c-2.4,0-4-1.6-4-4s1.6-4,4-4h368c2.4,0,4,1.6,4,4S412.425,193.468,410.025,193.468z"/>
<path d="M410.025,213.468h-364c-2.4,0-4-1.6-4-4s1.6-4,4-4h364c2.4,0,4,1.6,4,4S412.425,213.468,410.025,213.468z"/>
<path d="M462.025,193.468h-20c-2.4,0-4-1.6-4-4s1.6-4,4-4h20c2.4,0,4,1.6,4,4S464.425,193.468,462.025,193.468z"/>
<path d="M462.025,213.468h-20c-2.4,0-4-1.6-4-4s1.6-4,4-4h20c2.4,0,4,1.6,4,4S464.425,213.468,462.025,213.468z"/>
<path d="M316.025,407.468c-2.4,0-4-1.6-4-4v-88.8c0-33.2-26.8-60-60-60s-60,26.8-60,60v88.8c0,2.4-1.6,4-4,4s-4-1.6-4-4v-88.8
	c0-37.6,30.4-68,68-68s68,30.4,68,68v88.8C320.025,405.868,318.425,407.468,316.025,407.468z"/>
<path d="M256.025,362.668c-26.4,0-48-21.6-48-48s21.6-48,48-48s48,21.6,48,48S282.425,362.668,256.025,362.668z M256.025,274.668
	c-22,0-40,18-40,40s18,40,40,40s40-18,40-40S278.025,274.668,256.025,274.668z"/>
<path d="M256.025,342.668c-15.6,0-28-12.4-28-28s12.4-28,28-28c2.4,0,4,1.6,4,4s-1.6,4-4,4c-11.2,0-20,8.8-20,20s8.8,20,20,20
	s20-8.8,20-20c0-2.4,1.6-4,4-4s4,1.6,4,4C284.025,329.868,271.625,342.668,256.025,342.668z"/>
<g>
</g>
<g>
</g>
<g>
</g>
<g>
</g>
<g>
</g>
<g>
</g>
<g>
</g>
<g>
</g>
<g>
</g>
<g>
</g>
<g>
</g>
<g>
</g>
<g>
</g>
<g>
</g>
<g>
</g>
</svg>
