<svg width="826" height="826" viewBox="0 0 826 826" fill="none" xmlns="http://www.w3.org/2000/svg">
<path d="M409.823 761.647C601.921 761.647 757.647 605.921 757.647 413.823C757.647 221.726 601.921 66 409.823 66C217.726 66 62 221.726 62 413.823C62 605.921 217.726 761.647 409.823 761.647Z" fill="#EEEDF2"/>
<path d="M370.621 647.25L475.161 466.078C479.679 458.334 476.936 448.332 469.192 443.815L212.68 295.716C204.937 291.199 194.934 293.941 190.417 301.685L85.8766 482.856C81.3594 490.6 84.102 500.602 91.8457 505.12L348.357 653.219C356.101 657.575 366.104 654.993 370.621 647.25Z" fill="#D3D5E7"/>
<path d="M333.677 581.589L497.586 451.72C504.684 446.073 505.814 435.91 500.167 428.973L316.253 196.66C310.607 189.562 300.443 188.432 293.506 194.079L129.596 323.948C122.498 329.595 121.369 339.758 127.015 346.695L310.929 579.008C316.414 585.945 326.578 587.236 333.677 581.589Z" fill="#D3D5E7"/>
<path d="M529.852 505.281H320.609C311.575 505.281 304.315 498.021 304.315 488.987V192.788C304.315 183.754 311.575 176.494 320.609 176.494H529.852C538.886 176.494 546.146 183.754 546.146 192.788V488.987C546.146 498.021 538.886 505.281 529.852 505.281Z" fill="#D3D5E7"/>
<path d="M511.621 571.425L351.261 437.039C344.324 431.231 343.518 421.067 349.325 414.13L539.693 187.142C545.5 180.205 555.664 179.398 562.601 185.206L722.961 319.592C729.898 325.4 730.705 335.564 724.897 342.501L534.53 569.489C528.722 576.265 518.559 577.233 511.621 571.425Z" fill="#D3D5E7"/>
<path d="M474.839 632.569L386.108 443.17C382.236 435.103 385.785 425.423 393.852 421.552L662.141 295.877C670.207 292.005 679.887 295.554 683.759 303.621L772.489 493.02C776.361 501.086 772.812 510.766 764.745 514.638L496.457 640.474C488.229 644.184 478.549 640.796 474.839 632.569Z" fill="#D3D5E7"/>
<path d="M352.229 631.866L456.77 450.695C461.287 442.951 458.545 432.949 450.801 428.432L194.289 280.332C186.545 275.815 176.543 278.558 172.026 286.302L67.6466 467.473C63.1294 475.217 65.872 485.219 73.6157 489.736L330.127 637.836C337.871 642.353 347.712 639.61 352.229 631.866Z" fill="#D3D5E7" stroke="#1E247E" stroke-width="6" stroke-miterlimit="10" stroke-linecap="round"/>
<path d="M78.1328 473.926C77.0035 475.862 77.6489 478.282 79.5848 479.411" stroke="#1E247E" stroke-width="2.5" stroke-miterlimit="10" stroke-linecap="round"/>
<path d="M330.289 554.429L494.36 424.56C501.458 418.913 502.587 408.75 496.941 401.813L313.027 169.5C307.38 162.402 297.217 161.272 290.279 166.919L126.209 296.788C119.11 302.434 117.981 312.598 123.628 319.535L307.542 551.848C313.027 558.946 323.352 560.075 330.289 554.429Z" fill="#F0C330" stroke="#1E247E" stroke-width="6" stroke-miterlimit="10" stroke-linecap="round"/>
<path d="M132.016 305.177C129.919 306.79 129.596 309.856 131.21 311.791" stroke="#1E247E" stroke-width="2.5" stroke-miterlimit="10" stroke-linecap="round"/>
<path d="M511.622 490.059H302.379C293.345 490.059 286.085 482.799 286.085 473.765V177.566C286.085 168.532 293.345 161.272 302.379 161.272H511.622C520.656 161.272 527.916 168.532 527.916 177.566V473.765C527.755 482.799 520.495 490.059 511.622 490.059Z" fill="#69AEF8" stroke="#1E247E" stroke-width="6" stroke-miterlimit="10" stroke-linecap="round"/>
<g opacity="0.3">
<path opacity="0.3" d="M409.017 260.973H321.9C319.319 260.973 317.06 258.876 317.06 256.133V239.839C317.06 237.258 319.157 234.999 321.9 234.999H409.017C411.598 234.999 413.857 237.097 413.857 239.839V256.133C413.696 258.876 411.598 260.973 409.017 260.973Z" fill="white"/>
<path opacity="0.3" d="M444.025 222.093H322.545C319.48 222.093 316.899 219.673 316.899 216.447V201.766C316.899 198.7 319.319 196.119 322.545 196.119H444.025C447.09 196.119 449.672 198.539 449.672 201.766V216.447C449.672 219.512 447.252 222.093 444.025 222.093Z" fill="white"/>
</g>
<path d="M298.023 178.857C298.023 175.63 300.766 172.888 303.992 172.888" stroke="#1E247E" stroke-width="2.5" stroke-miterlimit="10" stroke-linecap="round"/>
<path d="M502.265 556.203L341.904 421.817C334.967 416.009 334.161 405.846 339.968 398.908L530.336 171.92C536.143 164.983 546.307 164.176 553.244 169.984L713.604 304.37C720.542 310.178 721.348 320.342 715.54 327.279L525.173 554.267C519.365 561.043 509.202 562.011 502.265 556.203Z" fill="#79CAA1" stroke="#1E247E" stroke-width="6" stroke-miterlimit="10" stroke-linecap="round"/>
<path d="M540.661 183.858C542.758 181.438 546.468 181.115 548.888 183.213" stroke="#1E247E" stroke-width="2.5" stroke-miterlimit="10" stroke-linecap="round"/>
<path d="M456.447 617.347L367.717 427.948C363.845 419.881 367.394 410.202 375.461 406.33L643.749 280.655C651.816 276.783 661.496 280.332 665.367 288.399L754.098 477.798C757.97 485.864 754.421 495.544 746.354 499.416L478.065 625.091C469.999 628.962 460.319 625.413 456.447 617.347Z" fill="#DA867D" stroke="#1E247E" stroke-width="6" stroke-miterlimit="10" stroke-linecap="round"/>
<g opacity="0.3">
<path opacity="0.3" d="M633.263 472.636L581.638 362.61C580.347 359.867 581.477 356.479 584.381 355.189L597.61 348.897C600.352 347.606 603.74 348.736 605.031 351.639L656.656 461.665C657.946 464.408 656.817 467.796 653.913 469.086L640.684 475.378C637.942 476.669 634.554 475.378 633.263 472.636Z" fill="white"/>
<path opacity="0.3" d="M669.562 455.535L618.098 345.509C616.808 342.766 617.937 339.378 620.841 338.088L634.07 331.796C636.812 330.505 640.2 331.635 641.491 334.539L693.116 444.564C694.407 447.307 693.277 450.695 690.373 451.986L677.144 458.277C674.241 459.568 670.853 458.439 669.562 455.535Z" fill="white"/>
</g>
<path d="M645.686 295.981C648.751 294.529 652.3 295.82 653.752 298.885" stroke="#1E247E" stroke-width="2.5" stroke-miterlimit="10" stroke-linecap="round"/>
<path d="M642.136 393.585V608.797C642.136 636.384 619.711 658.808 592.124 658.808H235.266C207.679 658.808 185.255 636.384 185.255 608.797V339.056C185.255 304.693 213.164 276.783 247.527 276.783H392.077C411.114 276.783 429.021 285.495 440.798 300.337L460.319 324.859C465.482 331.312 473.387 335.184 481.776 335.184H583.735C616.001 335.184 642.136 361.319 642.136 393.585Z" fill="white" stroke="#1E247E" stroke-width="6" stroke-miterlimit="10" stroke-linecap="round"/>
<path d="M342.388 351.962C347.467 351.962 351.584 347.845 351.584 342.766C351.584 337.688 347.467 333.571 342.388 333.571C337.31 333.571 333.193 337.688 333.193 342.766C333.193 347.845 337.31 351.962 342.388 351.962Z" fill="#DBE7FE" stroke="#1E247E" stroke-width="5" stroke-miterlimit="10" stroke-linecap="round"/>
<path d="M300.443 351.962C305.522 351.962 309.639 347.845 309.639 342.766C309.639 337.688 305.522 333.571 300.443 333.571C295.364 333.571 291.247 337.688 291.247 342.766C291.247 347.845 295.364 351.962 300.443 351.962Z" fill="#DBE7FE" stroke="#1E247E" stroke-width="5" stroke-miterlimit="10" stroke-linecap="round"/>
<path d="M258.659 351.962C263.738 351.962 267.855 347.845 267.855 342.766C267.855 337.688 263.738 333.571 258.659 333.571C253.58 333.571 249.463 337.688 249.463 342.766C249.463 347.845 253.58 351.962 258.659 351.962Z" fill="#DBE7FE" stroke="#1E247E" stroke-width="5" stroke-miterlimit="10" stroke-linecap="round"/>
<path d="M370.459 433.433L383.366 443.435" stroke="#1E247E" stroke-width="2.5" stroke-miterlimit="10" stroke-linecap="round"/>
<path d="M370.459 421.01L396.272 440.854" stroke="#1E247E" stroke-width="2.5" stroke-miterlimit="10" stroke-linecap="round"/>
<path d="M389.174 422.785L396.272 428.27" stroke="#1E247E" stroke-width="2.5" stroke-miterlimit="10" stroke-linecap="round"/>
<path d="M596.803 360.674C607.128 363.578 615.194 372.128 617.291 382.776" stroke="#1E247E" stroke-width="3" stroke-miterlimit="10" stroke-linecap="round"/>
<path d="M617.292 438.918V491.672" stroke="#1E247E" stroke-width="3" stroke-miterlimit="10" stroke-linecap="round"/>
<path d="M617.292 421.979V428.916" stroke="#1E247E" stroke-width="3" stroke-miterlimit="10" stroke-linecap="round"/>
<path d="M398.692 591.534H237.364C233.008 591.534 229.459 587.985 229.459 583.629V496.512C229.459 492.156 233.008 488.607 237.364 488.607H398.692C403.048 488.607 406.597 492.156 406.597 496.512V583.629C406.597 587.985 403.048 591.534 398.692 591.534Z" fill="#F2F3F3"/>
<path d="M305.444 469.248H233.008C230.427 469.248 228.329 467.15 228.329 464.569V418.591C228.329 416.009 230.427 413.912 233.008 413.912H305.444C308.025 413.912 310.123 416.009 310.123 418.591V464.569C310.284 466.989 308.187 469.248 305.444 469.248Z" fill="#F2F3F3"/>
<path d="M597.287 107.55L583.896 111.906" stroke="white" stroke-width="7" stroke-miterlimit="10" stroke-linecap="round"/>
<path d="M582.283 88.5132L571.636 100.29" stroke="white" stroke-width="7" stroke-miterlimit="10" stroke-linecap="round"/>
<path d="M557.6 90.7719L559.697 75.9297" stroke="white" stroke-width="7" stroke-miterlimit="10" stroke-linecap="round"/>
<path d="M182.028 163.208L167.186 160.95" stroke="white" stroke-width="7" stroke-miterlimit="10" stroke-linecap="round"/>
<path d="M179.931 138.525L191.708 149.173" stroke="white" stroke-width="7" stroke-miterlimit="10" stroke-linecap="round"/>
<path d="M199.129 123.683L203.323 137.073" stroke="white" stroke-width="7" stroke-miterlimit="10" stroke-linecap="round"/>
</svg>
