<svg id="Layer_1" enable-background="new 0 0 512 512" height="512" viewBox="0 0 512 512" width="512" xmlns="http://www.w3.org/2000/svg"><g><g id="XMLID_30_"><g><g id="XMLID_1675_"><g id="XMLID_1676_"><g id="XMLID_1677_"><g id="XMLID_1678_"><g id="XMLID_1679_"><g id="XMLID_1680_"><g id="XMLID_1681_"><g id="XMLID_1682_"><g id="XMLID_1683_"><g id="XMLID_1684_"><g id="XMLID_1685_"><g id="XMLID_1689_"><g id="XMLID_1714_"><g id="XMLID_1715_"><circle cx="256" cy="256" fill="#005fd2" r="256"/></g></g></g></g></g></g></g></g></g></g></g></g></g></g></g></g><path d="m512 256c0-3.494-.09-6.967-.229-10.428l-47.575-47.575s-111.608-37.212-214.196-31.498c-84.368 4.699-162.5 49.119-168.603 75.046l23.978 24.455-1.407 165 66.257 66.257c26.817 9.536 55.686 14.743 85.775 14.743 141.385 0 256-114.615 256-256z" fill="#00459f"/><g><g><path d="m408.032 431h-304.064v-240.994l152.032-119.878 152.032 119.878z" fill="#fff"/></g><g><path d="m408.03 190.01v240.99h-152.03v-360.87z" fill="#e9edf5"/></g><g><g><g><path d="m430.603 241.546-174.603-134.687-174.603 134.687-33.593-43.548 208.196-160.601 208.196 160.601z" fill="#fedd55"/></g></g></g><g><path d="m464.2 198-33.6 43.55-22.57-17.41-152.03-117.28v-69.46z" fill="#ffc627"/></g><g><g><g><path d="m354.86 236.22-19.8 25.21c-23.1-15.78-50.67-24.49-79.06-24.49-28.38 0-55.96 8.7-79.06 24.49l-19.8-25.21c28.72-20.15 63.27-31.28 98.86-31.28 35.58 0 70.13 11.13 98.86 31.28z" fill="#436375"/></g></g><g><g><path d="m354.86 236.22-19.8 25.21c-23.1-15.78-50.68-24.48-79.06-24.48v-32c35.58 0 70.13 11.13 98.86 31.27z" fill="#274a59"/></g></g><g><g><path d="m312.33 290.38-19.8 25.21c-10.82-7.19-23.35-10.96-36.53-10.96-13.19 0-25.71 3.77-36.53 10.96l-19.8-25.21c16.43-11.48 36.21-17.75 56.33-17.75s39.9 6.27 56.33 17.75z" fill="#436375"/></g></g><g><path d="m312.33 290.38-19.8 25.21c-10.82-7.19-23.34-10.96-36.53-10.96v-32c20.12 0 39.9 6.27 56.33 17.75z" fill="#274a59"/></g></g><ellipse cx="256" cy="354.406" fill="#436375" rx="21.454" ry="21.455" transform="matrix(.924 -.383 .383 .924 -116.139 124.945)"/><path d="m277.45 354.41c0 11.85-9.6 21.45-21.45 21.45v-42.91c11.85 0 21.45 9.61 21.45 21.46z" fill="#274a59"/></g></g></svg>